<svg width="49" height="52" viewBox="0 0 49 52" fill="none" xmlns="http://www.w3.org/2000/svg">
<path d="M31.2379 24.762C27.1786 24.762 23.8879 21.4361 23.8879 17.3334C23.8879 13.2307 27.1786 9.90485 31.2379 9.90485C35.2972 9.90485 38.5879 13.2307 38.5879 17.3334C38.5879 21.4361 35.2972 24.762 31.2379 24.762Z" fill="#2BB9CA"/>
<path opacity="0.5" d="M31.2379 34.0477C22.1045 34.0477 14.7004 26.5645 14.7004 17.3334C14.7004 8.10238 22.1045 0.619141 31.2379 0.619141C40.3713 0.619141 47.7754 8.10238 47.7754 17.3334C47.7754 26.5645 40.3713 34.0477 31.2379 34.0477Z" stroke="#27A8B8"/>
<path d="M30.073 17.7562L2.65613 33.6371C2.40329 33.7836 2.44531 34.1642 2.72375 34.2509L16.0157 38.3834C16.365 38.492 16.6655 38.7211 16.8644 39.031L23.5111 49.3793C23.673 49.6312 24.0555 49.559 24.1164 49.265L30.5646 18.1171C30.6234 17.8328 30.3224 17.6118 30.073 17.7562Z" fill="#C2EDF2"/>
</svg>
