<svg width="548" height="567" viewBox="0 0 548 567" fill="none" xmlns="http://www.w3.org/2000/svg">
<path d="M-214.509 0.40332H432.436C447.527 0.40332 459.76 12.6365 459.76 27.7268V539.591C459.76 554.682 447.527 566.915 432.436 566.915H-214.509C-229.6 566.915 -241.833 554.682 -241.833 539.591V27.7268C-241.833 12.6365 -229.6 0.40332 -214.509 0.40332Z" fill="url(#paint0_linear_303_49746)" fill-opacity="0.2"/>
<path d="M-214.51 0.964844H432.449C447.229 0.964844 459.211 12.9467 459.211 27.7272V539.605C459.211 554.386 447.229 566.368 432.449 566.368H-214.51C-229.291 566.368 -241.273 554.386 -241.273 539.605V27.7272C-241.273 12.9467 -229.291 0.964844 -214.51 0.964844Z" stroke="url(#paint1_linear_303_49746)" stroke-opacity="0.6" stroke-width="0.8458"/>
<path d="M-214.51 0.964844H432.449C447.229 0.964844 459.211 12.9467 459.211 27.7272V539.605C459.211 554.386 447.229 566.368 432.449 566.368H-214.51C-229.291 566.368 -241.273 554.386 -241.273 539.605V27.7272C-241.273 12.9467 -229.291 0.964844 -214.51 0.964844Z" stroke="url(#paint2_linear_303_49746)" stroke-width="0.8458"/>
<path d="M-170.418 60.5284H218.524C233.615 60.5284 245.848 72.7616 245.848 87.8519V490.155C245.848 505.246 233.615 517.479 218.524 517.479H-170.418C-185.509 517.479 -197.742 505.246 -197.742 490.155V87.8519C-197.742 72.7616 -185.509 60.5284 -170.418 60.5284Z" fill="url(#paint3_linear_303_49746)" fill-opacity="0.3"/>
<path d="M218.524 61.0355H-170.418C-185.228 61.0355 -197.235 73.0416 -197.235 87.8519V490.155C-197.235 504.966 -185.228 516.972 -170.418 516.972H218.524C233.334 516.972 245.341 504.966 245.341 490.155V87.8519C245.341 73.0416 233.334 61.0355 218.524 61.0355Z" stroke="#EBF9FB" stroke-opacity="0.18" stroke-width="1.01415"/>
<path d="M-170.431 61.0896H218.525C233.305 61.0896 245.287 73.0715 245.287 87.8519V490.169C245.287 504.949 233.305 516.931 218.525 516.931H-170.431C-185.211 516.931 -197.193 504.949 -197.193 490.169V87.8519C-197.193 73.0715 -185.211 61.0896 -170.431 61.0896Z" stroke="url(#paint4_linear_303_49746)" stroke-opacity="0.6" stroke-width="0.8458"/>
<path d="M-170.431 61.0896H218.525C233.305 61.0896 245.287 73.0715 245.287 87.8519V490.169C245.287 504.949 233.305 516.931 218.525 516.931H-170.431C-185.211 516.931 -197.193 504.949 -197.193 490.169V87.8519C-197.193 73.0715 -185.211 61.0896 -170.431 61.0896Z" stroke="url(#paint5_linear_303_49746)" stroke-width="0.8458"/>
<path d="M509.436 114.03H278.222C271.263 114.03 265.622 119.671 265.622 126.63V173.18C265.622 180.139 271.263 185.78 278.222 185.78H509.436C516.394 185.78 522.035 180.139 522.035 173.18V126.63C522.035 119.671 516.394 114.03 509.436 114.03Z" fill="url(#paint6_linear_303_49746)"/>
<path d="M282.243 114.361H505.093C514.634 114.361 522.369 122.096 522.369 131.637V169.516C522.369 179.057 514.634 186.792 505.093 186.792H282.243C272.702 186.792 264.967 179.057 264.967 169.516V131.637C264.967 122.096 272.702 114.361 282.243 114.361Z" stroke="url(#paint7_linear_303_49746)" stroke-opacity="0.6" stroke-width="0.8458"/>
<path d="M302.939 154.821H498.519C500.917 154.821 502.861 156.765 502.861 159.164V159.177C502.861 161.575 500.917 163.519 498.519 163.519H302.939C300.541 163.519 298.596 161.575 298.596 159.177V159.164C298.596 156.765 300.541 154.821 302.939 154.821Z" fill="white" stroke="white" stroke-width="0.16916"/>
<path opacity="0.7" d="M390.575 133.644H304.062C302.612 133.644 301.222 134.219 300.198 135.244C299.173 136.269 298.597 137.659 298.597 139.108C298.597 140.558 299.173 141.948 300.198 142.972C301.222 143.997 302.612 144.573 304.062 144.573H390.575C392.022 144.569 393.409 143.992 394.431 142.968C395.452 141.943 396.026 140.555 396.026 139.108C396.026 137.661 395.452 136.273 394.431 135.249C393.409 134.224 392.022 133.647 390.575 133.644Z" fill="white" stroke="white" stroke-width="0.16916"/>
<rect x="266.507" y="207.568" width="280.986" height="332.986" rx="15.4929" fill="url(#paint8_linear_303_49746)" fill-opacity="0.48"/>
<rect x="266.507" y="207.568" width="280.986" height="332.986" rx="15.4929" stroke="url(#paint9_linear_303_49746)" stroke-width="1.01415"/>
<path d="M298.25 240.061C298.25 240.475 298.586 240.811 299 240.811C299.414 240.811 299.75 240.475 299.75 240.061C299.75 239.646 299.414 239.311 299 239.311C298.586 239.311 298.25 239.646 298.25 240.061Z" stroke="#39C4D5" stroke-width="2" stroke-linecap="round" stroke-linejoin="round"/>
<path d="M298.25 245.311C298.25 245.725 298.586 246.061 299 246.061C299.414 246.061 299.75 245.725 299.75 245.311C299.75 244.896 299.414 244.561 299 244.561C298.586 244.561 298.25 244.896 298.25 245.311Z" stroke="#39C4D5" stroke-width="2" stroke-linecap="round" stroke-linejoin="round"/>
<path d="M298.25 234.811C298.25 235.225 298.586 235.561 299 235.561C299.414 235.561 299.75 235.225 299.75 234.811C299.75 234.396 299.414 234.061 299 234.061C298.586 234.061 298.25 234.396 298.25 234.811Z" stroke="#39C4D5" stroke-width="2" stroke-linecap="round" stroke-linejoin="round"/>
<rect opacity="0.09" x="344" y="233.061" width="159" height="14" rx="7" fill="#CAFFF0"/>
<path d="M517.322 246.34C516.576 243.723 513.848 241.006 511.221 240.262C510.926 240.168 510.926 239.959 511.221 239.86C513.853 239.112 516.576 236.4 517.326 233.777C517.407 233.488 517.602 233.488 517.683 233.777C518.429 236.4 521.156 239.112 523.779 239.86C524.074 239.955 524.074 240.168 523.779 240.262C521.151 241.006 518.424 243.723 517.678 246.34C517.597 246.634 517.402 246.634 517.322 246.34Z" fill="#FFB534"/>
<rect x="290" y="327.255" width="20" height="36" rx="3.32" fill="#CAFFF0"/>
<rect x="314" y="296.255" width="20" height="67" rx="3.32" fill="#20E6AD"/>
<rect x="338" y="327.255" width="20" height="36" rx="3.32" fill="#CAFFF0"/>
<rect x="362" y="306.255" width="20" height="57" rx="3.32" fill="#CAFFF0"/>
<rect x="386" y="327.255" width="20" height="36" rx="3.32" fill="#CAFFF0"/>
<rect opacity="0.09" x="454" y="288.463" width="70" height="14" rx="7" fill="#CAFFF0"/>
<rect opacity="0.09" x="425" y="312.463" width="99" height="20" rx="10" fill="#CAFFF0"/>
<rect opacity="0.09" x="454" y="340.463" width="70" height="14" rx="7" fill="#CAFFF0"/>
<rect x="290" y="393.866" width="234" height="1" fill="white" fill-opacity="0.2"/>
<rect x="290" y="473.061" width="20" height="36" rx="3.32" fill="#FFF2DB"/>
<rect x="314" y="442.061" width="20" height="67" rx="3.32" fill="#FFB534"/>
<rect x="338" y="473.061" width="20" height="36" rx="3.32" fill="#FFF2DB"/>
<rect x="362" y="452.061" width="20" height="57" rx="3.32" fill="#FFF2DB"/>
<rect x="386" y="473.061" width="20" height="36" rx="3.32" fill="#FFF2DB"/>
<rect opacity="0.09" x="454" y="434.269" width="70" height="14" rx="7" fill="#CAFFF0"/>
<rect opacity="0.09" x="425" y="458.269" width="99" height="20" rx="10" fill="#CAFFF0"/>
<rect opacity="0.09" x="454" y="486.269" width="70" height="14" rx="7" fill="#CAFFF0"/>
<defs>
<linearGradient id="paint0_linear_303_49746" x1="124.636" y1="1.27179" x2="91.5272" y2="597.859" gradientUnits="userSpaceOnUse">
<stop stop-color="white" stop-opacity="0.2"/>
<stop offset="1" stop-color="white" stop-opacity="0"/>
</linearGradient>
<linearGradient id="paint1_linear_303_49746" x1="-377.85" y1="264.526" x2="-138.392" y2="273.946" gradientUnits="userSpaceOnUse">
<stop stop-color="white"/>
<stop offset="1" stop-color="#EFEFEF" stop-opacity="0"/>
</linearGradient>
<linearGradient id="paint2_linear_303_49746" x1="483.795" y1="36.9196" x2="229.747" y2="204.147" gradientUnits="userSpaceOnUse">
<stop stop-color="white" stop-opacity="0.5"/>
<stop offset="1" stop-color="white" stop-opacity="0"/>
</linearGradient>
<linearGradient id="paint3_linear_303_49746" x1="132.438" y1="210.868" x2="-230.276" y2="472.358" gradientUnits="userSpaceOnUse">
<stop stop-color="white" stop-opacity="0.2"/>
<stop offset="1" stop-color="white" stop-opacity="0"/>
</linearGradient>
<linearGradient id="paint4_linear_303_49746" x1="-283.92" y1="279.517" x2="-132.432" y2="284.18" gradientUnits="userSpaceOnUse">
<stop stop-color="white"/>
<stop offset="1" stop-color="#EFEFEF" stop-opacity="0"/>
</linearGradient>
<linearGradient id="paint5_linear_303_49746" x1="292.318" y1="150.582" x2="110.5" y2="244.404" gradientUnits="userSpaceOnUse">
<stop stop-color="white" stop-opacity="0.5"/>
<stop offset="1" stop-color="white" stop-opacity="0"/>
</linearGradient>
<linearGradient id="paint6_linear_303_49746" x1="259.178" y1="151.519" x2="630.252" y2="191.447" gradientUnits="userSpaceOnUse">
<stop stop-color="#3AC6D7"/>
<stop offset="1" stop-color="#116F91"/>
</linearGradient>
<linearGradient id="paint7_linear_303_49746" x1="216.226" y1="130.782" x2="303.514" y2="140.522" gradientUnits="userSpaceOnUse">
<stop stop-color="white"/>
<stop offset="1" stop-color="#EFEFEF" stop-opacity="0"/>
</linearGradient>
<linearGradient id="paint8_linear_303_49746" x1="338.097" y1="316.949" x2="589.634" y2="474.667" gradientUnits="userSpaceOnUse">
<stop stop-color="white" stop-opacity="0.2"/>
<stop offset="1" stop-color="white" stop-opacity="0"/>
</linearGradient>
<linearGradient id="paint9_linear_303_49746" x1="236.026" y1="272.633" x2="358.154" y2="327.448" gradientUnits="userSpaceOnUse">
<stop stop-color="white" stop-opacity="0.5"/>
<stop offset="1" stop-color="white" stop-opacity="0"/>
</linearGradient>
</defs>
</svg>
