<svg width="562" height="567" viewBox="0 0 562 567" fill="none" xmlns="http://www.w3.org/2000/svg">
<g clip-path="url(#clip0_6559_91004)">
<path d="M-200.509 0H446.436C461.527 0 473.76 12.2331 473.76 27.3235V539.188C473.76 554.279 461.527 566.512 446.436 566.512H-200.509C-215.6 566.512 -227.833 554.279 -227.833 539.188V27.3235C-227.833 12.2331 -215.6 0 -200.509 0Z" fill="#183653"/>
<path d="M-200.51 0.5625H446.449C461.229 0.5625 473.211 12.5444 473.211 27.3248V539.203C473.211 553.983 461.229 565.965 446.449 565.965H-200.51C-215.291 565.965 -227.273 553.983 -227.273 539.203V27.3248C-227.273 12.5444 -215.291 0.5625 -200.51 0.5625Z" stroke="url(#paint0_linear_6559_91004)" stroke-opacity="0.6" stroke-width="0.8458"/>
<path d="M-200.51 0.5625H446.449C461.229 0.5625 473.211 12.5444 473.211 27.3248V539.203C473.211 553.983 461.229 565.965 446.449 565.965H-200.51C-215.291 565.965 -227.273 553.983 -227.273 539.203V27.3248C-227.273 12.5444 -215.291 0.5625 -200.51 0.5625Z" stroke="url(#paint1_linear_6559_91004)" stroke-width="0.8458"/>
<path d="M-156.418 60.125H232.524C247.615 60.125 259.848 72.3581 259.848 87.4485V489.752C259.848 504.842 247.615 517.076 232.524 517.076H-156.418C-171.509 517.076 -183.742 504.842 -183.742 489.752V87.4485C-183.742 72.3581 -171.509 60.125 -156.418 60.125Z" fill="#24405B"/>
<path d="M232.524 60.6321H-156.418C-171.228 60.6321 -183.235 72.6382 -183.235 87.4485V489.752C-183.235 504.562 -171.228 516.568 -156.418 516.568H232.524C247.334 516.568 259.341 504.562 259.341 489.752V87.4485C259.341 72.6382 247.334 60.6321 232.524 60.6321Z" stroke="#EBF9FB" stroke-opacity="0.18" stroke-width="1.01415"/>
<path d="M-156.431 60.6855H232.525C247.305 60.6855 259.287 72.6674 259.287 87.4479V489.765C259.287 504.545 247.305 516.527 232.525 516.527H-156.431C-171.211 516.527 -183.193 504.545 -183.193 489.765V87.4479C-183.193 72.6674 -171.211 60.6855 -156.431 60.6855Z" stroke="url(#paint2_linear_6559_91004)" stroke-opacity="0.6" stroke-width="0.8458"/>
<path d="M-156.431 60.6855H232.525C247.305 60.6855 259.287 72.6674 259.287 87.4479V489.765C259.287 504.545 247.305 516.527 232.525 516.527H-156.431C-171.211 516.527 -183.193 504.545 -183.193 489.765V87.4479C-183.193 72.6674 -171.211 60.6855 -156.431 60.6855Z" stroke="url(#paint3_linear_6559_91004)" stroke-width="0.8458"/>
<path d="M523.436 113.627H292.222C285.263 113.627 279.622 119.268 279.622 126.226V172.777C279.622 179.735 285.263 185.376 292.222 185.376H523.436C530.394 185.376 536.035 179.735 536.035 172.777V126.226C536.035 119.268 530.394 113.627 523.436 113.627Z" fill="url(#paint4_linear_6559_91004)"/>
<path d="M296.243 113.957H519.093C528.634 113.957 536.369 121.692 536.369 131.233V169.112C536.369 178.653 528.634 186.388 519.093 186.388H296.243C286.702 186.388 278.967 178.653 278.967 169.112V131.233C278.967 121.692 286.702 113.957 296.243 113.957Z" stroke="url(#paint5_linear_6559_91004)" stroke-opacity="0.6" stroke-width="0.8458"/>
<path d="M316.939 154.418H512.519C514.917 154.418 516.861 156.362 516.861 158.76V158.774C516.861 161.172 514.917 163.116 512.519 163.116H316.939C314.541 163.116 312.596 161.172 312.596 158.774V158.76C312.596 156.362 314.541 154.418 316.939 154.418Z" fill="white" stroke="white" stroke-width="0.16916"/>
<path opacity="0.7" d="M404.575 133.24H318.062C316.612 133.24 315.222 133.816 314.198 134.841C313.173 135.866 312.597 137.256 312.597 138.705C312.597 140.154 313.173 141.544 314.198 142.569C315.222 143.594 316.612 144.17 318.062 144.17H404.575C406.022 144.166 407.409 143.589 408.431 142.564C409.452 141.54 410.026 140.152 410.026 138.705C410.026 137.258 409.452 135.87 408.431 134.846C407.409 133.821 406.022 133.244 404.575 133.24Z" fill="white" stroke="white" stroke-width="0.16916"/>
<rect x="280.507" y="207.163" width="280.986" height="332.986" rx="15.4929" fill="#2C4761"/>
<rect x="280.507" y="207.163" width="280.986" height="332.986" rx="15.4929" stroke="url(#paint6_linear_6559_91004)" stroke-width="1.01415"/>
<path d="M312.25 239.656C312.25 240.07 312.586 240.406 313 240.406C313.414 240.406 313.75 240.07 313.75 239.656C313.75 239.242 313.414 238.906 313 238.906C312.586 238.906 312.25 239.242 312.25 239.656Z" stroke="#39C4D5" stroke-width="2" stroke-linecap="round" stroke-linejoin="round"/>
<path d="M312.25 244.906C312.25 245.32 312.586 245.656 313 245.656C313.414 245.656 313.75 245.32 313.75 244.906C313.75 244.492 313.414 244.156 313 244.156C312.586 244.156 312.25 244.492 312.25 244.906Z" stroke="#39C4D5" stroke-width="2" stroke-linecap="round" stroke-linejoin="round"/>
<path d="M312.25 234.406C312.25 234.82 312.586 235.156 313 235.156C313.414 235.156 313.75 234.82 313.75 234.406C313.75 233.992 313.414 233.656 313 233.656C312.586 233.656 312.25 233.992 312.25 234.406Z" stroke="#39C4D5" stroke-width="2" stroke-linecap="round" stroke-linejoin="round"/>
<rect opacity="0.09" x="358" y="232.656" width="159" height="14" rx="7" fill="#CAFFF0"/>
<path d="M531.322 245.936C530.576 243.318 527.848 240.601 525.221 239.858C524.926 239.763 524.926 239.555 525.221 239.456C527.853 238.708 530.576 235.995 531.326 233.373C531.407 233.084 531.602 233.084 531.683 233.373C532.429 235.995 535.156 238.708 537.779 239.456C538.074 239.55 538.074 239.763 537.779 239.858C535.151 240.601 532.424 243.318 531.678 245.936C531.597 246.23 531.402 246.23 531.322 245.936Z" fill="#FFB534"/>
<rect x="304" y="326.852" width="20" height="36" rx="3.32" fill="#CAFFF0"/>
<rect x="328" y="295.852" width="20" height="67" rx="3.32" fill="#20E6AD"/>
<rect x="352" y="326.852" width="20" height="36" rx="3.32" fill="#CAFFF0"/>
<rect x="376" y="305.852" width="20" height="57" rx="3.32" fill="#CAFFF0"/>
<rect x="400" y="326.852" width="20" height="36" rx="3.32" fill="#CAFFF0"/>
<rect opacity="0.09" x="468" y="288.059" width="70" height="14" rx="7" fill="#CAFFF0"/>
<rect opacity="0.09" x="439" y="312.059" width="99" height="20" rx="10" fill="#CAFFF0"/>
<rect opacity="0.09" x="468" y="340.059" width="70" height="14" rx="7" fill="#CAFFF0"/>
<rect x="304" y="393.461" width="234" height="1" fill="white" fill-opacity="0.2"/>
<rect x="304" y="472.656" width="20" height="36" rx="3.32" fill="#FFF2DB"/>
<rect x="328" y="441.656" width="20" height="67" rx="3.32" fill="#FFB534"/>
<rect x="352" y="472.656" width="20" height="36" rx="3.32" fill="#FFF2DB"/>
<rect x="376" y="451.656" width="20" height="57" rx="3.32" fill="#FFF2DB"/>
<rect x="400" y="472.656" width="20" height="36" rx="3.32" fill="#FFF2DB"/>
<rect opacity="0.09" x="468" y="433.863" width="70" height="14" rx="7" fill="#CAFFF0"/>
<rect opacity="0.09" x="439" y="457.863" width="99" height="20" rx="10" fill="#CAFFF0"/>
<rect opacity="0.09" x="468" y="485.863" width="70" height="14" rx="7" fill="#CAFFF0"/>
<path d="M101.238 513.761C97.1786 513.761 93.8879 510.436 93.8879 506.333C93.8879 502.23 97.1786 498.904 101.238 498.904C105.297 498.904 108.588 502.23 108.588 506.333C108.588 510.436 105.297 513.761 101.238 513.761Z" fill="#2BB9CA"/>
<path opacity="0.5" d="M101.238 523.048C92.1045 523.048 84.7004 515.564 84.7004 506.333C84.7004 497.102 92.1045 489.619 101.238 489.619C110.371 489.619 117.775 497.102 117.775 506.333C117.775 515.564 110.371 523.048 101.238 523.048Z" stroke="#27A8B8"/>
<path d="M100.073 506.756L72.6561 522.637C72.4033 522.784 72.4453 523.164 72.7238 523.251L86.0157 527.384C86.365 527.492 86.6655 527.721 86.8644 528.031L93.5111 538.379C93.673 538.631 94.0555 538.559 94.1164 538.265L100.565 507.117C100.623 506.833 100.322 506.612 100.073 506.756Z" fill="#C2EDF2"/>
<rect opacity="0.09" x="154" y="430.598" width="70" height="14" rx="7" fill="#CAFFF0"/>
<rect width="480" height="24" transform="translate(-256 458.598)" fill="white" fill-opacity="0.04"/>
<path d="M-256 470.041L-254.957 470.166L-253.913 469.296L-252.87 469.42L-251.826 470.538L-250.783 470.663L-249.739 467.183L-248.696 466.811L-247.652 466.686L-246.609 466.811L-244.522 466.562L-243.478 466.935L-242.435 465.568L-241.391 465.32L-240.348 465.444L-239.304 463.828L-238.261 462.337L-237.217 465.32L-236.174 466.065L-235.13 464.574L-234.087 465.32L-233.043 468.053L-232 469.544L-230.957 469.42L-229.913 470.041L-228.87 468.55L-227.826 470.663L-226.783 469.42L-225.739 470.663L-224.696 470.538L-223.652 469.544L-222.609 469.42L-221.565 467.68L-220.522 464.822L-219.478 464.45L-218.435 464.325L-217.391 464.45L-216.348 463.331L-215.304 463.456L-214.261 462.71L-213.217 464.698L-212.174 462.834L-211.13 461.095L-210.087 460.97L-209.043 462.462L-206.957 462.71L-205.913 463.58L-204.87 465.071L-203.826 465.692L-202.783 465.32L-201.739 466.562L-200.696 466.314H-199.652L-198.609 466.811L-197.565 465.941L-196.522 466.065L-195.478 463.828L-194.435 463.207L-193.391 463.083L-192.348 462.337L-191.304 462.213L-190.261 462.337L-189.217 464.077L-188.174 463.58L-187.13 462.213L-186.087 462.337L-185.043 462.213L-184 461.716L-182.957 461.592L-181.913 461.716L-180.87 462.71L-179.826 462.834H-178.783L-177.739 462.462L-176.696 462.337L-175.652 462.959L-174.609 460.598L-173.565 463.083L-172.522 462.959L-171.478 463.083L-170.435 461.592L-169.391 461.716L-168.348 461.592L-167.304 461.716L-166.261 461.592L-165.217 462.462L-164.174 463.828L-163.13 461.965L-162.087 464.201L-161.043 466.314L-160 466.189L-158.957 466.438L-157.913 464.325L-156.87 462.959L-155.826 462.834L-154.783 462.959L-153.739 462.834L-152.696 465.195L-151.652 467.308L-150.609 468.55L-149.565 462.834L-148.522 463.331L-147.478 463.207L-146.435 462.71L-145.391 462.586L-144.348 463.58H-143.304L-142.261 463.704L-141.217 463.58L-140.174 462.586L-139.13 462.462L-138.087 461.095L-137.043 461.965L-136 462.089L-134.957 460.846L-133.913 461.095L-132.87 463.58L-131.826 463.704L-130.783 463.58L-129.739 462.71L-128.696 463.58L-127.652 463.456L-126.609 462.337L-125.565 462.213L-124.522 465.692L-123.478 466.065L-122.435 466.189L-121.391 466.065L-119.304 466.314L-118.261 465.941L-117.217 467.308L-116.174 467.556L-115.13 467.432L-114.087 469.047L-113.043 470.539L-112 467.556L-110.957 466.811L-109.913 468.302L-108.87 467.556L-107.826 464.823L-106.783 463.331L-105.739 463.456L-104.696 462.834L-103.652 464.326L-102.609 462.213L-101.565 463.456L-100.522 462.213L-99.4783 462.337L-98.4348 463.331L-97.3913 463.456L-96.3478 465.195L-95.3043 468.053L-94.2609 468.426L-93.2174 468.55L-92.1739 468.426L-91.1304 469.544L-90.087 469.42L-89.0435 470.166L-88 468.178L-86.9565 470.041L-85.913 471.781L-84.8696 471.905L-83.8261 470.414L-81.7391 470.166L-80.6957 469.296L-79.6522 467.805L-78.6087 467.184L-77.5652 467.556L-76.5217 466.314L-75.4783 466.562H-74.4348L-73.3913 466.065L-72.3478 466.935L-71.3043 466.811L-70.2609 469.047L-69.2174 469.669L-68.1739 469.793L-67.1304 470.539L-66.0869 470.663L-65.0435 470.539L-64 468.799L-62.9565 469.296L-61.9131 470.663L-60.8696 470.539L-59.8261 470.663L-58.7826 471.16L-57.7391 471.284L-56.6957 471.16L-55.6522 470.166L-54.6087 470.041H-53.5652L-52.5217 470.414L-51.4783 470.539L-50.4348 469.917L-49.3913 472.278L-48.3478 469.793L-47.3043 469.917L-46.2609 469.793L-45.2174 471.284L-44.1739 471.16L-43.1304 471.284L-42.087 471.16L-41.0435 471.284L-40 470.414L-38.9565 469.047L-37.913 470.911L-36.8696 468.675L-35.8261 466.562L-34.7826 466.686L-33.7391 466.438L-32.6957 468.55L-31.6522 469.917L-30.6087 470.041L-29.5652 469.917L-28.5217 470.041L-27.4783 467.681L-26.4348 465.568L-25.3913 464.326L-24.3478 470.041L-23.3043 469.544L-22.2609 469.669L-21.2174 470.166L-20.1739 470.29L-19.1304 469.296H-18.087L-17.0435 469.172L-16 469.296L-14.9565 470.29L-13.913 470.414L-12.8696 471.781L-11.8261 470.911L-10.7826 470.787L-9.73914 472.03L-8.69566 471.781L-7.65218 469.296L-6.60869 469.172L-5.56521 469.296H-4.52175L-3.47827 469.42L-2.43478 469.296L-1.39129 469.42L-0.347821 471.16L0.695645 471.284L1.73911 471.16L2.78261 471.284L3.8261 471.16L4.86957 471.284L5.91304 471.16L6.9565 471.284L8 469.42L9.0435 469.669H10.087L11.1304 469.793L12.1739 469.669L13.2174 469.793L14.2609 471.16L15.3044 471.284L16.3478 471.16L17.3913 471.284L18.4348 469.917L19.4783 470.041L20.5217 469.917L21.5652 474.018L22.6087 473.894L23.6522 474.018L24.6957 474.266L25.7391 475.136L26.7826 473.894L27.8261 474.018L28.8696 475.26L29.9131 470.663L30.9565 471.16L32 469.296L33.0435 469.172L34.087 469.296L35.1305 467.681L36.1739 467.805L37.2174 467.681L38.2609 464.947L39.3043 466.065L40.3478 466.811L41.3913 469.42L42.4348 469.544L43.4782 469.047L44.5217 469.172L45.5652 469.917L46.6087 470.166L47.6522 469.917L48.6956 469.047L49.7391 470.166L50.7826 470.29L51.8261 469.047L52.8696 469.793L53.913 469.669L54.9565 471.16L56 470.787L57.0435 469.296L58.087 469.047L59.1304 469.172L60.1739 470.29L61.2174 470.414L62.2609 470.29L63.3043 472.278L64.3478 472.154L65.3913 472.278L66.4348 472.154L67.4783 470.29L68.5217 470.166L69.5652 469.917L70.6087 469.793L71.6522 469.917L72.6957 469.172H73.7391L74.7826 468.923L75.8261 469.42L76.8696 469.296L77.913 468.923L78.9565 469.296L80 469.42L81.0435 470.166L82.087 470.29L83.1304 469.296L84.1739 469.42L85.2174 470.166L86.2609 469.544L87.3044 470.29L88.3478 470.414L89.3913 470.29L90.4348 469.047L91.4783 468.675L92.5218 471.533L93.5652 470.041L94.6087 470.414L95.6522 468.675L96.6957 468.799L97.7391 469.793L98.7826 477.734L99.8261 475.994H100.87L101.913 474.13L102.957 475.621L104 476.243L105.043 474.876L106.087 476.243H107.13L108.174 475.87L109.217 476.864L110.261 476.367L111.304 478.728L112.348 478.604L113.391 479.598L114.435 476.615L115.478 477.361L116.522 476.491L117.565 477.485L119.652 476.988L120.696 471.21L121.739 471.086L122.783 472.701L123.826 474.192L124.87 471.21L125.913 470.464L126.957 471.956L128 471.21L129.043 468.476L130.087 466.985L131.13 467.109L132.174 466.488L133.217 467.979L134.261 465.867L135.304 467.109L136.348 465.867L137.391 465.991L138.435 466.985L139.478 467.109L140.522 468.849L141.565 471.707L142.609 472.08L143.652 472.204L144.696 472.08L145.739 473.198L146.783 473.074L147.826 473.819L148.87 471.831L149.913 473.695L150.957 475.435L152 475.559L153.043 474.068L155.13 473.819L156.174 472.95L157.217 471.459L158.261 470.837L159.304 471.21L160.348 469.967L161.391 470.216H162.435L163.478 469.719L164.522 470.589L165.565 470.464L166.609 472.701L167.652 473.322L168.696 473.447L169.739 474.192L170.783 474.317L171.826 474.192L172.87 472.453L173.913 472.95L174.957 474.317L176 474.192L177.043 474.317L178.087 474.814L179.13 474.938L180.174 474.814L181.217 473.819L182.261 473.695H183.304L184.348 474.068L185.391 474.192L186.435 473.571L187.478 475.932L188.522 473.447L189.565 473.571L190.609 473.447L191.652 474.938L192.696 474.814L193.739 474.938L194.783 474.814L195.826 474.938L196.87 474.068L197.913 472.701L198.957 474.565L200 472.328L201.043 470.216L202.087 470.34L203.13 470.092L204.174 472.204L205.217 473.571L206.261 473.695L207.304 473.571L208.348 473.695L209.391 471.334L210.435 469.222L211.478 467.979L212.522 473.695L213.565 473.198L214.609 473.322L215.652 473.819L216.696 473.944L217.739 472.95H218.783L219.826 472.825L220.87 472.95L221.913 473.944L222.957 474.068L224 475.435" stroke="white" stroke-opacity="0.4" stroke-linejoin="round"/>
<rect opacity="0.1" x="-143" y="458.598" width="311" height="24" fill="#20E6AD"/>
<rect opacity="0.6" width="3" height="24" transform="matrix(-1 0 0 1 171 458.598)" fill="#20E6AD"/>
<path d="M-256 99.0977H224" stroke="#EBF9FB" stroke-opacity="0.18" stroke-width="2" stroke-dasharray="2 2"/>
<path d="M-256 162.898H224" stroke="#EBF9FB" stroke-opacity="0.18" stroke-width="2" stroke-dasharray="2 2"/>
<path d="M-256 226.697H224" stroke="#EBF9FB" stroke-opacity="0.18" stroke-width="2" stroke-dasharray="2 2"/>
<path d="M-256 290.498H224" stroke="#EBF9FB" stroke-opacity="0.18" stroke-width="2" stroke-dasharray="2 2"/>
<path d="M-256 354.297H224" stroke="white" stroke-opacity="0.2" stroke-dasharray="2 2"/>
<rect x="-256" y="417.598" width="480" height="1" fill="#BEBEBE" fill-opacity="0.21"/>
<path d="M-33.5864 437.598H-39.0824V436.566L-36.3464 434.046C-35.9544 433.686 -35.6264 433.306 -35.3624 432.906C-35.0984 432.498 -34.9664 432.09 -34.9664 431.682V431.538C-34.9664 431.074 -35.0944 430.698 -35.3504 430.41C-35.6064 430.122 -35.9944 429.978 -36.5144 429.978C-36.7704 429.978 -36.9944 430.014 -37.1864 430.086C-37.3784 430.158 -37.5464 430.258 -37.6904 430.386C-37.8264 430.514 -37.9424 430.666 -38.0384 430.842C-38.1264 431.01 -38.1984 431.194 -38.2544 431.394L-39.1544 431.046C-39.0744 430.798 -38.9664 430.558 -38.8304 430.326C-38.6864 430.086 -38.5104 429.874 -38.3024 429.69C-38.0864 429.506 -37.8304 429.358 -37.5344 429.246C-37.2304 429.134 -36.8744 429.078 -36.4664 429.078C-36.0584 429.078 -35.6944 429.138 -35.3744 429.258C-35.0544 429.378 -34.7864 429.546 -34.5704 429.762C-34.3544 429.978 -34.1904 430.234 -34.0784 430.53C-33.9584 430.826 -33.8984 431.154 -33.8984 431.514C-33.8984 431.842 -33.9464 432.146 -34.0424 432.426C-34.1304 432.706 -34.2544 432.974 -34.4144 433.23C-34.5744 433.478 -34.7704 433.722 -35.0024 433.962C-35.2264 434.202 -35.4704 434.442 -35.7344 434.682L-37.9904 436.71H-33.5864V437.598ZM-29.1871 437.742C-30.1871 437.742 -30.9191 437.362 -31.3831 436.602C-31.8391 435.842 -32.0671 434.778 -32.0671 433.41C-32.0671 432.042 -31.8391 430.978 -31.3831 430.218C-30.9191 429.458 -30.1871 429.078 -29.1871 429.078C-28.1871 429.078 -27.4591 429.458 -27.0031 430.218C-26.5391 430.978 -26.3071 432.042 -26.3071 433.41C-26.3071 434.778 -26.5391 435.842 -27.0031 436.602C-27.4591 437.362 -28.1871 437.742 -29.1871 437.742ZM-29.1871 436.866C-28.8591 436.866 -28.5791 436.798 -28.3471 436.662C-28.1151 436.526 -27.9271 436.334 -27.7831 436.086C-27.6391 435.838 -27.5351 435.546 -27.4711 435.21C-27.3991 434.874 -27.3631 434.502 -27.3631 434.094V432.726C-27.3631 432.318 -27.3991 431.946 -27.4711 431.61C-27.5351 431.274 -27.6391 430.982 -27.7831 430.734C-27.9271 430.486 -28.1151 430.294 -28.3471 430.158C-28.5791 430.022 -28.8591 429.954 -29.1871 429.954C-29.5151 429.954 -29.7951 430.022 -30.0271 430.158C-30.2591 430.294 -30.4471 430.486 -30.5911 430.734C-30.7351 430.982 -30.8431 431.274 -30.9151 431.61C-30.9791 431.946 -31.0111 432.318 -31.0111 432.726V434.094C-31.0111 434.502 -30.9791 434.874 -30.9151 435.21C-30.8431 435.546 -30.7351 435.838 -30.5911 436.086C-30.4471 436.334 -30.2591 436.526 -30.0271 436.662C-29.7951 436.798 -29.5151 436.866 -29.1871 436.866ZM-19.1958 437.598H-24.6918V436.566L-21.9558 434.046C-21.5638 433.686 -21.2358 433.306 -20.9718 432.906C-20.7078 432.498 -20.5758 432.09 -20.5758 431.682V431.538C-20.5758 431.074 -20.7038 430.698 -20.9598 430.41C-21.2158 430.122 -21.6038 429.978 -22.1238 429.978C-22.3798 429.978 -22.6038 430.014 -22.7958 430.086C-22.9878 430.158 -23.1558 430.258 -23.2998 430.386C-23.4358 430.514 -23.5518 430.666 -23.6478 430.842C-23.7358 431.01 -23.8078 431.194 -23.8638 431.394L-24.7638 431.046C-24.6838 430.798 -24.5758 430.558 -24.4398 430.326C-24.2958 430.086 -24.1198 429.874 -23.9118 429.69C-23.6958 429.506 -23.4398 429.358 -23.1438 429.246C-22.8398 429.134 -22.4838 429.078 -22.0758 429.078C-21.6678 429.078 -21.3038 429.138 -20.9838 429.258C-20.6638 429.378 -20.3958 429.546 -20.1798 429.762C-19.9638 429.978 -19.7998 430.234 -19.6878 430.53C-19.5678 430.826 -19.5078 431.154 -19.5078 431.514C-19.5078 431.842 -19.5558 432.146 -19.6518 432.426C-19.7398 432.706 -19.8638 432.974 -20.0238 433.23C-20.1838 433.478 -20.3798 433.722 -20.6118 433.962C-20.8358 434.202 -21.0798 434.442 -21.3438 434.682L-23.5998 436.71H-19.1958V437.598ZM-17.3405 437.598V436.71H-15.0005V429.966H-15.0845L-17.1965 431.934L-17.7845 431.298L-15.5645 429.222H-13.9925V436.71H-11.8325V437.598H-17.3405ZM-10.3732 434.466V433.434H-7.24117V434.466H-10.3732ZM-2.8082 437.742C-3.8082 437.742 -4.5402 437.362 -5.0042 436.602C-5.4602 435.842 -5.6882 434.778 -5.6882 433.41C-5.6882 432.042 -5.4602 430.978 -5.0042 430.218C-4.5402 429.458 -3.8082 429.078 -2.8082 429.078C-1.8082 429.078 -1.0802 429.458 -0.624203 430.218C-0.160203 430.978 0.0717971 432.042 0.0717971 433.41C0.0717971 434.778 -0.160203 435.842 -0.624203 436.602C-1.0802 437.362 -1.8082 437.742 -2.8082 437.742ZM-2.8082 436.866C-2.4802 436.866 -2.2002 436.798 -1.9682 436.662C-1.7362 436.526 -1.5482 436.334 -1.4042 436.086C-1.2602 435.838 -1.1562 435.546 -1.0922 435.21C-1.0202 434.874 -0.984203 434.502 -0.984203 434.094V432.726C-0.984203 432.318 -1.0202 431.946 -1.0922 431.61C-1.1562 431.274 -1.2602 430.982 -1.4042 430.734C-1.5482 430.486 -1.7362 430.294 -1.9682 430.158C-2.2002 430.022 -2.4802 429.954 -2.8082 429.954C-3.1362 429.954 -3.4162 430.022 -3.6482 430.158C-3.8802 430.294 -4.0682 430.486 -4.2122 430.734C-4.3562 430.982 -4.4642 431.274 -4.5362 431.61C-4.6002 431.946 -4.6322 432.318 -4.6322 432.726V434.094C-4.6322 434.502 -4.6002 434.874 -4.5362 435.21C-4.4642 435.546 -4.3562 435.838 -4.2122 436.086C-4.0682 436.334 -3.8802 436.526 -3.6482 436.662C-3.4162 436.798 -3.1362 436.866 -2.8082 436.866ZM4.39911 437.742C3.96711 437.742 3.57511 437.67 3.22311 437.526C2.87911 437.374 2.58311 437.162 2.33511 436.89C2.09511 436.61 1.91111 436.27 1.78311 435.87C1.65511 435.47 1.59111 435.022 1.59111 434.526C1.59111 433.902 1.68311 433.318 1.86711 432.774C2.05111 432.222 2.28711 431.722 2.57511 431.274C2.87111 430.818 3.19511 430.418 3.54711 430.074C3.89911 429.722 4.24311 429.438 4.57911 429.222H5.87511C5.42711 429.55 5.02711 429.87 4.67511 430.182C4.32311 430.494 4.01511 430.822 3.75111 431.166C3.48711 431.502 3.26311 431.866 3.07911 432.258C2.89511 432.642 2.74711 433.078 2.63511 433.566L2.69511 433.59C2.89511 433.246 3.15111 432.962 3.46311 432.738C3.78311 432.506 4.19911 432.39 4.71111 432.39C5.07111 432.39 5.40311 432.45 5.70711 432.57C6.01111 432.69 6.27111 432.862 6.48711 433.086C6.70311 433.31 6.87111 433.582 6.99111 433.902C7.11911 434.222 7.18311 434.578 7.18311 434.97C7.18311 435.378 7.11511 435.754 6.97911 436.098C6.85111 436.434 6.66311 436.726 6.41511 436.974C6.17511 437.214 5.88311 437.402 5.53911 437.538C5.19511 437.674 4.81511 437.742 4.39911 437.742ZM4.38711 436.866C4.93911 436.866 5.36711 436.714 5.67111 436.41C5.98311 436.106 6.13911 435.67 6.13911 435.102V435.006C6.13911 434.438 5.98311 434.002 5.67111 433.698C5.36711 433.394 4.93911 433.242 4.38711 433.242C3.83511 433.242 3.40311 433.394 3.09111 433.698C2.78711 434.002 2.63511 434.438 2.63511 435.006V435.102C2.63511 435.67 2.78711 436.106 3.09111 436.41C3.40311 436.714 3.83511 436.866 4.38711 436.866Z" fill="white" fill-opacity="0.6"/>
<rect x="223.5" y="417.598" width="1" height="1" fill="white" fill-opacity="0.2"/>
<rect x="223.5" y="418.598" width="1" height="3" fill="white" fill-opacity="0.2"/>
<path opacity="0.2" d="M-254 219.598L-256 220.598V417.598H224V350.598L222 352.598L220 354.598L218 346.598L216 353.598L214 347.598L212 371.598L210 363.598L208 364.598L206 345.598L204 349.598L202 341.598L200 344.598H198L196 333.598L194 344.598L192 339.598L190 327.598L188 342.598H186L184 356.598L182 276.598L180 268.598L178 267.598L176 281.598L174 278.598L172 290.598L170 267.598L168 270.598L166 280.598L164 281.598L162 280.598L160 274.598L158 279.598L156 273.598L154 272.598L152 280.598L150 279.598L148 273.598L146 272.598L144 269.598L142 272.598L140 273.598L138 269.598L136 271.598H134L132 277.598L130 276.598L128 277.598L126 279.598L124 280.598L122 295.598L120 296.598L118 295.598L116 296.598L114 280.598L112 281.598L110 280.598L108 271.598L106 270.598L104 272.598L102 284.598L100 287.598L98 275.598L96 276.598L94 270.598L92 280.598L90 279.598L88 270.598L86 277.598L84 279.598L82 277.598L80 271.598L78 270.598L76 274.598L74 273.598L72 252.598L70 246.598L68 237.598L66 259.598L64 260.598L62 259.598L60 272.598L58 271.598L56 272.598L54 287.598L52 283.598L50 320.598L48 310.598L46 309.598L44 319.598L42 312.598L40 310.598L38 309.598L36 310.598L34 277.598L32 278.598L30 277.598L28 288.598L26 287.598L24 288.598L22 287.598L20 276.598L18 278.598L16 276.598L14 275.598H12L10 273.598L8 288.598L6 287.598L4 288.598L2 287.598L0 288.598L-2 287.598L-4 288.598L-6 287.598L-8 273.598L-10 272.598L-12 273.598L-14 272.598H-16L-18 271.598L-20 272.598L-22 292.598L-24 294.598L-26 284.598L-28 285.598L-30 292.598L-32 281.598L-34 280.598L-36 272.598L-38 271.598L-40 272.598H-42L-44 280.598L-46 279.598L-48 275.598L-50 274.598L-52 278.598L-54 232.598L-56 242.598L-58 259.598L-60 278.598L-62 277.598L-64 278.598L-66 277.598L-68 266.598L-70 249.598L-72 251.598L-74 250.598L-76 267.598L-78 285.598L-80 270.598L-82 281.598L-84 288.598L-86 287.598L-88 288.598L-90 287.598L-92 288.598L-94 276.598L-96 277.598L-98 276.598L-100 296.598L-102 277.598L-104 282.598L-106 281.598L-108 278.598H-110L-112 279.598L-114 287.598L-116 288.598L-118 287.598L-120 283.598L-122 282.598L-124 283.598L-126 272.598L-128 268.598L-130 282.598L-132 283.598L-134 282.598L-136 276.598L-138 275.598L-140 270.598L-142 252.598L-144 253.598L-146 246.598L-148 250.598H-150L-152 248.598L-154 258.598L-156 255.598L-158 260.598L-160 272.598L-162 279.598L-164 280.598L-166 281.598L-168 293.598L-170 292.598L-172 278.598L-174 263.598L-176 279.598L-178 273.598L-180 274.598L-182 265.598L-184 266.598L-186 265.598L-188 262.598L-190 239.598L-192 225.598L-194 224.598L-196 216.598L-198 215.598L-200 225.598L-202 215.598L-204 232.598L-206 220.598L-208 225.598L-210 224.598L-212 236.598L-214 258.598L-216 264.598L-218 252.598L-220 258.598L-222 282.598L-224 270.598L-226 257.598L-228 258.598L-230 256.598L-232 245.598L-234 248.598L-236 247.598L-238 246.598L-240 247.598L-242 246.598L-244 243.598L-246 215.598L-248 216.598L-250 225.598L-252 226.598L-254 219.598Z" fill="url(#paint7_linear_6559_91004)"/>
<path d="M-256 220.598L-254 219.598L-252 226.598L-250 225.598L-248 216.598L-246 215.598L-244 243.598L-242 246.598L-240 247.598L-238 246.598L-236 247.598L-234 248.598L-232 245.598L-230 256.598L-228 258.598L-226 257.598L-224 270.598L-222 282.598L-220 258.598L-218 252.598L-216 264.598L-214 258.598L-212 236.598L-210 224.598L-208 225.598L-206 220.598L-204 232.598L-202 215.598L-200 225.598L-198 215.598L-196 216.598L-194 224.598L-192 225.598L-190 239.598L-188 262.598L-186 265.598L-184 266.598L-182 265.598L-180 274.598L-178 273.598L-176 279.598L-174 263.598L-172 278.598L-170 292.598L-168 293.598L-166 281.598L-164 280.598L-162 279.598L-160 272.598L-158 260.598L-156 255.598L-154 258.598L-152 248.598L-150 250.598H-148L-146 246.598L-144 253.598L-142 252.598L-140 270.598L-138 275.598L-136 276.598L-134 282.598L-132 283.598L-130 282.598L-128 268.598L-126 272.598L-124 283.598L-122 282.598L-120 283.598L-118 287.598L-116 288.598L-114 287.598L-112 279.598L-110 278.598H-108L-106 281.598L-104 282.598L-102 277.598L-100 296.598L-98 276.598L-96 277.598L-94 276.598L-92 288.598L-90 287.598L-88 288.598L-86 287.598L-84 288.598L-82 281.598L-80 270.598L-78 285.598L-76 267.598L-74 250.598L-72 251.598L-70 249.598L-68 266.598L-66 277.598L-64 278.598L-62 277.598L-60 278.598L-58 259.598L-56 242.598L-54 232.598L-52 278.598L-50 274.598L-48 275.598L-46 279.598L-44 280.598L-42 272.598H-40L-38 271.598L-36 272.598L-34 280.598L-32 281.598L-30 292.598L-28 285.598L-26 284.598L-24 294.598L-22 292.598L-20 272.598L-18 271.598L-16 272.598H-14L-12 273.598L-10 272.598L-8 273.598L-6 287.598L-4 288.598L-2 287.598L0 288.598L2 287.598L4 288.598L6 287.598L8 288.598L10 273.598L12 275.598H14L16 276.598L18 278.598L20 276.598L22 287.598L24 288.598L26 287.598L28 288.598L30 277.598L32 278.598L34 277.598L36 310.598L38 309.598L40 310.598L42 312.598L44 319.598L46 309.598L48 310.598L50 320.598L52 283.598L54 287.598L56 272.598L58 271.598L60 272.598L62 259.598L64 260.598L66 259.598L68 237.598L70 246.598L72 252.598L74 273.598L76 274.598L78 270.598L80 271.598L82 277.598L84 279.598L86 277.598L88 270.598L90 279.598L92 280.598L94 270.598L96 276.598L98 275.598L100 287.598L102 284.598L104 272.598L106 270.598L108 271.598L110 280.598L112 281.598L114 280.598L116 296.598L118 295.598L120 296.598L122 295.598L124 280.598L126 279.598L128 277.598L130 276.598L132 277.598L134 271.598H136L138 269.598L140 273.598L142 272.598L144 269.598L146 272.598L148 273.598L150 279.598L152 280.598L154 272.598L156 273.598L158 279.598L160 274.598L162 280.598L164 281.598L166 280.598L168 270.598L170 267.598L172 290.598L174 278.598L176 281.598L178 267.598L180 268.598L182 276.598L184 356.598L186 342.598H188L190 327.598L192 339.598L194 344.598L196 333.598L198 344.598H200L202 341.598L204 349.598L206 345.598L208 364.598L210 363.598L212 371.598L214 347.598L216 353.598L218 346.598L220 354.598L222 352.598L224 350.598" stroke="#36F097" stroke-linejoin="round"/>
</g>
<defs>
<linearGradient id="paint0_linear_6559_91004" x1="-363.85" y1="264.124" x2="-124.392" y2="273.544" gradientUnits="userSpaceOnUse">
<stop stop-color="white"/>
<stop offset="1" stop-color="#EFEFEF" stop-opacity="0"/>
</linearGradient>
<linearGradient id="paint1_linear_6559_91004" x1="497.795" y1="36.5173" x2="243.747" y2="203.745" gradientUnits="userSpaceOnUse">
<stop stop-color="white" stop-opacity="0.5"/>
<stop offset="1" stop-color="white" stop-opacity="0"/>
</linearGradient>
<linearGradient id="paint2_linear_6559_91004" x1="-269.92" y1="279.113" x2="-118.432" y2="283.776" gradientUnits="userSpaceOnUse">
<stop stop-color="white"/>
<stop offset="1" stop-color="#EFEFEF" stop-opacity="0"/>
</linearGradient>
<linearGradient id="paint3_linear_6559_91004" x1="306.318" y1="150.178" x2="124.5" y2="244" gradientUnits="userSpaceOnUse">
<stop stop-color="white" stop-opacity="0.5"/>
<stop offset="1" stop-color="white" stop-opacity="0"/>
</linearGradient>
<linearGradient id="paint4_linear_6559_91004" x1="273.178" y1="151.115" x2="644.252" y2="191.044" gradientUnits="userSpaceOnUse">
<stop stop-color="#3AC6D7"/>
<stop offset="1" stop-color="#116F91"/>
</linearGradient>
<linearGradient id="paint5_linear_6559_91004" x1="230.226" y1="130.378" x2="317.514" y2="140.118" gradientUnits="userSpaceOnUse">
<stop stop-color="white"/>
<stop offset="1" stop-color="#EFEFEF" stop-opacity="0"/>
</linearGradient>
<linearGradient id="paint6_linear_6559_91004" x1="250.026" y1="272.229" x2="372.154" y2="327.044" gradientUnits="userSpaceOnUse">
<stop stop-color="white" stop-opacity="0.5"/>
<stop offset="1" stop-color="white" stop-opacity="0"/>
</linearGradient>
<linearGradient id="paint7_linear_6559_91004" x1="-16" y1="215.598" x2="-16" y2="417.598" gradientUnits="userSpaceOnUse">
<stop stop-color="#36F097"/>
<stop offset="1" stop-color="#36F097" stop-opacity="0.2"/>
</linearGradient>
<clipPath id="clip0_6559_91004">
<rect width="562" height="567" fill="white" transform="matrix(-1 0 0 1 562 0)"/>
</clipPath>
</defs>
</svg>
