<svg width="72" height="40" viewBox="0 0 72 40" fill="none" xmlns="http://www.w3.org/2000/svg">
<path d="M14.5555 10.8315C13.3476 10.8315 12.1894 11.0509 11.1213 11.4518C10.4879 11.6881 9.88467 11.9911 9.32056 12.3489C7.96906 13.2055 6.84086 14.3846 6.04693 15.7792C5.72962 16.3354 5.46454 16.9256 5.26084 17.5446C4.94092 18.5109 4.76855 19.545 4.76855 20.6184C4.76855 26.023 9.15081 30.4052 14.5555 30.4052C15.5779 30.3308 16.7257 29.9247 17.8657 29.2823C17.8657 29.2823 17.8657 29.2823 17.867 29.2823C17.9649 29.2274 18.0616 29.17 18.1595 29.1125C18.2261 29.072 18.2927 29.0315 18.3606 28.9898C20.4107 27.7075 22.3746 25.6992 23.4676 23.5355C23.952 22.5784 24.2654 21.5899 24.3425 20.6197C24.3425 15.2151 19.9615 10.8328 14.5555 10.8328V10.8315ZM12.5485 25.1677C9.18215 25.1677 6.45173 22.4386 6.45173 19.071C6.45173 18.9065 6.45826 18.7446 6.47131 18.5827C6.52746 17.8749 6.70375 17.1998 6.98319 16.5809C6.99102 16.5626 6.99886 16.5456 7.008 16.5274C7.35142 15.7792 7.8424 15.1119 8.44437 14.5635C8.44568 14.5609 8.44829 14.5582 8.4509 14.5569C9.0346 14.0281 9.71883 13.6089 10.4749 13.336C11.1226 13.1023 11.8212 12.973 12.5498 12.973C12.6712 12.973 12.7901 12.9756 12.9089 12.9848C16.0232 13.165 18.5095 15.6812 18.6413 18.8086C18.6427 18.8464 18.644 18.8843 18.6453 18.9222C18.6453 18.9718 18.6466 19.0214 18.6466 19.071C18.6466 22.4373 15.9175 25.1677 12.5498 25.1677H12.5485Z" fill="url(#paint0_linear_2001_780)"/>
<path d="M24.4709 18.8087C24.4682 15.0259 22.7185 11.2952 19.4213 8.90175C17.2524 7.32828 14.7388 6.57092 12.2486 6.57092C10.3944 6.57092 8.55189 6.99139 6.87524 7.8075C6.29155 8.09085 5.72745 8.42252 5.18946 8.8012C4.11609 9.55855 3.14719 10.5026 2.33237 11.6256C2.18743 11.8254 2.04902 12.0278 1.91844 12.2341C1.5724 12.7747 1.27468 13.3349 1.02396 13.9068C-1.23898 19.0633 0.308388 25.2737 5.05496 28.7144C5.62559 29.1283 6.21581 29.4822 6.82823 29.7825C10.2912 31.4983 14.3065 31.433 17.6572 29.7825C17.7995 29.7107 17.9419 29.6363 18.0829 29.5605C18.2252 29.4835 18.3976 29.5867 18.3976 29.7486V33.6764C18.3976 36.9134 21.0222 39.538 24.2593 39.538C24.3781 39.538 24.4748 39.4414 24.4748 39.3226V18.8087H24.4722H24.4709ZM23.6404 18.6873C23.6064 18.7578 23.5333 18.8087 23.4471 18.8087H18.6131C18.5386 18.8087 18.5935 18.857 18.6457 18.9223C18.6757 18.9602 18.7032 19.0046 18.7032 19.0477L18.3976 28.8698C18.3976 28.9129 18.3845 28.9534 18.3623 28.9886C18.3401 29.0239 18.3062 29.0513 18.267 29.0683C18.2383 29.08 18.2096 29.0931 18.1808 29.1035C18.1743 29.1061 18.1691 29.1087 18.1626 29.1113C18.0947 29.1388 18.0254 29.1662 17.9588 29.191C17.827 29.2419 17.6951 29.2863 17.5658 29.3294C17.4875 29.3555 17.4091 29.3803 17.3321 29.4012C17.2394 29.4313 17.1466 29.4587 17.0539 29.4796C16.9012 29.5188 16.7445 29.554 16.5917 29.588C16.5133 29.6062 16.435 29.6206 16.3566 29.6337C16.3514 29.6363 16.3449 29.6363 16.3384 29.6363C16.3018 29.648 16.2665 29.6519 16.23 29.6572C15.9035 29.7146 15.5732 29.7512 15.2402 29.7682C15.0848 29.776 14.9307 29.7812 14.774 29.7838H14.7061C13.4212 29.7838 12.1311 29.5161 10.9219 28.9651C10.5915 28.8149 10.2677 28.6439 9.95039 28.4519C9.73886 28.3227 9.53254 28.1842 9.32883 28.038C6.11788 25.7098 4.85909 21.688 5.89067 18.0827C6.06695 17.4638 6.31244 16.8566 6.62583 16.2716C6.79298 15.9621 6.9784 15.6579 7.18341 15.3628C7.21606 15.3158 7.25262 15.2674 7.28657 15.2191C7.32183 15.1721 7.35839 15.1238 7.39364 15.0755C8.09225 14.1497 8.93318 13.3923 9.86421 12.8126C10.4427 12.4522 11.0564 12.161 11.6923 11.9403C14.4319 10.9858 17.5789 11.3423 20.1056 13.1756C20.1826 13.233 20.2584 13.2866 20.3341 13.3466C20.4085 13.4028 20.4843 13.4628 20.5561 13.5242C20.6305 13.5843 20.7023 13.643 20.7715 13.7057C21.1228 14.0152 21.4466 14.3456 21.7404 14.6929C21.7979 14.7595 21.8553 14.8287 21.9089 14.8979C21.9481 14.9449 21.9833 14.9958 22.0225 15.0441C22.0969 15.1434 22.17 15.2426 22.2419 15.3445V15.3471C22.315 15.4489 22.3829 15.5482 22.4469 15.6526C22.5396 15.7963 22.6271 15.9412 22.708 16.0875C22.7746 16.2024 22.8373 16.3186 22.8961 16.4387C22.9287 16.5027 22.9627 16.5654 22.9901 16.6281C23.0201 16.692 23.0502 16.7547 23.0802 16.8174C23.1938 17.0733 23.2996 17.3332 23.3897 17.5983C23.4249 17.7027 23.4615 17.8072 23.4915 17.913C23.5424 18.0749 23.5868 18.2368 23.6273 18.4013C23.6391 18.4496 23.6495 18.4979 23.6613 18.5463C23.673 18.5959 23.6652 18.6455 23.6456 18.6873H23.6404Z" fill="url(#paint1_linear_2001_780)"/>
<path d="M23.4705 27.9347L21.7965 26.5676C21.9297 26.4083 22.0576 26.245 22.1817 26.0753C25.0936 22.0587 24.1991 16.4425 20.1838 13.5306C16.2155 10.6527 10.6828 11.4923 7.74218 15.3888C7.92629 15.1485 8.12608 14.9278 8.33762 14.7228C8.47865 14.587 8.6262 14.459 8.77767 14.3389C8.92915 14.2188 9.08584 14.1078 9.24776 14.0033C9.81187 13.6416 10.4282 13.3805 11.0693 13.2251C11.3436 13.1585 11.623 13.1115 11.9038 13.084C12.0918 13.0658 12.2798 13.0566 12.4679 13.0553C12.6559 13.0553 12.8452 13.0632 13.0346 13.0801C14.0714 13.1741 15.0977 13.5411 16.0013 14.1966C16.7548 14.7424 17.3424 15.4318 17.7563 16.1983C17.802 16.2832 17.8464 16.3694 17.8882 16.4569C18.0136 16.718 18.118 16.987 18.2042 17.2626C18.3178 17.6295 18.3962 18.0055 18.4393 18.3868C18.4602 18.5775 18.4719 18.7681 18.4745 18.9601C18.4758 19.0567 18.4745 19.152 18.4719 19.2486C18.4654 19.4406 18.4497 19.6325 18.4249 19.8245C18.3505 20.399 18.1912 20.9671 17.9444 21.5116C17.7798 21.8733 17.5774 22.2258 17.3346 22.5601C17.2131 22.7273 17.0852 22.8866 16.9494 23.038C16.8149 23.1882 16.6738 23.3318 16.5276 23.4663C16.38 23.6008 16.2286 23.7262 16.0706 23.8437C15.9126 23.9612 15.7506 24.0709 15.5848 24.1715C14.0035 25.126 12.0396 25.3075 10.2924 24.6193C10.1083 24.5462 9.92677 24.4639 9.74919 24.3725C9.66039 24.3268 9.5716 24.2785 9.48411 24.2276C9.30913 24.1257 9.13807 24.0148 8.97093 23.8933C8.8064 23.7745 8.64971 23.6478 8.50084 23.5159C8.20312 23.2522 7.93805 22.9636 7.70561 22.6554C7.5894 22.5014 7.48102 22.342 7.38178 22.1801C7.23161 21.936 7.09972 21.6826 6.98743 21.4215C6.91299 21.2478 6.8464 21.0702 6.78894 20.8913C6.70146 20.6223 6.63355 20.3468 6.58655 20.0687C6.5539 19.8833 6.5304 19.6965 6.51603 19.5085C6.5082 19.4145 6.50428 19.3205 6.50036 19.2264C6.49514 19.0384 6.49775 18.8491 6.5095 18.6597C6.53301 18.2824 6.59307 17.905 6.6897 17.5355C6.85815 16.8865 7.1402 16.2571 7.53847 15.6734C4.74798 19.6783 5.66857 25.1978 9.63689 28.0757C12.9889 30.5058 17.4547 30.2851 20.5338 27.8107L22.358 29.3019C22.734 29.6087 23.289 29.5539 23.5972 29.1765C23.9053 28.8005 23.8492 28.2455 23.4718 27.9373L23.4705 27.9347Z" fill="url(#paint2_linear_2001_780)"/>
<path d="M17.447 2.56447C17.447 3.72531 16.5055 4.66678 15.3446 4.66678C14.1838 4.66678 13.2423 3.72531 13.2423 2.56447C13.2423 1.40363 14.1838 0.462158 15.3446 0.462158C16.5055 0.462158 17.447 1.40363 17.447 2.56447Z" fill="url(#paint3_linear_2001_780)"/>
<path d="M11.232 2.56447C11.232 3.72531 10.2905 4.66678 9.12968 4.66678C7.96882 4.66678 7.02734 3.72531 7.02734 2.56447C7.02734 1.40363 7.96882 0.462158 9.12968 0.462158C10.2905 0.462158 11.232 1.40363 11.232 2.56447Z" fill="url(#paint4_linear_2001_780)"/>
<path d="M28.4875 14.8636V16.9007C28.4875 17.0717 28.626 17.2114 28.7983 17.2114H38.6153C38.7054 17.2114 38.7916 17.1723 38.8504 17.103L41.0402 14.5529H28.7983C28.6273 14.5529 28.4875 14.6913 28.4875 14.8636Z" fill="#094A72"/>
<path d="M28.4875 20.6732V22.7102C28.4875 22.8813 28.626 23.021 28.7983 23.021H38.6153C38.7054 23.021 38.7916 22.9818 38.8504 22.9126L41.0402 20.3624H28.7983C28.6273 20.3624 28.4875 20.5008 28.4875 20.6732Z" fill="#094A72"/>
<path d="M28.4875 26.4827V28.5197C28.4875 28.6907 28.626 28.8304 28.7983 28.8304H38.6153C38.7054 28.8304 38.7916 28.7913 38.8504 28.7221L41.0402 26.1719H28.7983C28.6273 26.1719 28.4875 26.3103 28.4875 26.4827Z" fill="#094A72"/>
<path d="M52.2735 14.7463C51.3555 14.5295 50.4075 14.4877 49.6031 14.4747C47.8207 14.4459 46.0082 14.4538 44.2546 14.4616C43.7727 14.4616 43.2935 14.4655 42.813 14.4668C42.5361 14.4668 42.3363 14.4942 42.258 14.6209C42.1796 14.7489 42.2475 14.9395 42.3729 15.1876C42.4513 15.3404 42.5296 15.4932 42.6079 15.6459C42.7359 15.8927 42.8691 16.1487 42.9919 16.4033C44.0704 18.6127 45.23 20.9905 46.4039 23.4141C46.5763 23.7705 46.8165 23.9246 47.1848 23.9102C47.4799 23.9011 47.7828 23.9011 48.074 23.9037C48.3104 23.9037 48.5545 23.9076 48.7948 23.9037C49.0233 23.8985 49.1905 23.8724 49.2584 23.7601C49.3276 23.6478 49.2753 23.4859 49.1761 23.2782C48.804 22.5026 48.4187 21.7191 48.0466 20.9605C47.8298 20.5191 47.6131 20.0791 47.3989 19.6364C47.0672 18.9574 46.7395 18.2758 46.3921 17.5602L46.0853 16.9217C46.1258 16.9152 46.1636 16.9112 46.1976 16.9047C46.3047 16.8891 46.383 16.8773 46.4561 16.8786C46.844 16.8864 47.2318 16.8891 47.6196 16.8943C48.6303 16.9047 49.6749 16.9178 50.7 16.97C51.7616 17.0249 52.66 17.4753 53.3703 18.3071C54.4228 19.5385 54.8028 21.0088 54.5025 22.6724C54.1251 24.7577 52.6378 26.2163 50.713 26.3847C50.3017 26.4213 47.4133 26.4696 45.1138 26.4866C43.5194 26.4983 42.2084 26.4957 42.2084 26.4644V28.8879C44.7625 28.8905 47.3193 28.9284 49.8734 28.867C50.9193 28.8422 51.8765 28.7064 52.7213 28.4609C54.3392 27.9908 55.6307 26.9697 56.4559 25.5059C57.6782 23.337 57.8296 21.0754 56.9064 18.785C56.0329 16.6266 54.475 15.2673 52.2695 14.745L52.2735 14.7463Z" fill="#094A72"/>
<path d="M70.9238 15.9905C70.0737 15.0295 68.9259 14.5594 67.419 14.5515C67.1279 14.5515 66.8354 14.5489 66.5429 14.5489V14.5437H58.678L58.7655 14.6469C58.9274 14.8388 59.0815 15.0177 59.2291 15.1888C59.5542 15.5674 59.8363 15.8939 60.0987 16.2451C60.3965 16.6434 60.7425 16.8105 61.2596 16.8014C62.9767 16.7714 64.7343 16.7701 66.629 16.7962C67.1305 16.804 67.6006 16.8824 67.9923 17.026C68.5917 17.2441 69.0291 17.7089 69.1988 18.3031C69.366 18.8972 69.2354 19.52 68.8437 20.0175C68.3292 20.6665 67.594 20.8075 66.9437 20.8598L66.9072 20.8689H58.8674V24.674V28.6997V28.8081C60.1001 28.8081 61.1734 28.8081 61.4711 28.8081H61.4816C61.4816 27.8562 61.4816 24.4363 61.4711 23.4792C61.4711 23.316 61.492 23.2206 61.5469 23.1671C61.5991 23.1149 61.6957 23.0901 61.8524 23.0927L67.7377 23.0705C68.1294 23.0705 68.5159 23.0143 68.8933 22.9072L68.8776 22.8446L68.8946 22.9072C70.3218 22.4972 71.4187 21.4082 71.83 19.9967C72.2387 18.5916 71.9005 17.0926 70.9238 15.9879V15.9905Z" fill="#094A72"/>
<path d="M28.4875 14.8636V16.9007C28.4875 17.0717 28.626 17.2114 28.7983 17.2114H38.6153C38.7054 17.2114 38.7916 17.1723 38.8504 17.103L41.0402 14.5529H28.7983C28.6273 14.5529 28.4875 14.6913 28.4875 14.8636Z" fill="url(#paint5_linear_2001_780)"/>
<path d="M28.4875 20.6732V22.7102C28.4875 22.8813 28.626 23.021 28.7983 23.021H38.6153C38.7054 23.021 38.7916 22.9818 38.8504 22.9126L41.0402 20.3624H28.7983C28.6273 20.3624 28.4875 20.5008 28.4875 20.6732Z" fill="url(#paint6_linear_2001_780)"/>
<path d="M28.4875 26.4827V28.5197C28.4875 28.6907 28.626 28.8304 28.7983 28.8304H38.6153C38.7054 28.8304 38.7916 28.7913 38.8504 28.7221L41.0402 26.1719H28.7983C28.6273 26.1719 28.4875 26.3103 28.4875 26.4827Z" fill="url(#paint7_linear_2001_780)"/>
<path d="M52.2735 14.7463C51.3555 14.5295 50.4075 14.4877 49.6031 14.4747C47.8207 14.4459 46.0082 14.4538 44.2546 14.4616C43.7727 14.4616 43.2935 14.4655 42.813 14.4668C42.5361 14.4668 42.3363 14.4942 42.258 14.6209C42.1796 14.7489 42.2475 14.9395 42.3729 15.1876C42.4513 15.3404 42.5296 15.4932 42.6079 15.6459C42.7359 15.8927 42.8691 16.1487 42.9919 16.4033C44.0704 18.6127 45.23 20.9905 46.4039 23.4141C46.5763 23.7705 46.8165 23.9246 47.1848 23.9102C47.4799 23.9011 47.7828 23.9011 48.074 23.9037C48.3104 23.9037 48.5545 23.9076 48.7948 23.9037C49.0233 23.8985 49.1905 23.8724 49.2584 23.7601C49.3276 23.6478 49.2753 23.4859 49.1761 23.2782C48.804 22.5026 48.4187 21.7191 48.0466 20.9605C47.8298 20.5191 47.6131 20.0791 47.3989 19.6364C47.0672 18.9574 46.7395 18.2758 46.3921 17.5602L46.0853 16.9217C46.1258 16.9152 46.1636 16.9112 46.1976 16.9047C46.3047 16.8891 46.383 16.8773 46.4561 16.8786C46.844 16.8864 47.2318 16.8891 47.6196 16.8943C48.6303 16.9047 49.6749 16.9178 50.7 16.97C51.7616 17.0249 52.66 17.4753 53.3703 18.3071C54.4228 19.5385 54.8028 21.0088 54.5025 22.6724C54.1251 24.7577 52.6378 26.2163 50.713 26.3847C50.3017 26.4213 47.4133 26.4696 45.1138 26.4866C43.5194 26.4983 42.2084 26.4957 42.2084 26.4644V28.8879C44.7625 28.8905 47.3193 28.9284 49.8734 28.867C50.9193 28.8422 51.8765 28.7064 52.7213 28.4609C54.3392 27.9908 55.6307 26.9697 56.4559 25.5059C57.6782 23.337 57.8296 21.0754 56.9064 18.785C56.0329 16.6266 54.475 15.2673 52.2695 14.745L52.2735 14.7463Z" fill="url(#paint8_linear_2001_780)"/>
<path d="M70.9238 15.9905C70.0737 15.0295 68.9259 14.5594 67.419 14.5515C67.1279 14.5515 66.8354 14.5489 66.5429 14.5489V14.5437H58.678L58.7655 14.6469C58.9274 14.8388 59.0815 15.0177 59.2291 15.1888C59.5542 15.5674 59.8363 15.8939 60.0987 16.2451C60.3965 16.6434 60.7425 16.8105 61.2596 16.8014C62.9767 16.7714 64.7343 16.7701 66.629 16.7962C67.1305 16.804 67.6006 16.8824 67.9923 17.026C68.5917 17.2441 69.0291 17.7089 69.1988 18.3031C69.366 18.8972 69.2354 19.52 68.8437 20.0175C68.3292 20.6665 67.594 20.8075 66.9437 20.8598L66.9072 20.8689H58.8674V24.674V28.6997V28.8081C60.1001 28.8081 61.1734 28.8081 61.4711 28.8081H61.4816C61.4816 27.8562 61.4816 24.4363 61.4711 23.4792C61.4711 23.316 61.492 23.2206 61.5469 23.1671C61.5991 23.1149 61.6957 23.0901 61.8524 23.0927L67.7377 23.0705C68.1294 23.0705 68.5159 23.0143 68.8933 22.9072L68.8776 22.8446L68.8946 22.9072C70.3218 22.4972 71.4187 21.4082 71.83 19.9967C72.2387 18.5916 71.9005 17.0926 70.9238 15.9879V15.9905Z" fill="url(#paint9_linear_2001_780)"/>
<defs>
<linearGradient id="paint0_linear_2001_780" x1="9.44331" y1="25.6235" x2="19.9679" y2="14.1076" gradientUnits="userSpaceOnUse">
<stop stop-color="#00C4D1"/>
<stop offset="0.32" stop-color="#8EE1E6"/>
<stop offset="0.55" stop-color="#8EE1E6"/>
<stop offset="0.78" stop-color="#8EE1E6"/>
<stop offset="1" stop-color="#00C4D1"/>
</linearGradient>
<linearGradient id="paint1_linear_2001_780" x1="7.37536" y1="9.33788" x2="22.7417" y2="39.2848" gradientUnits="userSpaceOnUse">
<stop stop-color="#3AC6D7"/>
<stop offset="1" stop-color="#116F91"/>
</linearGradient>
<linearGradient id="paint2_linear_2001_780" x1="20.1812" y1="28.0836" x2="9.30145" y2="13.0539" gradientUnits="userSpaceOnUse">
<stop stop-color="#3AC6D7"/>
<stop offset="1" stop-color="#116F91"/>
</linearGradient>
<linearGradient id="paint3_linear_2001_780" x1="15.3446" y1="0.0756464" x2="15.3446" y2="7.05114" gradientUnits="userSpaceOnUse">
<stop stop-color="#3AC6D7"/>
<stop offset="1" stop-color="#116F91"/>
</linearGradient>
<linearGradient id="paint4_linear_2001_780" x1="9.12968" y1="0.0756464" x2="9.12968" y2="7.05114" gradientUnits="userSpaceOnUse">
<stop stop-color="#3AC6D7"/>
<stop offset="1" stop-color="#116F91"/>
</linearGradient>
<linearGradient id="paint5_linear_2001_780" x1="28.4875" y1="21.6785" x2="71.9993" y2="21.6785" gradientUnits="userSpaceOnUse">
<stop stop-color="#3AC6D7"/>
<stop offset="1" stop-color="#116F91"/>
</linearGradient>
<linearGradient id="paint6_linear_2001_780" x1="28.4875" y1="21.6787" x2="71.9993" y2="21.6787" gradientUnits="userSpaceOnUse">
<stop stop-color="#3AC6D7"/>
<stop offset="1" stop-color="#116F91"/>
</linearGradient>
<linearGradient id="paint7_linear_2001_780" x1="28.4875" y1="21.6787" x2="71.9993" y2="21.6787" gradientUnits="userSpaceOnUse">
<stop stop-color="#3AC6D7"/>
<stop offset="1" stop-color="#116F91"/>
</linearGradient>
<linearGradient id="paint8_linear_2001_780" x1="42.2084" y1="21.6071" x2="95.2198" y2="21.6071" gradientUnits="userSpaceOnUse">
<stop stop-color="#3AC6D7"/>
<stop offset="1" stop-color="#116F91"/>
</linearGradient>
<linearGradient id="paint9_linear_2001_780" x1="58.678" y1="21.6058" x2="104.857" y2="21.6058" gradientUnits="userSpaceOnUse">
<stop stop-color="#3AC6D7"/>
<stop offset="1" stop-color="#116F91"/>
</linearGradient>
</defs>
</svg>
