<svg width="12" height="13" viewBox="0 0 12 13" fill="none" xmlns="http://www.w3.org/2000/svg">
<path d="M1.875 1.71777C1.875 1.51067 1.70711 1.34277 1.5 1.34277C1.29289 1.34277 1.125 1.51067 1.125 1.71777V7.24565C1.12499 8.04694 1.12498 8.68643 1.19241 9.18797C1.26208 9.7061 1.40983 10.1328 1.7474 10.4704C2.08497 10.8079 2.51167 10.9557 3.02981 11.0254C3.53135 11.0928 4.17083 11.0928 4.97213 11.0928H10.5C10.7071 11.0928 10.875 10.9249 10.875 10.7178C10.875 10.5107 10.7071 10.3428 10.5 10.3428H5C4.16444 10.3428 3.5755 10.342 3.12974 10.282C3.03674 10.2695 2.95256 10.2548 2.87596 10.2375C2.98638 9.47101 3.31088 8.11746 3.77204 6.95538C4.00634 6.365 4.2676 5.84554 4.54074 5.48043C4.82717 5.09756 5.05744 4.97492 5.2141 4.97492C5.30849 4.97492 5.41039 5.01807 5.54429 5.15983C5.68388 5.30764 5.81267 5.51363 5.96619 5.7638L5.98012 5.78651C6.11986 6.01436 6.2834 6.28101 6.47671 6.48858C6.68172 6.7087 6.96411 6.91042 7.34323 6.91042C7.94919 6.91042 8.33353 6.49044 8.58723 6.04701C8.82525 5.63097 9.00656 5.09419 9.17479 4.59612L9.20834 4.49688C9.39418 3.94812 9.56968 3.45255 9.79631 3.09195C10.0183 2.73879 10.2383 2.59277 10.5 2.59277C10.7071 2.59277 10.875 2.42488 10.875 2.21777C10.875 2.01067 10.7071 1.84277 10.5 1.84277C9.86876 1.84277 9.44815 2.23646 9.16131 2.69286C8.87914 3.14183 8.67767 3.72567 8.49797 4.25631L8.47414 4.32673C8.29614 4.8528 8.13658 5.32439 7.93624 5.67457C7.72677 6.04069 7.53891 6.16042 7.34323 6.16042C7.25639 6.16042 7.15853 6.12021 7.02555 5.97742C6.88733 5.82902 6.75958 5.62274 6.60543 5.37154L6.59845 5.36017C6.45653 5.12887 6.28941 4.85648 6.08954 4.64486C5.88068 4.42372 5.59519 4.22492 5.2141 4.22492C4.68283 4.22492 4.25733 4.60725 3.9402 5.03115C3.60979 5.47281 3.31972 6.06191 3.07493 6.67873C2.64635 7.75869 2.33115 8.98954 2.18246 9.82859C2.06215 9.66286 1.98276 9.43783 1.93573 9.08803C1.8758 8.64228 1.875 8.05333 1.875 7.21777V1.71777Z" fill="#61D0DD"/>
</svg>
