<svg width="12" height="13" viewBox="0 0 12 13" fill="none" xmlns="http://www.w3.org/2000/svg">
<path d="M8 7.09268C8.20711 7.09268 8.375 6.92479 8.375 6.71768C8.375 6.51058 8.20711 6.34268 8 6.34268H6.5C6.29289 6.34268 6.125 6.51057 6.125 6.71768C6.125 6.92479 6.29289 7.09268 6.5 7.09268H8Z" fill="#39C4D5"/>
<path d="M8 9.09268C8.20711 9.09268 8.375 8.92479 8.375 8.71768C8.375 8.51058 8.20711 8.34268 8 8.34268L4.5 8.34268C4.29289 8.34268 4.125 8.51057 4.125 8.71768C4.125 8.92479 4.29289 9.09268 4.5 9.09268H8Z" fill="#39C4D5"/>
<path fill-rule="evenodd" clip-rule="evenodd" d="M6.02686 11.5927H5.59196C4.79503 11.5927 4.16744 11.5927 3.66956 11.5408C3.16119 11.4878 2.74316 11.3773 2.38555 11.1253C2.19465 10.9908 2.02441 10.8308 1.88036 10.6497C1.60792 10.3072 1.48774 9.90438 1.43055 9.41829C1.37499 8.94608 1.37499 8.35234 1.375 7.60539V6.29496C1.375 5.56577 1.375 4.99987 1.40512 4.54319C1.43565 4.08029 1.49827 3.70358 1.63585 3.35642C2.0549 2.29898 2.93732 1.47338 4.04497 1.08455C4.73441 0.842529 5.58037 0.842591 7.06306 0.842701L7.24441 0.842693C8.06199 0.842523 8.57148 0.842418 8.99182 0.989973C9.66635 1.22676 10.2071 1.73082 10.4646 2.38062C10.552 2.60099 10.5895 2.83494 10.6074 3.10741C10.625 3.37369 10.625 3.70145 10.625 4.11362V7.24745C10.625 8.16501 10.625 8.89415 10.5434 9.46528C10.4591 10.0558 10.281 10.5319 9.88461 10.905C9.49145 11.275 8.99505 11.4385 8.37878 11.5165C7.77658 11.5927 7.00583 11.5927 6.02686 11.5927ZM8.28463 10.7724C8.82569 10.704 9.14136 10.5746 9.37059 10.3588C9.59661 10.1461 9.72972 9.85795 9.80097 9.35922C9.8741 8.84725 9.875 8.17176 9.875 7.2177V4.1268C9.875 3.69854 9.87481 3.39548 9.85907 3.15677C9.84354 2.9214 9.81405 2.77465 9.7674 2.65693C9.59412 2.21969 9.22385 1.8663 8.7434 1.69764C8.45973 1.59806 8.09036 1.5927 7.15909 1.5927C6.99883 1.5927 6.84752 1.59276 6.70443 1.59305C6.01235 1.61725 5.45872 2.18593 5.45872 2.88391C5.45872 2.95748 5.46196 3.03657 5.46608 3.12536L5.46762 3.15827C5.47126 3.23572 5.47522 3.32004 5.47696 3.40409C5.48091 3.59414 5.47491 3.81591 5.41755 4.02998C5.30582 4.44697 4.98011 4.77267 4.56313 4.8844C4.34905 4.94177 4.12728 4.94777 3.93724 4.94382C3.85318 4.94208 3.7689 4.93811 3.69145 4.93447L3.65851 4.93293C3.56971 4.92881 3.49062 4.92558 3.41706 4.92558C2.70369 4.92558 2.12539 5.50388 2.12539 6.21724C2.12539 6.223 2.12526 6.22873 2.125 6.23442C2.125 6.25892 2.125 6.28365 2.125 6.30861V7.58134C2.125 8.35776 2.12561 8.90736 2.17541 9.33065C2.22418 9.74513 2.31593 9.99247 2.46734 10.1828C2.56617 10.3071 2.68397 10.4181 2.81752 10.5122C3.02611 10.6592 3.29883 10.7481 3.74731 10.7949C4.20177 10.8422 4.79028 10.8427 5.61364 10.8427H6C7.01173 10.8427 7.73499 10.842 8.28463 10.7724ZM2.15207 4.61457C2.49988 4.33967 2.93931 4.17558 3.41706 4.17558C3.50994 4.17558 3.60474 4.17963 3.69327 4.18374L3.7272 4.18533C3.80554 4.189 3.87929 4.19246 3.95281 4.19398C4.12313 4.19752 4.25942 4.18932 4.36901 4.15996C4.52718 4.11758 4.65072 3.99404 4.6931 3.83587C4.72247 3.72628 4.73066 3.58999 4.72713 3.41967C4.7256 3.34615 4.72214 3.27242 4.71847 3.19409L4.71688 3.16012C4.71278 3.07159 4.70872 2.97679 4.70872 2.88391C4.70872 2.41262 4.86841 1.97863 5.13662 1.63309C4.79004 1.66151 4.5279 1.70989 4.29339 1.79221C3.37982 2.11291 2.66791 2.78785 2.33309 3.63274C2.2362 3.87724 2.18158 4.16675 2.1535 4.59255C2.15301 4.59986 2.15254 4.6072 2.15207 4.61457Z" fill="#39C4D5"/>
</svg>
