<svg width="25" height="25" viewBox="0 0 25 25" fill="none" xmlns="http://www.w3.org/2000/svg">
<path d="M17.5009 2.38616C15.7246 1.33342 14.1004 1.75022 13.1171 2.46367L13.0015 2.54742L12.8859 2.46367C11.9026 1.75022 10.2784 1.33342 8.50207 2.38616C7.23313 3.13818 6.56194 4.67763 6.79902 6.38548C7.03825 8.10882 8.18572 10.012 10.5391 11.695C11.3106 12.2477 12.0119 12.75 13.0015 12.75C13.9911 12.75 14.6924 12.2477 15.4638 11.695C17.8173 10.012 18.9647 8.10882 19.204 6.38548C19.4411 4.67763 18.7699 3.13818 17.5009 2.38616Z" fill="black"/>
<path d="M5.30274 13.7933C5.62555 13.7499 6.02238 13.75 6.4552 13.75L6.89476 13.75C7.3013 13.75 7.70316 13.8415 8.06877 14.0184L10.1107 15.0064C10.2713 15.0841 10.4497 15.1251 10.6314 15.1251L11.674 15.1252C13.0732 15.1252 14.2499 15.4842 14.2499 16.8973C14.2499 17.2884 13.9836 17.6083 13.6336 17.7051L11.0926 18.4076C10.4621 18.582 9.78686 18.5217 9.19824 18.2369L7.57796 17.4529C7.26724 17.3026 6.89348 17.4326 6.74314 17.7433C6.5928 18.054 6.72282 18.4278 7.03353 18.5781L8.65382 19.3621C9.51681 19.7796 10.5041 19.8673 11.4257 19.6124L13.9667 18.9099C14.8309 18.671 15.4999 17.8786 15.4999 16.8973C15.512 16.7627 15.5036 16.5236 15.4327 16.2743C15.3397 15.9474 15.2932 15.7839 15.3322 15.7122C15.3712 15.6405 15.4955 15.6023 15.7442 15.5259L17.8696 14.8729L17.8711 14.8724C19.0016 14.5209 20.2122 14.9437 20.9051 15.9032C21.5266 16.7638 21.2864 18.0054 20.3532 18.5438L12.8376 22.8802C12.1827 23.2581 11.4062 23.3516 10.6817 23.1366L5.68285 21.6533C5.36824 21.56 5.07345 21.4725 4.83563 21.3707C4.57096 21.2574 4.30468 21.0979 4.0975 20.8203C3.89032 20.5427 3.81314 20.2421 3.77981 19.9561C3.74986 19.6992 3.7499 19.3917 3.74994 19.0635L3.74994 16.4553C3.74989 16.0224 3.74985 15.6256 3.79325 15.3028C3.84104 14.9473 3.95349 14.5716 4.26251 14.2626C4.57153 13.9535 4.94726 13.8411 5.30274 13.7933Z" fill="black"/>
</svg>
