<svg width="22" height="19" viewBox="0 0 22 19" fill="none" xmlns="http://www.w3.org/2000/svg">
<path fill-rule="evenodd" clip-rule="evenodd" d="M12.5477 0.75H9.45262C7.61361 0.749991 6.16932 0.749984 5.03073 0.878599C3.86857 1.00988 2.92616 1.28362 2.14278 1.90229C1.90826 2.08749 1.69083 2.29205 1.49313 2.5138C0.82696 3.26101 0.529475 4.16669 0.387778 5.27785C0.250128 6.35727 0.250139 7.72325 0.250153 9.44725V9.55273C0.250139 11.2767 0.250128 12.6427 0.387778 13.7222C0.529475 14.8333 0.82696 15.739 1.49313 16.4862C1.69083 16.7079 1.90826 16.9125 2.14278 17.0977C2.92616 17.7164 3.86857 17.9901 5.03073 18.1214C6.16932 18.25 7.6136 18.25 9.45261 18.25H12.5477C14.3867 18.25 15.831 18.25 16.9696 18.1214C18.1317 17.9901 19.0741 17.7164 19.8575 17.0977C20.092 16.9125 20.3095 16.708 20.5072 16.4862C21.1733 15.739 21.4708 14.8333 21.6125 13.7222C21.7502 12.6427 21.7502 11.2768 21.7502 9.55275V9.44725C21.7502 7.72325 21.7502 6.35727 21.6125 5.27785C21.4708 4.16669 21.1733 3.26101 20.5072 2.5138C20.3095 2.29205 20.092 2.08749 19.8575 1.90229C19.0741 1.28362 18.1317 1.00988 16.9696 0.878599C15.831 0.749984 14.3867 0.749991 12.5477 0.75ZM11.0002 12.5C12.657 12.5 14.0002 11.1569 14.0002 9.5C14.0002 7.84315 12.657 6.5 11.0002 6.5C9.3433 6.5 8.00015 7.84315 8.00015 9.5C8.00015 11.1569 9.3433 12.5 11.0002 12.5ZM17.5101 8.5C18.0624 8.5 18.5101 8.94771 18.5101 9.5C18.5101 10.0523 18.0624 10.5 17.5101 10.5H17.5011C16.9488 10.5 16.5011 10.0523 16.5011 9.5C16.5011 8.94771 16.9488 8.5 17.5011 8.5H17.5101ZM5.50132 9.5C5.50132 8.94771 5.05361 8.5 4.50132 8.5H4.49234C3.94006 8.5 3.49234 8.94771 3.49234 9.5C3.49234 10.0523 3.94006 10.5 4.49234 10.5H4.50132C5.05361 10.5 5.50132 10.0523 5.50132 9.5Z" fill="black"/>
</svg>
