<svg width="25" height="25" viewBox="0 0 25 25" fill="none" xmlns="http://www.w3.org/2000/svg">
<path d="M8.99979 3C6.29189 3 4.0967 5.18412 4.0967 7.87838C4.0967 10.5726 6.29189 12.7568 8.99979 12.7568C11.7077 12.7568 13.9029 10.5726 13.9029 7.87838C13.9029 5.18412 11.7077 3 8.99979 3Z" fill="black"/>
<path d="M16.141 17.0861C15.5292 16.5116 14.6349 16.028 14.0647 15.7197C13.9378 15.6511 13.827 15.5911 13.7389 15.5408C10.8366 13.8828 7.16341 13.8828 4.26117 15.5408C4.17307 15.5911 4.06219 15.6511 3.93526 15.7197C3.36513 16.028 2.47087 16.5116 1.85908 17.0861C1.47815 17.4439 1.08411 17.9432 1.01176 18.5782C0.933481 19.2653 1.2515 19.8856 1.82282 20.4078C2.78179 21.2844 3.94781 22 5.46017 22H12.5399C14.0522 22 15.2183 21.2844 16.1772 20.4078C16.7485 19.8856 17.0666 19.2653 16.9883 18.5782C16.9159 17.9432 16.5219 17.4439 16.141 17.0861Z" fill="black"/>
<path d="M14.0082 12.0144C13.9692 11.8783 14.072 11.7407 14.2777 11.4656C15.0502 10.432 15.5018 9.18342 15.5018 7.83871C15.5018 7.14504 15.3816 6.47695 15.1592 5.85075C15.0465 5.53357 14.9902 5.37497 15.0698 5.25422C15.1494 5.13347 15.3001 5.10902 15.6016 5.06011C15.845 5.02061 16.0957 5 16.3516 5C18.6982 5 20.6005 6.73309 20.6005 8.87097C20.6005 11.0088 18.6982 12.7419 16.3516 12.7419C15.6712 12.7419 15.0282 12.5963 14.4581 12.3373C14.1841 12.2128 14.0472 12.1506 14.0082 12.0144Z" fill="black"/>
<path d="M23.1072 19.6596C22.1164 20.4038 20.9249 21 19.393 21C18.8535 21 18.5837 21 18.4816 20.8791C18.4751 20.8713 18.4716 20.8668 18.4657 20.8586C18.3748 20.7305 18.48 20.4603 18.6904 19.9199C18.867 19.4661 18.9456 18.9638 18.8777 18.4186C18.7314 17.2422 17.955 16.4226 17.4255 15.9673C17.1902 15.765 16.9222 15.5707 16.6451 15.3893C15.9155 14.9118 15.5508 14.673 15.6444 14.4501C15.738 14.2272 16.1476 14.2676 16.9669 14.3483C18.2373 14.4735 19.481 14.8015 20.6115 15.3322C20.6996 15.3735 20.811 15.423 20.9391 15.4799C21.5192 15.7376 22.44 16.1466 23.0711 16.6336C23.4563 16.9309 23.9028 17.3788 23.9862 17.9806C24.0791 18.6506 23.6944 19.2186 23.1072 19.6596Z" fill="black"/>
</svg>
