<svg width="175" height="99" viewBox="0 0 175 99" fill="none" xmlns="http://www.w3.org/2000/svg">
<rect width="175" height="91" rx="12" fill="white"/>
<path d="M161.376 23.5738C161.141 23.7937 160.827 23.9166 160.501 23.9166C160.174 23.9166 159.86 23.7937 159.625 23.5738C157.474 21.5474 154.591 19.2837 155.997 15.9973C156.757 14.2204 158.582 13.0833 160.501 13.0833C162.42 13.0833 164.244 14.2204 165.004 15.9973C166.409 19.2796 163.533 21.5544 161.376 23.5738Z" stroke="#2BB9CA"/>
<path d="M162.396 17.9583C162.396 19.0054 161.547 19.8542 160.5 19.8542C159.453 19.8542 158.604 19.0054 158.604 17.9583C158.604 16.9113 159.453 16.0625 160.5 16.0625C161.547 16.0625 162.396 16.9113 162.396 17.9583Z" stroke="#2BB9CA"/>
<path d="M102.572 50H97.0758V48.968L99.8118 46.448C100.204 46.088 100.532 45.708 100.796 45.308C101.06 44.9 101.192 44.492 101.192 44.084V43.94C101.192 43.476 101.064 43.1 100.808 42.812C100.552 42.524 100.164 42.38 99.6438 42.38C99.3878 42.38 99.1638 42.416 98.9718 42.488C98.7798 42.56 98.6118 42.66 98.4678 42.788C98.3318 42.916 98.2158 43.068 98.1198 43.244C98.0318 43.412 97.9598 43.596 97.9038 43.796L97.0038 43.448C97.0838 43.2 97.1918 42.96 97.3278 42.728C97.4718 42.488 97.6478 42.276 97.8558 42.092C98.0718 41.908 98.3278 41.76 98.6238 41.648C98.9278 41.536 99.2838 41.48 99.6918 41.48C100.1 41.48 100.464 41.54 100.784 41.66C101.104 41.78 101.372 41.948 101.588 42.164C101.804 42.38 101.968 42.636 102.08 42.932C102.2 43.228 102.26 43.556 102.26 43.916C102.26 44.244 102.212 44.548 102.116 44.828C102.028 45.108 101.904 45.376 101.744 45.632C101.584 45.88 101.388 46.124 101.156 46.364C100.932 46.604 100.688 46.844 100.424 47.084L98.1678 49.112H102.572V50ZM104.091 49.832C104.091 49.368 104.123 48.968 104.187 48.632C104.251 48.296 104.367 48 104.535 47.744C104.703 47.488 104.927 47.256 105.207 47.048C105.495 46.84 105.863 46.628 106.311 46.412L108.027 45.572H108.963L109.815 47.888C109.895 48.104 109.967 48.284 110.031 48.428C110.103 48.564 110.179 48.672 110.259 48.752C110.339 48.832 110.427 48.888 110.523 48.92C110.627 48.952 110.747 48.968 110.883 48.968H111.123V49.76L110.883 50C110.507 50 110.207 49.948 109.983 49.844C109.759 49.732 109.559 49.516 109.383 49.196L109.311 49.22V50H107.883C107.227 50 106.715 49.872 106.347 49.616C105.979 49.36 105.795 49.004 105.795 48.548C105.795 48.124 105.959 47.784 106.287 47.528L106.239 47.48L105.867 47.696C105.691 47.808 105.543 47.92 105.423 48.032C105.311 48.144 105.223 48.28 105.159 48.44C105.095 48.6 105.047 48.792 105.015 49.016C104.991 49.24 104.979 49.512 104.979 49.832V53.672H104.091V49.832ZM106.515 48.128C106.515 48.416 106.631 48.628 106.863 48.764C107.095 48.9 107.459 48.968 107.955 48.968H109.263C109.175 48.784 109.079 48.548 108.975 48.26L108.339 46.556L107.847 46.784C107.583 46.904 107.367 47.02 107.199 47.132C107.031 47.236 106.895 47.34 106.791 47.444C106.687 47.548 106.615 47.656 106.575 47.768C106.535 47.88 106.515 48 106.515 48.128ZM110.889 49.208L111.129 48.968H112.365C112.749 48.968 113.049 48.9 113.265 48.764C113.481 48.62 113.589 48.4 113.589 48.104C113.589 47.944 113.553 47.796 113.481 47.66C113.409 47.524 113.281 47.364 113.097 47.18L111.249 45.416V43.376L116.433 40.988V42.08L111.669 44.288V44.348L113.085 45.728C113.333 45.968 113.541 46.188 113.709 46.388C113.885 46.588 114.025 46.78 114.129 46.964C114.233 47.148 114.309 47.328 114.357 47.504C114.405 47.68 114.429 47.868 114.429 48.068C114.429 48.676 114.245 49.152 113.877 49.496C113.517 49.832 113.013 50 112.365 50H110.889V49.208ZM124.345 44.696C124.345 45.32 124.253 45.908 124.069 46.46C123.885 47.004 123.645 47.504 123.349 47.96C123.061 48.408 122.741 48.808 122.389 49.16C122.037 49.504 121.693 49.784 121.357 50H120.061C120.509 49.672 120.909 49.352 121.261 49.04C121.613 48.728 121.921 48.404 122.185 48.068C122.449 47.724 122.673 47.36 122.857 46.976C123.041 46.584 123.189 46.144 123.301 45.656L123.241 45.632C123.041 45.976 122.781 46.264 122.461 46.496C122.149 46.72 121.737 46.832 121.225 46.832C120.865 46.832 120.533 46.772 120.229 46.652C119.925 46.532 119.665 46.36 119.449 46.136C119.233 45.912 119.061 45.644 118.933 45.332C118.813 45.012 118.753 44.652 118.753 44.252C118.753 43.844 118.817 43.472 118.945 43.136C119.081 42.792 119.269 42.5 119.509 42.26C119.757 42.012 120.049 41.82 120.385 41.684C120.729 41.548 121.113 41.48 121.537 41.48C121.969 41.48 122.357 41.556 122.701 41.708C123.053 41.852 123.349 42.064 123.589 42.344C123.837 42.616 124.025 42.952 124.153 43.352C124.281 43.752 124.345 44.2 124.345 44.696ZM121.549 45.98C122.101 45.98 122.529 45.828 122.833 45.524C123.145 45.22 123.301 44.784 123.301 44.216V44.12C123.301 43.552 123.145 43.116 122.833 42.812C122.529 42.508 122.101 42.356 121.549 42.356C120.997 42.356 120.565 42.508 120.253 42.812C119.949 43.116 119.797 43.552 119.797 44.12V44.216C119.797 44.784 119.949 45.22 120.253 45.524C120.565 45.828 120.997 45.98 121.549 45.98ZM126.777 50.144C126.521 50.144 126.333 50.08 126.213 49.952C126.101 49.824 126.045 49.656 126.045 49.448V49.292C126.045 49.084 126.101 48.916 126.213 48.788C126.333 48.66 126.521 48.596 126.777 48.596C127.033 48.596 127.217 48.66 127.329 48.788C127.449 48.916 127.509 49.084 127.509 49.292V49.448C127.509 49.656 127.449 49.824 127.329 49.952C127.217 50.08 127.033 50.144 126.777 50.144ZM132.014 50.144C131.014 50.144 130.282 49.764 129.818 49.004C129.362 48.244 129.134 47.18 129.134 45.812C129.134 44.444 129.362 43.38 129.818 42.62C130.282 41.86 131.014 41.48 132.014 41.48C133.014 41.48 133.742 41.86 134.198 42.62C134.662 43.38 134.894 44.444 134.894 45.812C134.894 47.18 134.662 48.244 134.198 49.004C133.742 49.764 133.014 50.144 132.014 50.144ZM132.014 49.268C132.342 49.268 132.622 49.2 132.854 49.064C133.086 48.928 133.274 48.736 133.418 48.488C133.562 48.24 133.666 47.948 133.73 47.612C133.802 47.276 133.838 46.904 133.838 46.496V45.128C133.838 44.72 133.802 44.348 133.73 44.012C133.666 43.676 133.562 43.384 133.418 43.136C133.274 42.888 133.086 42.696 132.854 42.56C132.622 42.424 132.342 42.356 132.014 42.356C131.686 42.356 131.406 42.424 131.174 42.56C130.942 42.696 130.754 42.888 130.61 43.136C130.466 43.384 130.358 43.676 130.286 44.012C130.222 44.348 130.19 44.72 130.19 45.128V46.496C130.19 46.904 130.222 47.276 130.286 47.612C130.358 47.948 130.466 48.24 130.61 48.488C130.754 48.736 130.942 48.928 131.174 49.064C131.406 49.2 131.686 49.268 132.014 49.268ZM139.209 50.144C138.209 50.144 137.477 49.764 137.013 49.004C136.557 48.244 136.329 47.18 136.329 45.812C136.329 44.444 136.557 43.38 137.013 42.62C137.477 41.86 138.209 41.48 139.209 41.48C140.209 41.48 140.937 41.86 141.393 42.62C141.857 43.38 142.089 44.444 142.089 45.812C142.089 47.18 141.857 48.244 141.393 49.004C140.937 49.764 140.209 50.144 139.209 50.144ZM139.209 49.268C139.537 49.268 139.817 49.2 140.049 49.064C140.281 48.928 140.469 48.736 140.613 48.488C140.757 48.24 140.861 47.948 140.925 47.612C140.997 47.276 141.033 46.904 141.033 46.496V45.128C141.033 44.72 140.997 44.348 140.925 44.012C140.861 43.676 140.757 43.384 140.613 43.136C140.469 42.888 140.281 42.696 140.049 42.56C139.817 42.424 139.537 42.356 139.209 42.356C138.881 42.356 138.601 42.424 138.369 42.56C138.137 42.696 137.949 42.888 137.805 43.136C137.661 43.384 137.553 43.676 137.481 44.012C137.417 44.348 137.385 44.72 137.385 45.128V46.496C137.385 46.904 137.417 47.276 137.481 47.612C137.553 47.948 137.661 48.24 137.805 48.488C137.949 48.736 138.137 48.928 138.369 49.064C138.601 49.2 138.881 49.268 139.209 49.268ZM146.405 50.144C145.405 50.144 144.673 49.764 144.209 49.004C143.753 48.244 143.525 47.18 143.525 45.812C143.525 44.444 143.753 43.38 144.209 42.62C144.673 41.86 145.405 41.48 146.405 41.48C147.405 41.48 148.133 41.86 148.589 42.62C149.053 43.38 149.285 44.444 149.285 45.812C149.285 47.18 149.053 48.244 148.589 49.004C148.133 49.764 147.405 50.144 146.405 50.144ZM146.405 49.268C146.733 49.268 147.013 49.2 147.245 49.064C147.477 48.928 147.665 48.736 147.809 48.488C147.953 48.24 148.057 47.948 148.121 47.612C148.193 47.276 148.229 46.904 148.229 46.496V45.128C148.229 44.72 148.193 44.348 148.121 44.012C148.057 43.676 147.953 43.384 147.809 43.136C147.665 42.888 147.477 42.696 147.245 42.56C147.013 42.424 146.733 42.356 146.405 42.356C146.077 42.356 145.797 42.424 145.565 42.56C145.333 42.696 145.145 42.888 145.001 43.136C144.857 43.384 144.749 43.676 144.677 44.012C144.613 44.348 144.581 44.72 144.581 45.128V46.496C144.581 46.904 144.613 47.276 144.677 47.612C144.749 47.948 144.857 48.24 145.001 48.488C145.145 48.736 145.333 48.928 145.565 49.064C145.797 49.2 146.077 49.268 146.405 49.268Z" fill="#002447"/>
<path fill-rule="evenodd" clip-rule="evenodd" d="M160.5 51.3228C157.284 51.3228 154.677 48.7158 154.677 45.4999C154.677 42.284 157.284 39.6769 160.5 39.6769C163.716 39.6769 166.323 42.284 166.323 45.4999C166.323 48.7158 163.716 51.3228 160.5 51.3228ZM158.358 50.0302C156.728 49.258 155.581 47.6321 155.495 45.73C155.857 45.9188 156.283 46.0514 156.757 46.0514C157.1 46.0514 157.352 46.0681 157.54 46.1033C157.727 46.1383 157.821 46.1866 157.872 46.2285C157.959 46.2993 158.04 46.4506 158.04 46.9904L158.04 47.0306C158.04 47.5305 158.04 47.8275 158.08 48.0931C158.121 48.3666 158.203 48.6021 158.334 48.9766L158.345 49.0077C158.497 49.4457 158.519 49.7662 158.358 50.0302ZM160.5 50.5103C160.024 50.5103 159.562 50.4437 159.125 50.3193C159.387 49.7814 159.276 49.2096 159.112 48.74C158.967 48.3255 158.912 48.1628 158.884 47.9729C158.854 47.7747 158.853 47.5424 158.853 46.9904C158.853 46.454 158.793 45.9326 158.387 45.5999C158.192 45.44 157.951 45.3537 157.69 45.3047C157.428 45.2558 157.118 45.2389 156.757 45.2389C156.296 45.2389 155.879 45.052 155.538 44.8018C155.808 42.8625 157.189 41.2787 159.017 40.7128C159.005 40.865 159.011 41.0171 159.036 41.1648C159.111 41.594 159.355 41.9983 159.803 42.2157C159.974 42.2986 160.042 42.3822 160.08 42.4521C160.126 42.536 160.148 42.6376 160.173 42.8063C160.176 42.8244 160.178 42.8431 160.181 42.8626C160.227 43.1853 160.298 43.6783 160.843 44.031C161.211 44.2692 161.671 44.3547 162.159 44.211C162.638 44.0701 163.11 43.7196 163.551 43.1497C163.822 42.7985 164.19 42.6185 164.543 42.539C165.151 43.3685 165.511 44.3922 165.511 45.4999C165.511 45.5625 165.51 45.6248 165.507 45.6869C165.043 45.5765 164.514 45.6254 163.986 46.0044C163.498 46.3551 163.101 46.3853 162.735 46.402L162.685 46.4041C162.519 46.4111 162.308 46.42 162.12 46.4794C161.874 46.5568 161.669 46.7143 161.528 46.9851C161.33 47.3646 161.362 47.6993 161.47 47.9919C161.517 48.1212 161.58 48.2458 161.633 48.3511L161.637 48.358C161.694 48.4713 161.745 48.5711 161.787 48.6777C161.866 48.8786 161.913 49.0998 161.863 49.3951C161.819 49.6524 161.697 49.9867 161.422 50.4257C161.123 50.4812 160.815 50.5103 160.5 50.5103ZM162.504 50.0937C163.978 49.4497 165.083 48.1166 165.411 46.5015C165.109 46.4048 164.79 46.4275 164.461 46.6642C163.781 47.1527 163.192 47.1945 162.772 47.2136C162.552 47.2237 162.446 47.2285 162.364 47.2543C162.32 47.2681 162.288 47.2843 162.248 47.361C162.179 47.493 162.185 47.5821 162.233 47.7125C162.262 47.7918 162.303 47.8759 162.362 47.9911L162.366 47.9995C162.42 48.1065 162.486 48.2362 162.542 48.3798C162.664 48.6871 162.745 49.06 162.664 49.5317C162.634 49.7088 162.582 49.8954 162.504 50.0937ZM159.873 40.5284C159.822 40.7019 159.811 40.8752 159.837 41.026C159.875 41.2438 159.984 41.4005 160.158 41.4847C160.464 41.6332 160.667 41.8294 160.795 42.0658C160.915 42.2881 160.952 42.519 160.977 42.6867L160.979 42.701C161.03 43.0444 161.053 43.1992 161.284 43.3489C161.457 43.4611 161.674 43.507 161.93 43.4316C162.196 43.3534 162.536 43.1345 162.908 42.653C163.21 42.2616 163.584 42.0181 163.956 41.8718C163.057 41.0153 161.84 40.4894 160.5 40.4894C160.288 40.4894 160.078 40.5027 159.873 40.5284Z" fill="#2BB9CA"/>
<path d="M29.3783 77C29.0103 77 28.6983 76.972 28.4423 76.916C28.1943 76.852 27.9903 76.752 27.8303 76.616C27.6783 76.472 27.5663 76.292 27.4943 76.076C27.4223 75.852 27.3863 75.576 27.3863 75.248V75.044H27.3263C27.2143 75.404 27.0223 75.676 26.7503 75.86C26.4863 76.036 26.1663 76.124 25.7903 76.124C25.2543 76.124 24.8343 75.98 24.5303 75.692C24.2343 75.404 24.0863 74.996 24.0863 74.468C24.0863 74.244 24.1223 74.036 24.1943 73.844C24.2662 73.644 24.3823 73.452 24.5423 73.268C24.7103 73.076 24.9223 72.888 25.1783 72.704C25.4343 72.512 25.7463 72.312 26.1143 72.104L27.3263 71.408V70.808H28.1663V75.128C28.1663 75.456 28.2503 75.68 28.4183 75.8C28.5863 75.912 28.8463 75.968 29.1983 75.968H29.6183V76.76L29.3783 77ZM25.9703 75.092C26.4583 75.092 26.8063 75.024 27.0143 74.888C27.2223 74.744 27.3263 74.492 27.3263 74.132V72.38L26.1143 73.028C25.6903 73.26 25.3863 73.476 25.2023 73.676C25.0183 73.868 24.9263 74.092 24.9263 74.348C24.9263 74.604 25.0023 74.792 25.1543 74.912C25.3143 75.032 25.5863 75.092 25.9703 75.092ZM27.7103 69.812C27.5503 69.812 27.4223 69.768 27.3263 69.68C27.2303 69.584 27.1823 69.432 27.1823 69.224C27.1823 69.016 27.2303 68.868 27.3263 68.78C27.4223 68.684 27.5503 68.636 27.7103 68.636H27.8423C28.0023 68.636 28.1303 68.684 28.2263 68.78C28.3223 68.868 28.3703 69.016 28.3703 69.224C28.3703 69.432 28.3223 69.584 28.2263 69.68C28.1303 69.768 28.0023 69.812 27.8423 69.812H27.7103ZM26.1623 69.812C26.0023 69.812 25.8743 69.768 25.7783 69.68C25.6823 69.584 25.6343 69.432 25.6343 69.224C25.6343 69.016 25.6823 68.868 25.7783 68.78C25.8743 68.684 26.0023 68.636 26.1623 68.636H26.2943C26.4543 68.636 26.5823 68.684 26.6783 68.78C26.7743 68.868 26.8223 69.016 26.8223 69.224C26.8223 69.432 26.7743 69.584 26.6783 69.68C26.5823 69.768 26.4543 69.812 26.2943 69.812H26.1623ZM29.3733 76.208L29.6133 75.968H31.3533L31.3773 75.92C30.9693 75.6 30.6533 75.256 30.4293 74.888C30.2053 74.512 30.0933 74.076 30.0933 73.58C30.0933 73.26 30.1453 72.96 30.2493 72.68C30.3533 72.4 30.5013 72.156 30.6933 71.948C30.8853 71.732 31.1133 71.564 31.3773 71.444C31.6493 71.316 31.9453 71.252 32.2653 71.252C32.5853 71.252 32.8773 71.316 33.1413 71.444C33.4133 71.564 33.6453 71.728 33.8373 71.936C34.0293 72.144 34.1773 72.392 34.2813 72.68C34.3853 72.96 34.4373 73.26 34.4373 73.58C34.4373 74.076 34.3253 74.512 34.1013 74.888C33.8773 75.256 33.5613 75.6 33.1533 75.92L33.1773 75.968H34.9173V76.76L34.6773 77H34.5093C34.1013 77 33.7093 76.956 33.3333 76.868C32.9573 76.772 32.6013 76.632 32.2653 76.448C31.9293 76.632 31.5733 76.772 31.1973 76.868C30.8213 76.956 30.4293 77 30.0213 77H29.3733V76.208ZM32.2653 75.608C32.6733 75.384 32.9973 75.12 33.2373 74.816C33.4773 74.504 33.5973 74.132 33.5973 73.7C33.5973 73.268 33.4813 72.924 33.2493 72.668C33.0173 72.412 32.7093 72.284 32.3253 72.284H32.2053C31.8213 72.284 31.5133 72.412 31.2813 72.668C31.0493 72.924 30.9333 73.268 30.9333 73.7C30.9333 74.132 31.0533 74.504 31.2933 74.816C31.5333 75.12 31.8573 75.384 32.2653 75.608ZM32.9373 69.812C32.7773 69.812 32.6493 69.768 32.5533 69.68C32.4573 69.584 32.4093 69.432 32.4093 69.224C32.4093 69.016 32.4573 68.868 32.5533 68.78C32.6493 68.684 32.7773 68.636 32.9373 68.636H33.0693C33.2293 68.636 33.3573 68.684 33.4533 68.78C33.5493 68.868 33.5973 69.016 33.5973 69.224C33.5973 69.432 33.5493 69.584 33.4533 69.68C33.3573 69.768 33.2293 69.812 33.0693 69.812H32.9373ZM31.3893 69.812C31.2293 69.812 31.1013 69.768 31.0053 69.68C30.9093 69.584 30.8613 69.432 30.8613 69.224C30.8613 69.016 30.9093 68.868 31.0053 68.78C31.1013 68.684 31.2293 68.636 31.3893 68.636H31.5213C31.6813 68.636 31.8093 68.684 31.9053 68.78C32.0013 68.868 32.0493 69.016 32.0493 69.224C32.0493 69.432 32.0013 69.584 31.9053 69.68C31.8093 69.768 31.6813 69.812 31.5213 69.812H31.3893ZM42.9499 77C42.6459 77 42.3899 76.976 42.1819 76.928C41.9819 76.872 41.7979 76.768 41.6299 76.616C41.2139 76.872 40.6299 77 39.8779 77H34.6819V76.208L34.9219 75.968H35.5459L35.9899 75.212V68.12H36.8779V72.512L36.7339 73.916L36.7939 73.94C37.0579 73.588 37.3219 73.296 37.5859 73.064C37.8499 72.824 38.1179 72.632 38.3899 72.488C38.6699 72.344 38.9499 72.24 39.2299 72.176C39.5179 72.112 39.8139 72.08 40.1179 72.08C40.8939 72.08 41.4979 72.296 41.9299 72.728C42.3619 73.152 42.5779 73.74 42.5779 74.492C42.5779 75.052 42.4859 75.516 42.3019 75.884C42.4699 75.94 42.6859 75.968 42.9499 75.968H43.1899V76.76L42.9499 77ZM39.8779 75.968C40.4779 75.968 40.9379 75.868 41.2579 75.668C41.5779 75.468 41.7379 75.116 41.7379 74.612C41.7379 74.116 41.6099 73.744 41.3539 73.496C41.1059 73.24 40.7539 73.112 40.2979 73.112H39.9379C39.6179 73.112 39.3259 73.144 39.0619 73.208C38.8059 73.264 38.5579 73.368 38.3179 73.52C38.0859 73.664 37.8539 73.868 37.6219 74.132C37.3979 74.388 37.1579 74.712 36.9019 75.104L36.3859 75.908L36.4219 75.968H39.8779ZM42.9553 76.208L43.1953 75.968H43.6153C44.2953 75.968 44.6353 75.628 44.6353 74.948V73.052H45.4753V74.948C45.4753 75.628 45.8153 75.968 46.4953 75.968H46.9153V76.76L46.6753 77C45.5713 77 44.9233 76.608 44.7313 75.824H44.6713C44.5833 76.264 44.4113 76.572 44.1553 76.748C43.8993 76.916 43.4993 77 42.9553 77V76.208ZM44.9833 71.612C44.8233 71.612 44.6953 71.568 44.5993 71.48C44.5033 71.384 44.4553 71.232 44.4553 71.024C44.4553 70.816 44.5033 70.668 44.5993 70.58C44.6953 70.484 44.8233 70.436 44.9833 70.436H45.1153C45.2753 70.436 45.4033 70.484 45.4993 70.58C45.5953 70.668 45.6433 70.816 45.6433 71.024C45.6433 71.232 45.5953 71.384 45.4993 71.48C45.4033 71.568 45.2753 71.612 45.1153 71.612H44.9833ZM49.2382 77.408C48.9822 77.264 48.7462 77.16 48.5302 77.096C48.3142 77.04 48.0542 77.008 47.7502 77H46.6702V76.208L46.9102 75.968H47.8102V68.12H48.6982V76.076C48.8742 76.116 49.0462 76.172 49.2142 76.244C49.3822 76.316 49.5622 76.404 49.7542 76.508L50.3662 76.856L49.8502 77.756L49.2382 77.408ZM50.8102 68.12H51.6982V77H50.8102V68.12ZM59.5937 79.88C58.4337 79.88 57.5297 79.616 56.8817 79.088C56.2337 78.56 55.9097 77.824 55.9097 76.88C55.9097 76.512 55.9577 76.124 56.0537 75.716C56.1577 75.3 56.2977 74.888 56.4737 74.48L57.2177 74.708C57.0657 75.02 56.9417 75.348 56.8457 75.692C56.7497 76.028 56.7017 76.348 56.7017 76.652C56.7017 77.332 56.9217 77.86 57.3617 78.236C57.8097 78.612 58.4337 78.8 59.2337 78.8H59.9537C60.4337 78.8 60.8617 78.748 61.2377 78.644C61.6137 78.548 61.9297 78.416 62.1857 78.248C62.4497 78.088 62.6497 77.908 62.7857 77.708C62.9217 77.508 62.9897 77.304 62.9897 77.096V77.072L60.3977 76.496V75.512H60.8897C61.3537 75.512 61.6977 75.444 61.9217 75.308C62.1537 75.164 62.2697 74.896 62.2697 74.504V68.12H63.1097V74.504C63.1097 74.84 63.0457 75.124 62.9177 75.356C62.7977 75.58 62.6177 75.772 62.3777 75.932V75.98L63.0497 76.16C63.5377 76.288 63.7817 76.6 63.7817 77.096C63.7817 77.472 63.6857 77.828 63.4937 78.164C63.3097 78.5 63.0377 78.796 62.6777 79.052C62.3177 79.308 61.8777 79.508 61.3577 79.652C60.8377 79.804 60.2497 79.88 59.5937 79.88ZM60.3017 82.28C60.1417 82.28 60.0137 82.232 59.9177 82.136C59.8217 82.048 59.7737 81.9 59.7737 81.692C59.7737 81.484 59.8217 81.332 59.9177 81.236C60.0137 81.148 60.1417 81.104 60.3017 81.104H60.4337C60.5937 81.104 60.7217 81.148 60.8177 81.236C60.9137 81.332 60.9617 81.484 60.9617 81.692C60.9617 81.9 60.9137 82.048 60.8177 82.136C60.7217 82.232 60.5937 82.28 60.4337 82.28H60.3017ZM58.7537 82.28C58.5937 82.28 58.4657 82.232 58.3697 82.136C58.2737 82.048 58.2257 81.9 58.2257 81.692C58.2257 81.484 58.2737 81.332 58.3697 81.236C58.4657 81.148 58.5937 81.104 58.7537 81.104H58.8857C59.0457 81.104 59.1737 81.148 59.2697 81.236C59.3657 81.332 59.4137 81.484 59.4137 81.692C59.4137 81.9 59.3657 82.048 59.2697 82.136C59.1737 82.232 59.0457 82.28 58.8857 82.28H58.7537ZM67.1247 77C66.7407 77 66.4127 76.968 66.1407 76.904C65.8767 76.84 65.6607 76.736 65.4927 76.592C65.3327 76.44 65.2167 76.244 65.1447 76.004C65.0727 75.764 65.0367 75.472 65.0367 75.128V68.12H65.9247V75.128C65.9247 75.432 66.0087 75.648 66.1767 75.776C66.3447 75.904 66.6047 75.968 66.9567 75.968H67.3767V76.76L67.1367 77H67.1247ZM67.1311 76.208L67.3711 75.968C67.6351 75.968 67.8351 75.956 67.9711 75.932C68.1151 75.908 68.2311 75.86 68.3191 75.788C68.2951 75.7 68.2791 75.612 68.2711 75.524C68.2631 75.436 68.2591 75.34 68.2591 75.236C68.2591 74.804 68.3991 74.412 68.6791 74.06C68.9671 73.7 69.3991 73.332 69.9751 72.956L70.5631 72.572H71.4991L72.3511 74.888C72.4311 75.104 72.5031 75.284 72.5671 75.428C72.6391 75.564 72.7151 75.672 72.7951 75.752C72.8831 75.832 72.9751 75.888 73.0711 75.92C73.1751 75.952 73.2951 75.968 73.4311 75.968H73.6591V76.76L73.4191 77C73.0431 77 72.7431 76.948 72.5191 76.844C72.2951 76.732 72.0951 76.516 71.9191 76.196L71.8471 76.22V77H70.4191C69.3871 77 68.7231 76.7 68.4271 76.1H68.3791C68.2751 76.404 68.1311 76.632 67.9471 76.784C67.7631 76.928 67.4911 77 67.1311 77V76.208ZM69.0511 75.128C69.0511 75.416 69.1671 75.628 69.3991 75.764C69.6311 75.9 69.9951 75.968 70.4911 75.968H71.7991C71.7111 75.784 71.6151 75.548 71.5111 75.26L70.8391 73.448L70.3831 73.724C70.0231 73.94 69.7111 74.164 69.4471 74.396C69.1831 74.628 69.0511 74.872 69.0511 75.128ZM73.4241 76.208L73.6641 75.968H74.0721C74.4241 75.968 74.7481 75.956 75.0441 75.932C75.3481 75.908 75.6561 75.864 75.9681 75.8C76.2801 75.728 76.6081 75.628 76.9521 75.5C77.3041 75.372 77.7001 75.204 78.1401 74.996L79.2441 74.468V74.42L77.4681 74.024L74.9841 73.412V74.444H74.1441V73.52C74.1441 73.184 74.2361 72.932 74.4201 72.764C74.6121 72.588 74.8521 72.5 75.1401 72.5C75.2281 72.5 75.3321 72.512 75.4521 72.536C75.5801 72.552 75.7761 72.592 76.0401 72.656L78.9681 73.412C79.4081 73.524 79.7761 73.604 80.0721 73.652C80.3681 73.692 80.6241 73.712 80.8401 73.712H81.0321V74.744H80.0961L78.4641 75.728C77.9681 76.024 77.5281 76.26 77.1441 76.436C76.7601 76.604 76.4001 76.732 76.0641 76.82C75.7281 76.9 75.4001 76.952 75.0801 76.976C74.7681 76.992 74.4321 77 74.0721 77H73.4241V76.208ZM77.2521 79.4C77.0921 79.4 76.9641 79.352 76.8681 79.256C76.7721 79.168 76.7241 79.02 76.7241 78.812C76.7241 78.604 76.7721 78.452 76.8681 78.356C76.9641 78.268 77.0921 78.224 77.2521 78.224H77.3841C77.5441 78.224 77.6721 78.268 77.7681 78.356C77.8641 78.452 77.9121 78.604 77.9121 78.812C77.9121 79.02 77.8641 79.168 77.7681 79.256C77.6721 79.352 77.5441 79.4 77.3841 79.4H77.2521ZM82.1695 68.12H83.0575V77H82.1695V68.12ZM90.5931 79.88C89.5451 79.88 88.7291 79.616 88.1451 79.088C87.5611 78.56 87.2691 77.824 87.2691 76.88C87.2691 76.512 87.3171 76.124 87.4131 75.716C87.5171 75.3 87.6571 74.888 87.8331 74.48L88.5771 74.708C88.4251 75.02 88.3011 75.348 88.2051 75.692C88.1091 76.028 88.0611 76.348 88.0611 76.652C88.0611 77.332 88.2531 77.86 88.6371 78.236C89.0211 78.612 89.5531 78.8 90.2331 78.8H90.9531C91.8011 78.8 92.4211 78.628 92.8131 78.284C93.2131 77.948 93.4131 77.416 93.4131 76.688C93.4131 76.56 93.4091 76.432 93.4011 76.304C93.3931 76.176 93.3771 76.036 93.3531 75.884C93.3371 75.724 93.3091 75.548 93.2691 75.356C93.2371 75.164 93.1971 74.948 93.1491 74.708L92.9451 73.712L93.7851 73.544L93.9651 74.54C94.0211 74.852 94.0651 75.124 94.0971 75.356C94.1371 75.58 94.1651 75.784 94.1811 75.968H95.3571V76.76L95.1171 77H94.2171C94.1611 77.992 93.8411 78.72 93.2571 79.184C92.6731 79.648 91.7851 79.88 90.5931 79.88ZM90.7611 73.256C90.6011 73.256 90.4731 73.212 90.3771 73.124C90.2811 73.028 90.2331 72.876 90.2331 72.668C90.2331 72.46 90.2811 72.312 90.3771 72.224C90.4731 72.128 90.6011 72.08 90.7611 72.08H90.8931C91.0531 72.08 91.1811 72.128 91.2771 72.224C91.3731 72.312 91.4211 72.46 91.4211 72.668C91.4211 72.876 91.3731 73.028 91.2771 73.124C91.1811 73.212 91.0531 73.256 90.8931 73.256H90.7611ZM96.6875 76.304C96.5035 76.552 96.2875 76.732 96.0395 76.844C95.7995 76.948 95.4915 77 95.1155 77V76.208L95.3555 75.968C95.5075 75.968 95.6355 75.948 95.7395 75.908C95.8515 75.868 95.9475 75.808 96.0275 75.728C96.1155 75.64 96.1915 75.528 96.2555 75.392C96.3275 75.248 96.3995 75.08 96.4715 74.888L96.8075 74C96.9915 73.52 97.2355 73.152 97.5395 72.896C97.8435 72.632 98.2475 72.5 98.7515 72.5C99.3435 72.5 99.7995 72.768 100.119 73.304C100.447 73.84 100.611 74.584 100.611 75.536V76.1L99.9035 77.144L96.6875 76.304ZM97.1675 75.356L99.7715 76.052V75.536C99.7715 74.912 99.6675 74.424 99.4595 74.072C99.2595 73.712 98.9755 73.532 98.6075 73.532C98.3035 73.532 98.0675 73.624 97.8995 73.808C97.7395 73.992 97.6035 74.224 97.4915 74.504L97.1675 75.356ZM107.884 77V76.112H110.224V69.368H110.14L108.028 71.336L107.44 70.7L109.66 68.624H111.232V76.112H113.392V77H107.884ZM115.079 77V76.112H117.419V69.368H117.335L115.223 71.336L114.635 70.7L116.855 68.624H118.427V76.112H120.587V77H115.079ZM122.851 77.144C122.595 77.144 122.407 77.08 122.287 76.952C122.175 76.824 122.119 76.656 122.119 76.448V76.292C122.119 76.084 122.175 75.916 122.287 75.788C122.407 75.66 122.595 75.596 122.851 75.596C123.107 75.596 123.291 75.66 123.403 75.788C123.523 75.916 123.583 76.084 123.583 76.292V76.448C123.583 76.656 123.523 76.824 123.403 76.952C123.291 77.08 123.107 77.144 122.851 77.144ZM128.088 77.144C127.608 77.144 127.188 77.084 126.828 76.964C126.468 76.836 126.164 76.664 125.916 76.448C125.676 76.232 125.492 75.976 125.364 75.68C125.244 75.384 125.184 75.064 125.184 74.72C125.184 74.144 125.34 73.688 125.652 73.352C125.964 73.016 126.372 72.78 126.876 72.644V72.548C126.436 72.396 126.084 72.152 125.82 71.816C125.564 71.472 125.436 71.06 125.436 70.58C125.436 69.94 125.668 69.432 126.132 69.056C126.596 68.672 127.248 68.48 128.088 68.48C128.928 68.48 129.58 68.672 130.044 69.056C130.508 69.432 130.74 69.94 130.74 70.58C130.74 71.06 130.608 71.472 130.344 71.816C130.088 72.152 129.74 72.396 129.3 72.548V72.644C129.804 72.78 130.212 73.016 130.524 73.352C130.836 73.688 130.992 74.144 130.992 74.72C130.992 75.064 130.928 75.384 130.8 75.68C130.68 75.976 130.496 76.232 130.248 76.448C130.008 76.664 129.708 76.836 129.348 76.964C128.988 77.084 128.568 77.144 128.088 77.144ZM128.088 76.268C128.672 76.268 129.124 76.14 129.444 75.884C129.764 75.62 129.924 75.248 129.924 74.768V74.516C129.924 74.036 129.764 73.668 129.444 73.412C129.124 73.148 128.672 73.016 128.088 73.016C127.504 73.016 127.052 73.148 126.732 73.412C126.412 73.668 126.252 74.036 126.252 74.516V74.768C126.252 75.248 126.412 75.62 126.732 75.884C127.052 76.14 127.504 76.268 128.088 76.268ZM128.088 72.176C128.616 72.176 129.016 72.064 129.288 71.84C129.56 71.616 129.696 71.288 129.696 70.856V70.676C129.696 70.244 129.56 69.916 129.288 69.692C129.016 69.468 128.616 69.356 128.088 69.356C127.56 69.356 127.16 69.468 126.888 69.692C126.616 69.916 126.48 70.244 126.48 70.676V70.856C126.48 71.288 126.616 71.616 126.888 71.84C127.16 72.064 127.56 72.176 128.088 72.176ZM136.184 77V75.356H132.14V74.468L135.644 68.624H137.144V74.516H138.356V75.356H137.144V77H136.184ZM133.088 74.516H136.184V69.404H136.124L133.088 74.516ZM141.075 77L146.883 68.624H147.807L141.999 77H141.075ZM141.555 73.232C140.947 73.232 140.479 73.032 140.151 72.632C139.823 72.224 139.659 71.632 139.659 70.856C139.659 70.08 139.823 69.492 140.151 69.092C140.479 68.684 140.947 68.48 141.555 68.48C142.163 68.48 142.631 68.684 142.959 69.092C143.287 69.492 143.451 70.08 143.451 70.856C143.451 71.632 143.287 72.224 142.959 72.632C142.631 73.032 142.163 73.232 141.555 73.232ZM141.555 72.608C142.243 72.608 142.587 72.144 142.587 71.216V70.496C142.587 69.568 142.243 69.104 141.555 69.104C140.867 69.104 140.523 69.568 140.523 70.496V71.216C140.523 72.144 140.867 72.608 141.555 72.608ZM147.327 77.144C146.719 77.144 146.251 76.944 145.923 76.544C145.595 76.136 145.431 75.544 145.431 74.768C145.431 73.992 145.595 73.404 145.923 73.004C146.251 72.596 146.719 72.392 147.327 72.392C147.935 72.392 148.403 72.596 148.731 73.004C149.059 73.404 149.223 73.992 149.223 74.768C149.223 75.544 149.059 76.136 148.731 76.544C148.403 76.944 147.935 77.144 147.327 77.144ZM147.327 76.52C148.015 76.52 148.359 76.056 148.359 75.128V74.408C148.359 73.48 148.015 73.016 147.327 73.016C146.639 73.016 146.295 73.48 146.295 74.408V75.128C146.295 76.056 146.639 76.52 147.327 76.52Z" fill="#002447"/>
<path fill-rule="evenodd" clip-rule="evenodd" d="M157.385 68.1666C157.385 67.344 158.052 66.6771 158.875 66.6771C159.698 66.6771 160.365 67.344 160.365 68.1666C160.365 68.1743 160.365 68.1819 160.364 68.1894L163.035 68.9908C163.3 68.5766 163.764 68.3021 164.292 68.3021C165.114 68.3021 165.781 68.969 165.781 69.7916C165.781 70.4331 165.376 70.9798 164.807 71.1896L165.129 75.3731C165.81 75.5103 166.323 76.1119 166.323 76.8333C166.323 77.656 165.656 78.3229 164.833 78.3229C164.087 78.3229 163.469 77.7745 163.361 77.0589L157.539 76.3311C157.312 76.865 156.783 77.2396 156.167 77.2396C155.344 77.2396 154.677 76.5727 154.677 75.75C154.677 74.9273 155.344 74.2604 156.167 74.2604C156.2 74.2604 156.234 74.2615 156.267 74.2637L158.011 69.3802C157.632 69.1101 157.385 68.6672 157.385 68.1666ZM158.875 67.4896C158.501 67.4896 158.198 67.7927 158.198 68.1666C158.198 68.5406 158.501 68.8437 158.875 68.8437C159.249 68.8437 159.552 68.5406 159.552 68.1666C159.552 67.7927 159.249 67.4896 158.875 67.4896ZM158.776 69.653L157.032 74.5373C157.352 74.7661 157.578 75.1186 157.639 75.5249L163.461 76.2526C163.621 75.8751 163.932 75.5772 164.319 75.4349L163.997 71.2521C163.316 71.1154 162.802 70.5135 162.802 69.7916C162.802 69.7841 162.802 69.7766 162.802 69.7691L160.131 68.9677C159.866 69.3817 159.403 69.6562 158.875 69.6562C158.842 69.6562 158.809 69.6551 158.776 69.653ZM163.638 69.6137C163.623 69.6704 163.615 69.73 163.615 69.7916C163.615 70.1656 163.918 70.4687 164.292 70.4687C164.666 70.4687 164.969 70.1656 164.969 69.7916C164.969 69.4177 164.666 69.1146 164.292 69.1146C163.991 69.1146 163.737 69.3099 163.648 69.5804C163.647 69.5861 163.645 69.5917 163.643 69.5973C163.642 69.6028 163.64 69.6083 163.638 69.6137ZM164.769 76.1593C164.459 76.1886 164.21 76.4267 164.164 76.7314C164.163 76.7374 164.163 76.7435 164.162 76.7496C164.161 76.7554 164.16 76.7612 164.159 76.767C164.157 76.7888 164.156 76.8109 164.156 76.8333C164.156 77.2073 164.459 77.5104 164.833 77.5104C165.207 77.5104 165.51 77.2073 165.51 76.8333C165.51 76.4594 165.207 76.1562 164.833 76.1562C164.82 76.1562 164.807 76.1566 164.794 76.1573C164.79 76.1578 164.786 76.1581 164.782 76.1585C164.778 76.1588 164.773 76.1591 164.769 76.1593ZM156.167 75.0729C155.793 75.0729 155.49 75.376 155.49 75.75C155.49 76.1239 155.793 76.4271 156.167 76.4271C156.541 76.4271 156.844 76.1239 156.844 75.75C156.844 75.376 156.541 75.0729 156.167 75.0729Z" fill="#2BB9CA"/>
<path d="M85.3787 96.8787L80.3787 91.8787C79.8161 91.3161 79.053 91 78.2574 91H96.7426C95.947 91 95.1839 91.3161 94.6213 91.8787L89.6213 96.8787C88.4497 98.0503 86.5503 98.0503 85.3787 96.8787Z" fill="white"/>
</svg>
