<svg width="175" height="136" viewBox="0 0 175 136" fill="none" xmlns="http://www.w3.org/2000/svg">
<rect width="175" height="91" rx="12" fill="white"/>
<path d="M161.376 23.5738C161.141 23.7937 160.827 23.9166 160.501 23.9166C160.174 23.9166 159.86 23.7937 159.625 23.5738C157.474 21.5474 154.591 19.2837 155.997 15.9973C156.757 14.2204 158.582 13.0833 160.501 13.0833C162.42 13.0833 164.244 14.2204 165.004 15.9973C166.409 19.2796 163.533 21.5544 161.376 23.5738Z" stroke="#2BB9CA"/>
<path d="M162.396 17.9583C162.396 19.0054 161.547 19.8542 160.5 19.8542C159.453 19.8542 158.604 19.0054 158.604 17.9583C158.604 16.9113 159.453 16.0625 160.5 16.0625C161.547 16.0625 162.396 16.9113 162.396 17.9583Z" stroke="#2BB9CA"/>
<path d="M97.8812 49.136H101.757V50H96.7172V49.16C99.2972 46.664 100.629 45.32 100.629 43.952C100.629 43.028 99.9932 42.332 98.9252 42.332C98.2412 42.332 97.6172 42.62 96.9812 43.208L96.6332 42.476C97.1252 42.008 97.8452 41.444 99.0212 41.444C100.797 41.444 101.613 42.668 101.613 43.928C101.613 45.524 100.089 47.048 97.8812 49.136ZM111.099 49.004L111.303 49.04L111.267 49.964L111.063 50C110.211 50 109.527 49.628 109.215 48.968C108.903 49.52 108.159 50.048 107.091 50.048C105.915 50.048 105.135 49.532 104.895 48.68C103.683 48.932 103.407 49.112 103.407 49.688V53.792H102.615V49.784C102.615 48.608 103.107 48.08 104.835 47.66C105.015 46.352 105.999 45.332 107.331 45.332C108.459 45.332 109.239 46.136 109.635 47.744C109.875 48.728 110.271 49.004 111.099 49.004ZM107.187 49.064C108.219 49.064 108.747 48.62 108.927 48.2C108.675 47.072 108.135 46.316 107.211 46.316C106.275 46.316 105.591 47.012 105.591 47.948C105.591 48.608 106.167 49.064 107.187 49.064ZM116.182 42.416L112.126 44.828C113.71 45.752 115.198 46.532 115.198 47.888C115.198 49.292 114.178 50 112.282 50H111.058L110.854 49.964L110.89 49.04L111.094 49.004H112.39C113.566 49.004 114.478 48.728 114.478 48.056C114.478 47.144 113.302 46.568 111.274 45.44V44.384L115.822 41.612L116.182 42.416ZM122.843 41.456C124.463 41.456 125.591 42.536 125.591 44.144C125.591 45.032 125.243 45.896 124.343 47.108L122.219 50H121.127L123.467 46.76C123.239 46.832 123.011 46.856 122.747 46.856C121.151 46.856 119.975 45.716 119.975 44.168C119.975 42.596 121.187 41.456 122.843 41.456ZM120.959 44.144C120.959 45.2 121.715 45.968 122.831 45.968C123.455 45.968 123.995 45.728 124.379 45.26C124.559 44.864 124.619 44.54 124.619 44.204C124.619 43.04 123.875 42.344 122.819 42.344C121.739 42.344 120.959 43.076 120.959 44.144ZM126.763 49.4C126.763 48.992 127.075 48.68 127.471 48.68C127.879 48.68 128.191 48.992 128.191 49.4C128.191 49.796 127.879 50.12 127.471 50.12C127.075 50.12 126.763 49.796 126.763 49.4ZM132.376 50.12C130.12 50.12 129.556 48.38 129.556 45.764C129.556 43.292 130.192 41.444 132.376 41.444C134.596 41.444 135.172 43.22 135.172 45.764C135.172 48.236 134.5 50.12 132.376 50.12ZM132.376 49.244C133.768 49.244 134.212 47.984 134.2 45.788C134.188 43.592 133.816 42.32 132.352 42.32C130.888 42.32 130.528 43.616 130.528 45.764C130.528 48.032 130.84 49.244 132.376 49.244ZM139.431 50.12C137.175 50.12 136.611 48.38 136.611 45.764C136.611 43.292 137.247 41.444 139.431 41.444C141.651 41.444 142.227 43.22 142.227 45.764C142.227 48.236 141.555 50.12 139.431 50.12ZM139.431 49.244C140.823 49.244 141.267 47.984 141.255 45.788C141.243 43.592 140.871 42.32 139.407 42.32C137.943 42.32 137.583 43.616 137.583 45.764C137.583 48.032 137.895 49.244 139.431 49.244ZM146.485 50.12C144.229 50.12 143.665 48.38 143.665 45.764C143.665 43.292 144.301 41.444 146.485 41.444C148.705 41.444 149.281 43.22 149.281 45.764C149.281 48.236 148.609 50.12 146.485 50.12ZM146.485 49.244C147.877 49.244 148.321 47.984 148.309 45.788C148.297 43.592 147.925 42.32 146.461 42.32C144.997 42.32 144.637 43.616 144.637 45.764C144.637 48.032 144.949 49.244 146.485 49.244Z" fill="#002447"/>
<path fill-rule="evenodd" clip-rule="evenodd" d="M160.5 51.3228C157.284 51.3228 154.677 48.7158 154.677 45.4999C154.677 42.2839 157.284 39.6769 160.5 39.6769C163.716 39.6769 166.323 42.2839 166.323 45.4999C166.323 48.7158 163.716 51.3228 160.5 51.3228ZM158.358 50.0302C156.728 49.258 155.581 47.6321 155.495 45.73C155.857 45.9188 156.283 46.0514 156.757 46.0514C157.1 46.0514 157.352 46.0681 157.54 46.1033C157.727 46.1383 157.821 46.1866 157.872 46.2285C157.959 46.2993 158.04 46.4506 158.04 46.9904L158.04 47.0306C158.04 47.5305 158.04 47.8275 158.08 48.0931C158.121 48.3666 158.203 48.6021 158.334 48.9766L158.345 49.0077C158.497 49.4457 158.519 49.7662 158.358 50.0302ZM160.5 50.5103C160.024 50.5103 159.562 50.4437 159.125 50.3193C159.387 49.7814 159.276 49.2096 159.112 48.74C158.967 48.3255 158.912 48.1628 158.884 47.9729C158.854 47.7747 158.853 47.5424 158.853 46.9904C158.853 46.454 158.793 45.9326 158.387 45.5999C158.192 45.44 157.951 45.3537 157.69 45.3047C157.428 45.2558 157.118 45.2389 156.757 45.2389C156.296 45.2389 155.879 45.052 155.538 44.8018C155.808 42.8625 157.189 41.2787 159.017 40.7128C159.005 40.865 159.011 41.0171 159.036 41.1648C159.111 41.594 159.355 41.9983 159.803 42.2157C159.974 42.2986 160.042 42.3822 160.08 42.4521C160.126 42.536 160.148 42.6376 160.173 42.8063C160.176 42.8244 160.178 42.8431 160.181 42.8626C160.227 43.1853 160.298 43.6783 160.843 44.031C161.211 44.2692 161.671 44.3547 162.159 44.211C162.638 44.0701 163.11 43.7196 163.551 43.1497C163.822 42.7985 164.19 42.6185 164.543 42.539C165.151 43.3685 165.511 44.3922 165.511 45.4999C165.511 45.5625 165.51 45.6248 165.507 45.6869C165.043 45.5765 164.514 45.6254 163.986 46.0044C163.498 46.3551 163.101 46.3853 162.735 46.402L162.685 46.4041C162.519 46.4111 162.308 46.42 162.12 46.4794C161.874 46.5568 161.669 46.7143 161.528 46.9851C161.33 47.3646 161.362 47.6993 161.47 47.9919C161.517 48.1212 161.58 48.2458 161.633 48.3511L161.637 48.358C161.694 48.4713 161.745 48.5711 161.787 48.6777C161.866 48.8786 161.913 49.0998 161.863 49.3951C161.819 49.6524 161.697 49.9867 161.422 50.4257C161.123 50.4812 160.815 50.5103 160.5 50.5103ZM162.504 50.0937C163.978 49.4497 165.083 48.1166 165.411 46.5015C165.109 46.4048 164.79 46.4275 164.461 46.6642C163.781 47.1527 163.192 47.1945 162.772 47.2136C162.552 47.2237 162.446 47.2285 162.364 47.2543C162.32 47.2681 162.288 47.2843 162.248 47.361C162.179 47.493 162.185 47.5821 162.233 47.7125C162.262 47.7918 162.303 47.8759 162.362 47.9911L162.366 47.9995C162.42 48.1065 162.486 48.2362 162.542 48.3798C162.664 48.6871 162.745 49.06 162.664 49.5317C162.634 49.7088 162.582 49.8954 162.504 50.0937ZM159.873 40.5284C159.822 40.7019 159.811 40.8752 159.837 41.026C159.875 41.2438 159.984 41.4005 160.158 41.4847C160.464 41.6332 160.667 41.8294 160.795 42.0658C160.915 42.2881 160.952 42.519 160.977 42.6867L160.979 42.701C161.03 43.0444 161.053 43.1992 161.284 43.3489C161.457 43.4611 161.674 43.507 161.93 43.4316C162.196 43.3534 162.536 43.1345 162.908 42.653C163.21 42.2616 163.584 42.0181 163.956 41.8718C163.057 41.0153 161.84 40.4894 160.5 40.4894C160.288 40.4894 160.078 40.5027 159.873 40.5284Z" fill="#2BB9CA"/>
<path d="M18.7384 69.62C18.4384 69.62 18.1864 69.368 18.1864 69.068C18.1864 68.768 18.4384 68.516 18.7384 68.516C19.0504 68.516 19.2784 68.768 19.2784 69.068C19.2784 69.368 19.0624 69.62 18.7384 69.62ZM20.2504 69.62C19.9264 69.62 19.6984 69.368 19.6984 69.068C19.6984 68.768 19.9264 68.516 20.2504 68.516C20.5384 68.516 20.7904 68.768 20.7904 69.068C20.7904 69.368 20.5384 69.62 20.2504 69.62ZM23.3464 76.004L23.5504 76.04L23.5144 76.952L23.3104 77C21.9184 77 21.2464 76.352 21.0904 75.308C20.8144 75.86 20.2504 76.256 19.2424 76.256C17.9584 76.256 17.0944 75.476 17.0944 74.276C17.0944 72.884 18.1384 71.768 21.0544 71.264V70.4H21.8464V74.624C21.8464 75.836 22.4704 76.004 23.3464 76.004ZM19.3504 75.248C20.3584 75.248 20.9104 74.828 21.0544 74.444V72.128C18.6544 72.56 17.8744 73.4 17.8744 74.168C17.8744 74.9 18.4624 75.248 19.3504 75.248ZM25.6838 70.16C25.3838 70.16 25.1318 69.908 25.1318 69.608C25.1318 69.308 25.3838 69.056 25.6838 69.056C25.9958 69.056 26.2238 69.308 26.2238 69.608C26.2238 69.908 26.0078 70.16 25.6838 70.16ZM27.1958 70.16C26.8717 70.16 26.6438 69.908 26.6438 69.608C26.6438 69.308 26.8717 69.056 27.1958 69.056C27.4838 69.056 27.7358 69.308 27.7358 69.608C27.7358 69.908 27.4838 70.16 27.1958 70.16ZM29.4158 76.004L29.6198 76.04L29.5838 76.964L29.3798 77C28.2398 77 27.1598 76.808 26.2838 76.448C25.6238 76.748 24.6278 77 23.3077 77L23.1037 76.964L23.1397 76.04L23.3438 76.004C24.0158 76.004 24.6398 75.944 25.2038 75.848C24.5198 75.32 24.0998 74.648 24.0998 73.856C24.0998 72.524 25.0238 71.276 26.4398 71.276C27.7718 71.276 28.6478 72.44 28.6478 73.736C28.6478 74.588 28.1918 75.296 27.3878 75.824C27.9758 75.944 28.6478 76.004 29.4158 76.004ZM24.8678 73.736C24.8678 74.504 25.3838 75.128 26.3438 75.524C27.3038 75.14 27.8798 74.564 27.8798 73.856C27.8798 73.028 27.2918 72.272 26.3678 72.272C25.4678 72.272 24.8678 72.98 24.8678 73.736ZM37.8381 76.004L38.0421 76.04L38.0061 76.964L37.8021 77C36.8781 77 36.4101 76.76 36.1821 76.34C35.6061 76.76 34.7421 77 33.5661 77H29.3781L29.1741 76.952L29.2101 76.04L29.4141 76.004H29.8341C30.0621 75.56 30.3021 75.152 30.5421 74.78V68.564H31.3341V72.464C31.3341 73.004 31.1901 73.616 31.0581 74.036C32.1141 72.656 33.2781 71.864 34.5621 71.864C36.0981 71.864 37.0701 73.184 37.0701 74.48C37.0701 74.972 36.9621 75.404 36.7341 75.764C36.9261 75.908 37.2501 76.004 37.8381 76.004ZM30.6261 76.004H33.6981C35.2101 76.004 36.2901 75.572 36.2901 74.564C36.2901 73.736 35.6061 72.86 34.4301 72.86C32.8701 72.86 31.5621 74.3 30.6261 76.004ZM39.7238 71.768C39.3878 71.768 39.1358 71.492 39.1358 71.18C39.1358 70.868 39.3878 70.592 39.7238 70.592C40.0478 70.592 40.2998 70.868 40.2998 71.18C40.2998 71.492 40.0478 71.768 39.7238 71.768ZM41.6078 76.004L41.8118 76.04L41.7758 76.964L41.5718 77C40.6118 77 39.8438 76.64 39.6398 75.836C39.4478 76.568 38.7158 77 37.8038 77L37.5998 76.964L37.6358 76.04L37.8398 76.004C38.6678 76.004 39.3278 75.848 39.3278 74.624V72.92H40.1198V74.624C40.1198 75.836 40.6478 76.004 41.6078 76.004ZM49.2933 76.004L49.4973 76.04L49.4613 76.964L49.2573 77C48.4053 77 47.7213 76.628 47.4093 75.968C47.0973 76.52 46.3533 77.048 45.2853 77.048C44.3613 77.048 43.6773 76.724 43.3053 76.172C42.9933 76.7 42.2973 77 41.5773 77L41.3733 76.964L41.4093 76.04L41.6133 76.004C42.2373 76.004 42.7773 75.848 43.0413 75.464C43.0173 75.344 43.0053 75.212 43.0053 75.08C43.0053 73.58 44.0493 72.332 45.5253 72.332C46.6533 72.332 47.4333 73.136 47.8293 74.744C48.0693 75.728 48.4653 76.004 49.2933 76.004ZM45.3813 76.064C46.4133 76.064 46.9413 75.62 47.1213 75.2C46.8693 74.072 46.3293 73.316 45.4053 73.316C44.4693 73.316 43.7853 74.012 43.7853 74.948C43.7853 75.608 44.3613 76.064 45.3813 76.064ZM50.7771 68.564H51.5691V74.66C51.5691 76.328 50.5611 77 49.2531 77L49.0491 76.964L49.0851 76.04L49.2891 76.004C50.1651 76.004 50.7771 75.836 50.7771 74.804V68.564ZM54.2754 77H53.4834V68.564H54.2754V77ZM65.5736 68.576V75.5C66.1856 75.704 66.5816 76.22 66.5816 76.976C66.5816 78.332 65.2256 79.88 62.3336 79.88C59.9696 79.88 58.6256 78.536 58.6256 76.532C58.6256 75.44 58.9376 74.396 59.2736 73.616L59.9696 73.868C59.6096 74.672 59.4176 75.692 59.4176 76.364C59.4176 78.056 60.5456 78.884 62.4536 78.884C64.8296 78.884 65.8016 77.804 65.8016 77.108C65.8016 76.592 65.4896 76.268 64.5296 76.268H63.1976V75.308H64.7816V68.576H65.5736ZM61.8176 80.804C62.1296 80.804 62.3576 81.056 62.3576 81.356C62.3576 81.656 62.1416 81.908 61.8176 81.908C61.5176 81.908 61.2656 81.656 61.2656 81.356C61.2656 81.056 61.5176 80.804 61.8176 80.804ZM63.3296 80.804C63.6176 80.804 63.8696 81.056 63.8696 81.356C63.8696 81.656 63.6176 81.908 63.3296 81.908C63.0056 81.908 62.7776 81.656 62.7776 81.356C62.7776 81.056 63.0056 80.804 63.3296 80.804ZM68.1408 75.08V68.564H68.9328V74.744C68.9328 75.8 69.5328 76.004 70.3848 76.004H70.4328L70.6368 76.04L70.6008 76.964L70.3968 77H70.3608C69.1128 77 68.1408 76.424 68.1408 75.08ZM78.1097 76.004L78.3137 76.04L78.2777 76.964L78.0737 77C77.2217 77 76.5377 76.628 76.2257 75.968C75.9137 76.52 75.1697 77.048 74.1017 77.048C73.1777 77.048 72.4937 76.724 72.1217 76.172C71.8097 76.7 71.1137 77 70.3937 77L70.1897 76.964L70.2257 76.04L70.4297 76.004C71.0537 76.004 71.5937 75.848 71.8577 75.464C71.8337 75.344 71.8217 75.212 71.8217 75.08C71.8217 73.58 72.8657 72.332 74.3417 72.332C75.4697 72.332 76.2497 73.136 76.6457 74.744C76.8857 75.728 77.2817 76.004 78.1097 76.004ZM74.1977 76.064C75.2297 76.064 75.7577 75.62 75.9377 75.2C75.6857 74.072 75.1457 73.316 74.2217 73.316C73.2857 73.316 72.6017 74.012 72.6017 74.948C72.6017 75.608 73.1777 76.064 74.1977 76.064ZM85.1495 73.664H86.4575L86.3975 74.732H84.2855C81.6215 76.556 79.9895 77 78.0695 77L77.8655 76.964L77.9015 76.04L78.1055 76.004C79.4975 76.004 80.9375 75.86 83.7095 74.204C83.4815 74.084 83.2175 73.928 82.8695 73.748C82.1375 73.364 81.4655 72.98 80.6015 72.98C79.7975 72.98 79.2335 73.292 78.9215 73.508L78.5375 72.86C78.8015 72.5 79.6055 71.984 80.6615 71.984C81.8495 71.984 82.5215 72.512 83.2415 72.944C84.2975 73.568 84.4775 73.664 85.1495 73.664ZM83.3255 77.024C83.6495 77.024 83.9015 77.3 83.9015 77.612C83.9015 77.924 83.6495 78.2 83.3255 78.2C82.9895 78.2 82.7375 77.924 82.7375 77.612C82.7375 77.3 82.9895 77.024 83.3255 77.024ZM88.3887 77H87.5967V68.564H88.3887V77ZM96.3269 72.644C95.9909 72.644 95.7389 72.368 95.7389 72.056C95.7389 71.744 95.9909 71.468 96.3269 71.468C96.6509 71.468 96.9029 71.744 96.9029 72.056C96.9029 72.368 96.6509 72.644 96.3269 72.644ZM99.9869 76.004H101.211L101.415 76.04L101.379 76.964L101.175 77H99.9389C99.6509 78.68 98.2709 79.7 96.2669 79.7C94.0229 79.7 92.7389 78.44 92.7389 76.556C92.7389 75.476 93.0629 74.516 93.3509 73.892L94.0469 74.144C93.7709 74.744 93.5189 75.68 93.5189 76.376C93.5189 77.948 94.5869 78.704 96.3389 78.704C98.0909 78.704 99.2069 77.912 99.2069 76.496C99.2069 75.584 98.9669 74.552 98.6549 73.4L99.4469 73.172C99.7109 74.096 99.9509 75.068 99.9869 76.004ZM105.403 72.332C106.651 72.332 107.539 73.448 107.539 74.732C107.539 76.148 106.555 77.048 105.055 77.048C103.951 77.048 103.219 76.484 103.003 75.968C102.739 76.616 102.043 77 101.179 77L100.975 76.964L101.011 76.04L101.215 76.004C101.827 76.004 102.463 75.884 102.715 75.02C103.135 73.244 104.071 72.332 105.403 72.332ZM105.199 76.064C106.207 76.064 106.759 75.596 106.759 74.912C106.759 73.988 106.135 73.316 105.283 73.316C104.287 73.316 103.663 74.084 103.423 75.248C103.627 75.656 104.167 76.064 105.199 76.064ZM117.452 68.564V77H116.516V69.704L114.728 70.844L114.344 70.1L116.684 68.564H117.452ZM121.917 68.564V77H120.981V69.704L119.193 70.844L118.809 70.1L121.149 68.564H121.917ZM123.646 76.4C123.646 75.992 123.958 75.68 124.354 75.68C124.762 75.68 125.074 75.992 125.074 76.4C125.074 76.796 124.762 77.12 124.354 77.12C123.958 77.12 123.646 76.796 123.646 76.4ZM130.195 72.452C131.011 72.74 131.707 73.388 131.707 74.588C131.707 76.256 130.339 77.12 128.995 77.12C127.723 77.12 126.367 76.328 126.367 74.624C126.367 73.436 127.039 72.752 127.855 72.452C127.219 72.152 126.727 71.588 126.727 70.652C126.727 69.176 127.915 68.456 129.091 68.456C130.219 68.456 131.395 69.128 131.395 70.568C131.395 71.54 130.879 72.14 130.195 72.452ZM129.055 69.284C128.383 69.284 127.651 69.692 127.651 70.616C127.651 71.54 128.419 72.02 129.067 72.02C129.715 72.02 130.459 71.528 130.459 70.652C130.459 69.776 129.787 69.284 129.055 69.284ZM129.055 76.244C129.859 76.244 130.723 75.74 130.723 74.6C130.723 73.484 129.835 72.944 129.031 72.944C128.287 72.944 127.351 73.388 127.351 74.6C127.351 75.74 128.215 76.244 129.055 76.244ZM137.667 74.132H138.867V74.996H137.667V77.12H136.731V74.996H132.675V74.3L136.887 68.564H137.667V74.132ZM136.731 70.076L133.743 74.132H136.731V70.076ZM139.743 70.652C139.743 69.176 140.823 68.456 141.975 68.456C143.091 68.456 144.147 69.128 144.147 70.568C144.147 72.068 143.031 72.8 141.903 72.8C140.847 72.8 139.743 72.116 139.743 70.652ZM142.095 77H141.003L147.183 68.564H148.275L142.095 77ZM140.643 70.604C140.643 71.528 141.195 72.008 141.951 72.008C142.707 72.008 143.247 71.516 143.247 70.64C143.247 69.776 142.671 69.248 141.939 69.248C141.279 69.248 140.643 69.692 140.643 70.604ZM145.203 74.96C145.203 73.484 146.283 72.764 147.435 72.764C148.563 72.764 149.619 73.436 149.619 74.876C149.619 76.376 148.491 77.12 147.363 77.12C146.307 77.12 145.203 76.424 145.203 74.96ZM146.115 74.912C146.115 75.836 146.655 76.316 147.411 76.316C148.167 76.316 148.707 75.824 148.707 74.948C148.707 74.084 148.143 73.556 147.399 73.556C146.739 73.556 146.115 74 146.115 74.912Z" fill="#002447"/>
<path fill-rule="evenodd" clip-rule="evenodd" d="M157.385 68.1666C157.385 67.344 158.052 66.6771 158.875 66.6771C159.698 66.6771 160.365 67.344 160.365 68.1666C160.365 68.1743 160.365 68.1819 160.364 68.1894L163.035 68.9908C163.3 68.5766 163.764 68.3021 164.292 68.3021C165.114 68.3021 165.781 68.969 165.781 69.7916C165.781 70.4331 165.376 70.9798 164.807 71.1896L165.129 75.3731C165.81 75.5103 166.323 76.1119 166.323 76.8333C166.323 77.656 165.656 78.3229 164.833 78.3229C164.087 78.3229 163.469 77.7745 163.361 77.0589L157.539 76.3311C157.312 76.865 156.783 77.2396 156.167 77.2396C155.344 77.2396 154.677 76.5727 154.677 75.75C154.677 74.9273 155.344 74.2604 156.167 74.2604C156.2 74.2604 156.234 74.2615 156.267 74.2637L158.011 69.3802C157.632 69.1101 157.385 68.6672 157.385 68.1666ZM158.875 67.4896C158.501 67.4896 158.198 67.7927 158.198 68.1666C158.198 68.5406 158.501 68.8437 158.875 68.8437C159.249 68.8437 159.552 68.5406 159.552 68.1666C159.552 67.7927 159.249 67.4896 158.875 67.4896ZM158.776 69.653L157.032 74.5373C157.352 74.7661 157.578 75.1186 157.639 75.5249L163.461 76.2526C163.621 75.8751 163.932 75.5772 164.319 75.4349L163.997 71.2521C163.316 71.1154 162.802 70.5135 162.802 69.7916C162.802 69.7841 162.802 69.7766 162.802 69.7691L160.131 68.9677C159.866 69.3817 159.403 69.6562 158.875 69.6562C158.842 69.6562 158.809 69.6551 158.776 69.653ZM163.638 69.6137C163.623 69.6704 163.615 69.73 163.615 69.7916C163.615 70.1656 163.918 70.4687 164.292 70.4687C164.666 70.4687 164.969 70.1656 164.969 69.7916C164.969 69.4177 164.666 69.1146 164.292 69.1146C163.991 69.1146 163.737 69.3099 163.648 69.5804C163.647 69.5861 163.645 69.5917 163.643 69.5973C163.642 69.6028 163.64 69.6083 163.638 69.6137ZM164.769 76.1593C164.459 76.1886 164.21 76.4267 164.164 76.7314C164.163 76.7374 164.163 76.7435 164.162 76.7496C164.161 76.7554 164.16 76.7612 164.159 76.767C164.157 76.7888 164.156 76.8109 164.156 76.8333C164.156 77.2073 164.459 77.5104 164.833 77.5104C165.207 77.5104 165.51 77.2073 165.51 76.8333C165.51 76.4594 165.207 76.1562 164.833 76.1562C164.82 76.1562 164.807 76.1566 164.794 76.1573C164.79 76.1578 164.786 76.1581 164.782 76.1585C164.778 76.1588 164.773 76.1591 164.769 76.1593ZM156.167 75.0729C155.793 75.0729 155.49 75.376 155.49 75.75C155.49 76.1239 155.793 76.4271 156.167 76.4271C156.541 76.4271 156.844 76.1239 156.844 75.75C156.844 75.376 156.541 75.0729 156.167 75.0729Z" fill="#2BB9CA"/>
<path d="M85.3787 96.8787L80.3787 91.8787C79.8161 91.3161 79.053 91 78.2574 91H96.7426C95.947 91 95.1839 91.3161 94.6213 91.8787L89.6213 96.8787C88.4497 98.0503 86.5503 98.0503 85.3787 96.8787Z" fill="white"/>
<g clip-path="url(#clip0_303_35827)">
<path fill-rule="evenodd" clip-rule="evenodd" d="M96.2257 129.265C95.8248 128.759 95.3377 127.722 94.4709 126.465C93.9796 125.753 92.7612 124.413 92.3984 123.733C92.0836 123.131 92.1175 122.862 92.1923 122.363C92.325 121.477 93.2342 120.786 94.204 120.88C94.9368 120.949 95.5579 121.433 96.117 121.89C96.4544 122.166 96.8695 122.701 97.1193 123.003C97.3495 123.28 97.4059 123.394 97.6516 123.721C97.9763 124.155 98.0779 124.369 97.9537 123.892C97.8535 123.192 97.6897 121.996 97.4525 120.939C97.2718 120.137 97.228 120.011 97.0558 119.396C96.8737 118.741 96.7805 118.282 96.6097 117.587C96.4911 117.096 96.2779 116.092 96.22 115.528C96.1396 114.755 96.0972 113.496 96.5928 112.917C96.981 112.464 97.8718 112.327 98.4238 112.607C99.1466 112.972 99.5575 114.023 99.7452 114.442C100.083 115.196 100.292 116.067 100.474 117.21C100.705 118.666 101.132 120.686 101.146 121.111C101.18 120.59 101.05 119.493 101.14 118.993C101.222 118.54 101.603 118.014 102.08 117.871C102.484 117.751 102.957 117.707 103.373 117.793C103.815 117.884 104.281 118.2 104.455 118.498C104.966 119.379 104.976 121.179 104.997 121.083C105.118 120.552 105.097 119.348 105.398 118.847C105.596 118.516 106.1 118.218 106.368 118.17C106.783 118.097 107.293 118.074 107.729 118.159C108.08 118.228 108.556 118.646 108.685 118.847C108.992 119.332 109.167 120.706 109.22 121.187C109.241 121.386 109.324 120.634 109.633 120.148C110.206 119.246 112.235 119.071 112.313 121.05C112.348 121.974 112.341 121.931 112.341 122.553C112.341 123.282 112.324 123.721 112.285 124.249C112.241 124.814 112.119 126.09 111.943 126.709C111.821 127.134 111.419 128.089 111.022 128.663C111.022 128.663 109.506 130.427 109.341 131.222C109.174 132.016 109.229 132.021 109.197 132.585C109.165 133.146 109.368 133.886 109.368 133.886C109.368 133.886 108.236 134.033 107.626 133.936C107.074 133.847 106.39 132.748 106.214 132.412C105.971 131.949 105.453 132.038 105.251 132.38C104.933 132.921 104.25 133.89 103.767 133.951C102.824 134.07 100.868 133.995 99.3358 133.979C99.3358 133.979 99.597 132.552 99.0153 132.062C98.5848 131.697 97.8436 130.955 97.4003 130.566L96.2257 129.265Z" fill="white"/>
<path fill-rule="evenodd" clip-rule="evenodd" d="M96.2257 129.265C95.8248 128.759 95.3377 127.722 94.4709 126.465C93.9796 125.753 92.7612 124.413 92.3984 123.733C92.0836 123.131 92.1175 122.862 92.1923 122.363C92.325 121.477 93.2342 120.786 94.204 120.88C94.9368 120.949 95.5579 121.433 96.117 121.89C96.4544 122.166 96.8695 122.701 97.1193 123.003C97.3495 123.28 97.4059 123.394 97.6516 123.721C97.9763 124.155 98.0779 124.369 97.9537 123.892C97.8535 123.192 97.6897 121.996 97.4525 120.939C97.2718 120.137 97.228 120.011 97.0558 119.396C96.8737 118.741 96.7805 118.282 96.6097 117.587C96.4911 117.096 96.2779 116.092 96.22 115.528C96.1396 114.755 96.0972 113.496 96.5928 112.917C96.981 112.464 97.8718 112.327 98.4238 112.607C99.1466 112.972 99.5575 114.023 99.7452 114.442C100.083 115.196 100.292 116.067 100.474 117.21C100.705 118.666 101.132 120.686 101.146 121.111C101.18 120.59 101.05 119.493 101.14 118.993C101.222 118.54 101.603 118.014 102.08 117.871C102.484 117.751 102.957 117.707 103.373 117.793C103.815 117.884 104.281 118.2 104.455 118.498C104.966 119.379 104.976 121.179 104.997 121.083C105.118 120.552 105.097 119.348 105.398 118.847C105.596 118.516 106.1 118.218 106.368 118.17C106.783 118.097 107.293 118.074 107.729 118.159C108.08 118.228 108.556 118.646 108.685 118.847C108.992 119.332 109.167 120.706 109.22 121.187C109.241 121.386 109.324 120.634 109.633 120.148C110.206 119.246 112.235 119.071 112.313 121.05C112.348 121.974 112.341 121.931 112.341 122.553C112.341 123.282 112.324 123.721 112.285 124.249C112.241 124.814 112.119 126.09 111.943 126.709C111.821 127.134 111.419 128.089 111.022 128.663C111.022 128.663 109.506 130.427 109.341 131.222C109.174 132.016 109.229 132.021 109.197 132.585C109.165 133.146 109.368 133.886 109.368 133.886C109.368 133.886 108.236 134.033 107.626 133.936C107.074 133.847 106.39 132.748 106.214 132.412C105.971 131.949 105.453 132.038 105.251 132.38C104.933 132.921 104.25 133.89 103.767 133.951C102.824 134.07 100.868 133.995 99.3358 133.979C99.3358 133.979 99.597 132.552 99.0153 132.062C98.5848 131.697 97.8436 130.955 97.4003 130.566L96.2257 129.265Z" stroke="black" stroke-width="0.75" stroke-linecap="round" stroke-linejoin="round"/>
<path d="M107.851 129.767V124.884" stroke="black" stroke-width="0.75" stroke-linecap="round"/>
<path d="M105.006 129.783L104.983 124.88" stroke="black" stroke-width="0.75" stroke-linecap="round"/>
<path d="M102.188 124.923L102.218 129.76" stroke="black" stroke-width="0.75" stroke-linecap="round"/>
</g>
<defs>
<clipPath id="clip0_303_35827">
<rect width="22.5882" height="24" fill="white" transform="translate(91.5225 111.786)"/>
</clipPath>
</defs>
</svg>
