<svg width="353" height="375" viewBox="0 0 353 375" fill="none" xmlns="http://www.w3.org/2000/svg">
<path d="M344.261 24.0344L273.95 0.597638C271.513 -0.199213 268.958 -0.199213 266.544 0.597638L196.234 24.0344C193.899 24.8137 191.868 26.3083 190.429 28.3064C188.99 30.3045 188.217 32.7047 188.219 35.1669V339.845C188.219 344.884 191.453 349.36 196.234 350.977L266.544 374.414C267.763 374.789 268.982 375 270.247 375C271.513 375 272.732 374.789 273.95 374.414L344.261 350.977C349.042 349.36 352.276 344.884 352.276 339.845V35.1669C352.278 32.7047 351.505 30.3045 350.066 28.3064C348.627 26.3083 346.596 24.8137 344.261 24.0344ZM258.529 347.016L211.656 331.408V51.4085L258.529 67.0409V347.016ZM156.767 188.092L86.4563 164.655C84.0519 163.858 81.4547 163.858 79.0503 164.655L8.73999 188.092C6.40444 188.871 4.37341 190.366 2.93478 192.364C1.49615 194.362 0.72289 196.762 0.724612 199.224V339.845C0.724612 344.884 3.95889 349.36 8.73999 350.977L79.0503 374.414C80.2456 374.789 81.5111 375 82.7533 375C83.9954 375 85.261 374.789 86.4563 374.414L156.767 350.977C161.548 349.36 164.782 344.884 164.782 339.845V199.224C164.784 196.762 164.01 194.362 162.572 192.364C161.133 190.366 159.102 188.871 156.767 188.092ZM71.0349 346.993L24.1614 331.408V215.466L71.0349 231.098V346.993Z" fill="url(#paint0_linear_303_29222)"/>
<defs>
<linearGradient id="paint0_linear_303_29222" x1="176.5" y1="-20.7324" x2="176.5" y2="375" gradientUnits="userSpaceOnUse">
<stop stop-color="white" stop-opacity="0.1"/>
<stop offset="1" stop-color="white" stop-opacity="0"/>
</linearGradient>
</defs>
</svg>
