<svg width="403" height="377" viewBox="0 0 403 377" fill="none" xmlns="http://www.w3.org/2000/svg">
<path d="M389.567 349.7H376.133V13.8667C376.133 6.45148 370.115 0.43335 362.7 0.43335H308.967C301.551 0.43335 295.533 6.45148 295.533 13.8667V349.7H241.8V121.333C241.8 113.918 235.782 107.9 228.367 107.9H174.633C167.218 107.9 161.2 113.918 161.2 121.333V349.7H107.467V228.8C107.467 221.385 101.449 215.367 94.0333 215.367H40.3C32.8848 215.367 26.8667 221.385 26.8667 228.8V349.7H13.4333C6.01813 349.7 0 355.718 0 363.133C0 370.549 6.01813 376.567 13.4333 376.567H389.567C396.982 376.567 403 370.549 403 363.133C403 355.718 396.982 349.7 389.567 349.7Z" fill="url(#paint0_linear_303_29219)"/>
<defs>
<linearGradient id="paint0_linear_303_29219" x1="201.5" y1="-20.3617" x2="201.5" y2="376.567" gradientUnits="userSpaceOnUse">
<stop stop-color="white" stop-opacity="0.1"/>
<stop offset="1" stop-color="white" stop-opacity="0"/>
</linearGradient>
</defs>
</svg>
