<svg width="24" height="24" viewBox="0 0 24 24" fill="none" xmlns="http://www.w3.org/2000/svg">
<path d="M3.2504 11.9997C3.2504 12.3733 3.41605 12.7198 3.57292 12.9801C3.74219 13.2609 3.96984 13.5508 4.21958 13.8335C4.72057 14.4005 5.37426 15.0095 6.00863 15.5604C6.64672 16.1145 7.28262 16.6247 7.75765 16.9955C7.99556 17.1812 8.19403 17.3326 8.33344 17.4379C8.40316 17.4906 8.45815 17.5318 8.49598 17.56L8.53955 17.5924L8.55111 17.6009L8.55512 17.6039C8.88862 17.8495 9.35855 17.7786 9.60422 17.4451C9.84987 17.1116 9.77868 16.6422 9.44521 16.3965L9.43248 16.3871L9.39243 16.3573C9.35702 16.3309 9.30459 16.2917 9.2376 16.2411C9.10357 16.1398 8.91142 15.9932 8.68059 15.813C8.21812 15.4521 7.60403 14.9592 6.99213 14.4278C6.37651 13.8932 5.78021 13.3344 5.34371 12.8403C5.3161 12.8091 5.28938 12.7784 5.26356 12.7482L20.0004 12.7482C20.4146 12.7482 20.7504 12.4124 20.7504 11.9982C20.7504 11.584 20.4146 11.2482 20.0004 11.2482L5.2661 11.2482C5.29113 11.219 5.317 11.1893 5.34371 11.1591C5.78021 10.665 6.37651 10.1062 6.99213 9.57157C7.60403 9.04021 8.21812 8.54732 8.68058 8.18635C8.91142 8.00617 9.10356 7.85958 9.23759 7.75833C9.30459 7.70772 9.35701 7.66847 9.39243 7.64207L9.43248 7.6123L9.44521 7.60289C9.77867 7.35722 9.84986 6.88774 9.60421 6.55425C9.35855 6.22075 8.88862 6.14986 8.55512 6.39552L8.55111 6.39848L8.53954 6.40704L8.49598 6.43942C8.45815 6.46762 8.40316 6.50879 8.33343 6.56146C8.19403 6.66677 7.99555 6.81821 7.75764 7.0039C7.28262 7.37468 6.64672 7.88489 6.00863 8.43899C5.37426 8.98986 4.72057 9.59884 4.21958 10.1659C3.96984 10.4486 3.74219 10.7385 3.57292 11.0193C3.41699 11.278 3.25239 11.622 3.25041 11.993" fill="white"/>
</svg>
