<svg width="25" height="24" viewBox="0 0 25 24" fill="none" xmlns="http://www.w3.org/2000/svg">
<path d="M3.27679 11.9997C3.2768 12.3732 3.44245 12.7198 3.59931 12.98C3.76859 13.2609 3.99624 13.5508 4.24598 13.8335C4.74697 14.4005 5.40066 15.0095 6.03503 15.5604C6.67312 16.1145 7.30902 16.6247 7.78404 16.9955C8.02195 17.1812 8.22043 17.3326 8.35984 17.4379C8.42956 17.4906 8.48455 17.5318 8.52238 17.56L8.56594 17.5923L8.5775 17.6009L8.58151 17.6039C8.91502 17.8495 9.38495 17.7786 9.63061 17.4451C9.87626 17.1116 9.80507 16.6422 9.47161 16.3965L9.45888 16.3871L9.41883 16.3573C9.38341 16.3309 9.33099 16.2917 9.26399 16.241C9.12996 16.1398 8.93782 15.9932 8.70698 15.813C8.24452 15.4521 7.63043 14.9592 7.01853 14.4278C6.40291 13.8932 5.80661 13.3344 5.37011 12.8403C5.3425 12.8091 5.31578 12.7784 5.28996 12.7482L20.0268 12.7482C20.441 12.7482 20.7768 12.4124 20.7768 11.9982C20.7768 11.584 20.441 11.2482 20.0268 11.2482L5.29249 11.2482C5.31753 11.219 5.3434 11.1893 5.37011 11.159C5.80661 10.665 6.40291 10.1061 7.01853 9.57156C7.63042 9.0402 8.24452 8.54731 8.70698 8.18634C8.93782 8.00616 9.12996 7.85957 9.26399 7.75831C9.33099 7.7077 9.38341 7.66846 9.41883 7.64206L9.45888 7.61229L9.47161 7.60288C9.80507 7.35721 9.87626 6.88773 9.63061 6.55424C9.38495 6.22074 8.91502 6.14985 8.58151 6.39551L8.5775 6.39847L8.56594 6.40702L8.52238 6.43941C8.48455 6.4676 8.42955 6.50878 8.35983 6.56145C8.22043 6.66676 8.02195 6.81819 7.78404 7.00389C7.30902 7.37466 6.67312 7.88488 6.03503 8.43898C5.40066 8.98985 4.74697 9.59883 4.24598 10.1659C3.99624 10.4486 3.76859 10.7385 3.59931 11.0193C3.44339 11.278 3.27879 11.622 3.27681 11.993" fill="white"/>
</svg>
