<svg width="14" height="14" viewBox="0 0 14 14" fill="none" xmlns="http://www.w3.org/2000/svg">
<path d="M4.66659 7.00002C4.34442 7.00002 4.08325 7.26119 4.08325 7.58335C4.08325 7.90552 4.34442 8.16669 4.66659 8.16669H4.67182C4.99399 8.16669 5.25515 7.90552 5.25515 7.58335C5.25515 7.26119 4.99399 7.00002 4.67182 7.00002H4.66659Z" fill="#2BB9CA"/>
<path d="M6.9973 7.00002C6.67514 7.00002 6.41397 7.26119 6.41397 7.58335C6.41397 7.90552 6.67514 8.16669 6.9973 8.16669H7.00254C7.3247 8.16669 7.58587 7.90552 7.58587 7.58335C7.58587 7.26119 7.3247 7.00002 7.00254 7.00002H6.9973Z" fill="#2BB9CA"/>
<path d="M9.32802 7.00002C9.00585 7.00002 8.74468 7.26119 8.74468 7.58335C8.74468 7.90552 9.00585 8.16669 9.32802 8.16669H9.33325C9.65542 8.16669 9.91658 7.90552 9.91658 7.58335C9.91658 7.26119 9.65542 7.00002 9.33325 7.00002H9.32802Z" fill="#2BB9CA"/>
<path d="M4.66659 9.33335C4.34442 9.33335 4.08325 9.59452 4.08325 9.91669C4.08325 10.2389 4.34442 10.5 4.66659 10.5H4.67182C4.99399 10.5 5.25515 10.2389 5.25515 9.91669C5.25515 9.59452 4.99399 9.33335 4.67182 9.33335H4.66659Z" fill="#2BB9CA"/>
<path d="M6.9973 9.33335C6.67514 9.33335 6.41397 9.59452 6.41397 9.91669C6.41397 10.2389 6.67514 10.5 6.9973 10.5H7.00254C7.3247 10.5 7.58587 10.2389 7.58587 9.91669C7.58587 9.59452 7.3247 9.33335 7.00254 9.33335H6.9973Z" fill="#2BB9CA"/>
<path fill-rule="evenodd" clip-rule="evenodd" d="M3.93742 1.16669C3.93742 0.925062 3.74154 0.729187 3.49992 0.729187C3.25829 0.729187 3.06242 0.925062 3.06242 1.16669V1.53698C2.59298 1.67003 2.19704 1.88629 1.86749 2.24256C1.41371 2.73314 1.212 3.35298 1.1154 4.12973C1.02074 4.89086 1.02075 5.86629 1.02075 7.11087V7.4725C1.02075 8.71708 1.02074 9.69251 1.1154 10.4536C1.212 11.2304 1.41371 11.8502 1.86749 12.3408C2.32575 12.8362 2.91236 13.0609 3.6465 13.1676C4.35702 13.2709 5.26482 13.2709 6.41031 13.2709H7.58953C8.73502 13.2709 9.64282 13.2709 10.3533 13.1676C11.0875 13.0609 11.6741 12.8362 12.1324 12.3408C12.5861 11.8502 12.7878 11.2304 12.8844 10.4536C12.9791 9.69251 12.9791 8.71707 12.9791 7.47248V7.11089C12.9791 5.8663 12.9791 4.89087 12.8844 4.12973C12.7878 3.35298 12.5861 2.73314 12.1324 2.24256C11.8028 1.88629 11.4069 1.67003 10.9374 1.53698V1.16669C10.9374 0.925062 10.7415 0.729187 10.4999 0.729187C10.2583 0.729187 10.0624 0.925062 10.0624 1.16669V1.38013C9.39972 1.3125 8.58424 1.31251 7.58953 1.31252H6.41031C5.4156 1.31251 4.60012 1.3125 3.93742 1.38013V1.16669ZM3.0791 2.45343C3.13129 2.63667 3.29993 2.77085 3.49992 2.77085C3.74154 2.77085 3.93742 2.57498 3.93742 2.33335V2.2602C4.55634 2.18843 5.3563 2.18752 6.44575 2.18752H7.55408C8.64353 2.18752 9.4435 2.18843 10.0624 2.2602V2.33335C10.0624 2.57498 10.2583 2.77085 10.4999 2.77085C10.6999 2.77085 10.8685 2.63667 10.9207 2.45343C11.1583 2.54797 11.3387 2.67318 11.49 2.83673C11.766 3.13508 11.9294 3.54428 12.0155 4.2329C11.9968 4.23045 11.9777 4.22919 11.9583 4.22919H2.04159C2.02217 4.22919 2.00305 4.23045 1.98431 4.2329C2.07047 3.54428 2.23385 3.13508 2.50982 2.83673C2.6611 2.67318 2.84151 2.54797 3.0791 2.45343ZM1.91916 5.08683C1.89608 5.64853 1.89575 6.32122 1.89575 7.14191V7.44146C1.89575 8.72381 1.89655 9.64481 1.98371 10.3457C2.06971 11.0372 2.2332 11.4476 2.50982 11.7466C2.78196 12.0408 3.14833 12.211 3.77236 12.3017C4.41269 12.3948 5.25685 12.3959 6.44575 12.3959H7.55408C8.74299 12.3959 9.58714 12.3948 10.2275 12.3017C10.8515 12.211 11.2179 12.0408 11.49 11.7466C11.7666 11.4476 11.9301 11.0372 12.0161 10.3457C12.1033 9.64481 12.1041 8.72381 12.1041 7.44146V7.14191C12.1041 6.32122 12.1038 5.64853 12.0807 5.08683C12.0418 5.09813 12.0007 5.10419 11.9583 5.10419H2.04159C1.99909 5.10419 1.95801 5.09813 1.91916 5.08683Z" fill="#2BB9CA"/>
</svg>
