<svg width="14" height="14" viewBox="0 0 14 14" fill="none" xmlns="http://www.w3.org/2000/svg">
<path d="M2.18744 1.75C2.18744 1.50838 1.99156 1.3125 1.74994 1.3125C1.50832 1.3125 1.31244 1.50838 1.31244 1.75V8.19919C1.31243 9.13403 1.31242 9.88009 1.39109 10.4652C1.47236 11.0697 1.64474 11.5675 2.03857 11.9614C2.4324 12.3552 2.93023 12.5276 3.53471 12.6088C4.11985 12.6875 4.86591 12.6875 5.80076 12.6875H12.2499C12.4916 12.6875 12.6874 12.4916 12.6874 12.25C12.6874 12.0084 12.4916 11.8125 12.2499 11.8125H5.83327C4.85845 11.8125 4.17135 11.8116 3.65131 11.7417C3.5428 11.7271 3.44459 11.7098 3.35523 11.6897C3.48405 10.7954 3.86263 9.2163 4.40066 7.86054C4.674 7.17176 4.97881 6.56572 5.29747 6.13976C5.63164 5.69309 5.90028 5.55001 6.08306 5.55001C6.19318 5.55001 6.31206 5.60034 6.46827 5.76574C6.63114 5.93817 6.78139 6.1785 6.96049 6.47037L6.97674 6.49686C7.13978 6.76269 7.33057 7.07378 7.55611 7.31594C7.79528 7.57275 8.12474 7.80809 8.56704 7.80809C9.274 7.80809 9.72239 7.31812 10.0184 6.80078C10.2961 6.31539 10.5076 5.68915 10.7039 5.10807L10.743 4.99229C10.9598 4.35207 11.1646 3.7739 11.429 3.35321C11.6879 2.94119 11.9446 2.77083 12.25 2.77083C12.4916 2.77083 12.6875 2.57496 12.6875 2.33333C12.6875 2.09171 12.4916 1.89583 12.25 1.89583C11.5135 1.89583 11.0228 2.35514 10.6881 2.8876C10.3589 3.41139 10.1239 4.09254 9.91424 4.71163L9.88643 4.79378C9.67877 5.40753 9.49261 5.95772 9.25888 6.36626C9.01451 6.79341 8.79534 6.93309 8.56704 6.93309C8.46572 6.93309 8.35156 6.88617 8.19642 6.71959C8.03516 6.54645 7.88611 6.3058 7.70627 6.01273L7.69813 5.99946C7.53256 5.72961 7.33759 5.41183 7.1044 5.16493C6.86073 4.90694 6.52766 4.67501 6.08306 4.67501C5.46324 4.67501 4.96682 5.12106 4.59684 5.61561C4.21136 6.13088 3.87294 6.81816 3.58736 7.53778C3.08735 8.79773 2.71961 10.2337 2.54614 11.2126C2.40578 11.0193 2.31315 10.7567 2.25829 10.3486C2.18837 9.82859 2.18744 9.14149 2.18744 8.16667V1.75Z" fill="#61D0DD"/>
</svg>
