<svg width="25" height="18" viewBox="0 0 25 18" fill="none" xmlns="http://www.w3.org/2000/svg">
<path d="M9.5625 17.1698C9.5625 16.3239 8.88577 15.901 5.33295 14.6744C1.99161 13.4901 0.468969 13.2787 0.0460148 13.9554C-0.292349 14.5052 1.23029 15.3934 4.61393 16.7046C7.78609 17.8889 9.5625 18.0581 9.5625 17.1698Z" fill="#61D0DD"/>
<path d="M15.4843 12.1787C15.4843 9.51409 12.1007 3.8042 10.5357 3.8042C9.68983 3.8042 9.85901 4.777 11.5085 8.87966C12.9043 12.3902 13.7925 13.5322 15.0191 13.5322C15.2728 13.5322 15.4843 12.8977 15.4843 12.1787Z" fill="#61D0DD"/>
<path d="M24.6624 11.1637C25.0853 10.064 24.1971 0.928223 23.5627 0.293791C22.5476 -0.721301 22.2092 0.885928 22.5053 5.24236C22.6322 7.52632 22.886 9.89487 23.0552 10.487C23.4358 11.7982 24.2817 12.1788 24.6624 11.1637Z" fill="#61D0DD"/>
</svg>
