<svg width="18" height="15" viewBox="0 0 18 15" fill="none" xmlns="http://www.w3.org/2000/svg">
<path d="M13.455 11.955C12.1729 12.9323 10.6118 13.4737 9 13.5C3.75 13.5 0.75 7.50002 0.75 7.50002C1.68292 5.76144 2.97685 4.24247 4.545 3.04502M7.425 1.68002C7.94125 1.55918 8.4698 1.49877 9 1.50002C14.25 1.50002 17.25 7.50002 17.25 7.50002C16.7947 8.35172 16.2518 9.15357 15.63 9.89252M10.59 9.09002C10.384 9.31108 10.1356 9.48838 9.85962 9.61136C9.58362 9.73434 9.28568 9.80046 8.98357 9.80579C8.68146 9.81112 8.38137 9.75555 8.10121 9.64239C7.82104 9.52922 7.56654 9.36079 7.35289 9.14713C7.13923 8.93348 6.9708 8.67897 6.85763 8.39881C6.74447 8.11865 6.6889 7.81856 6.69423 7.51645C6.69956 7.21434 6.76568 6.9164 6.88866 6.6404C7.01163 6.36441 7.18894 6.116 7.41 5.91002" stroke="#EBF9FB" stroke-width="1.5" stroke-linecap="round" stroke-linejoin="round"/>
</svg>
