<svg width="20" height="20" viewBox="0 0 20 20" fill="none" xmlns="http://www.w3.org/2000/svg">
<path fill-rule="evenodd" clip-rule="evenodd" d="M10.0001 5.62496C8.04409 5.62496 6.45844 7.21062 6.45844 9.16663C6.45844 11.1226 8.04409 12.7083 10.0001 12.7083C11.9561 12.7083 13.5418 11.1226 13.5418 9.16663C13.5418 7.21062 11.9561 5.62496 10.0001 5.62496ZM7.70844 9.16663C7.70844 7.90097 8.73445 6.87496 10.0001 6.87496C11.2658 6.87496 12.2918 7.90097 12.2918 9.16663C12.2918 10.4323 11.2658 11.4583 10.0001 11.4583C8.73445 11.4583 7.70844 10.4323 7.70844 9.16663Z" fill="white"/>
<path fill-rule="evenodd" clip-rule="evenodd" d="M10.001 1.04163C6.81251 1.04163 3.77057 2.92748 2.49731 5.90386C1.31234 8.67383 1.95383 11.0311 3.28946 13.0496C4.3845 14.7045 5.98165 16.1815 7.42255 17.514C7.69727 17.768 7.96644 18.0169 8.22524 18.2607L8.22662 18.262C8.70581 18.7107 9.34232 18.9583 10.001 18.9583C10.6596 18.9583 11.2961 18.7107 11.7753 18.262C12.0199 18.0329 12.2735 17.7993 12.5322 17.561C13.9888 16.2189 15.6084 14.7267 16.7149 13.0507C18.0489 11.0301 18.6881 8.6704 17.5046 5.90386C16.2314 2.92748 13.1894 1.04163 10.001 1.04163ZM3.64656 6.3955C4.71225 3.90436 7.28482 2.29163 10.001 2.29163C12.7171 2.29163 15.2897 3.90436 16.3554 6.3955C17.3321 8.67863 16.8392 10.5936 15.6717 12.362C14.6571 13.8988 13.1708 15.2701 11.7098 16.6182C11.445 16.8624 11.1811 17.1059 10.921 17.3495C10.6774 17.5776 10.3478 17.7083 10.001 17.7083C9.65444 17.7083 9.32507 17.5778 9.0815 17.35C8.80445 17.0891 8.52304 16.8285 8.24086 16.5672C6.79846 15.2314 5.33572 13.8768 4.33191 12.3598C3.16327 10.5936 2.66861 8.68158 3.64656 6.3955Z" fill="white"/>
</svg>
