<svg width="20" height="20" viewBox="0 0 20 20" fill="none" xmlns="http://www.w3.org/2000/svg">
<path fill-rule="evenodd" clip-rule="evenodd" d="M4.99999 1.04163C5.34517 1.04163 5.62499 1.32145 5.62499 1.66663V1.97154C6.57171 1.87493 7.73668 1.87495 9.1577 1.87496H10.8423C12.2633 1.87495 13.4283 1.87493 14.375 1.97154V1.66663C14.375 1.32145 14.6548 1.04163 15 1.04163C15.3452 1.04163 15.625 1.32145 15.625 1.66663V2.19562C16.2956 2.38569 16.8612 2.69462 17.332 3.20359C17.9803 3.90441 18.2685 4.78989 18.4065 5.89955C18.5417 6.98688 18.5417 8.38036 18.5417 10.1583V10.6749C18.5417 12.4529 18.5417 13.8464 18.4065 14.9337C18.2685 16.0434 17.9803 16.9288 17.332 17.6297C16.6774 18.3374 15.8394 18.6584 14.7906 18.8108C13.7756 18.9583 12.4787 18.9583 10.8423 18.9583H9.1577C7.52128 18.9583 6.22443 18.9583 5.2094 18.8108C4.16063 18.6584 3.32261 18.3374 2.66795 17.6297C2.01969 16.9288 1.73154 16.0434 1.59354 14.9337C1.45831 13.8464 1.45832 12.4529 1.45833 10.6749V10.1583C1.45832 8.38035 1.45831 6.98688 1.59354 5.89955C1.73154 4.78989 2.01969 3.90441 2.66795 3.20359C3.13875 2.69462 3.70436 2.38569 4.37499 2.19562V1.66663C4.37499 1.32145 4.65482 1.04163 4.99999 1.04163ZM4.99999 3.95829C4.7143 3.95829 4.47338 3.76661 4.39883 3.50483C4.0594 3.63988 3.80169 3.81876 3.58557 4.0524C3.19203 4.47785 2.95876 5.06109 2.8355 6.04163H17.1645C17.0412 5.06109 16.808 4.47785 16.4144 4.0524C16.1983 3.81876 15.9406 3.63989 15.6012 3.50483C15.5266 3.76661 15.2857 3.95829 15 3.95829C14.6548 3.95829 14.375 3.67847 14.375 3.33329V3.22878C13.4908 3.12626 12.348 3.12496 10.7917 3.12496H9.20833C7.65197 3.12496 6.50917 3.12626 5.62499 3.22878V3.33329C5.62499 3.67847 5.34517 3.95829 4.99999 3.95829ZM17.2592 7.29163H2.74076C2.70879 8.08903 2.70833 9.0423 2.70833 10.2027V10.6306C2.70833 12.4625 2.70947 13.7782 2.83398 14.7794C2.95684 15.7673 3.1904 16.3536 3.58557 16.7809C3.97434 17.2011 4.49773 17.4442 5.38919 17.5738C6.30396 17.7067 7.50989 17.7083 9.20833 17.7083H10.7917C12.4901 17.7083 13.696 17.7067 14.6108 17.5738C15.5023 17.4442 16.0257 17.2011 16.4144 16.7809C16.8096 16.3536 17.0431 15.7673 17.166 14.7794C17.2905 13.7782 17.2917 12.4625 17.2917 10.6306V10.2027C17.2917 9.0423 17.2912 8.08903 17.2592 7.29163Z" fill="white"/>
</svg>
