<svg width="20" height="20" viewBox="0 0 20 20" fill="none" xmlns="http://www.w3.org/2000/svg">
<path fill-rule="evenodd" clip-rule="evenodd" d="M10.6319 5.83258C10.6319 5.4874 10.3521 5.20758 10.0069 5.20758C9.66173 5.20758 9.38191 5.4874 9.38191 5.83258V8.23857C8.65366 8.49597 8.13191 9.19049 8.13191 10.0069C8.13191 11.0424 8.97137 11.8819 10.0069 11.8819C10.2953 11.8819 10.5685 11.8168 10.8126 11.7004L12.0707 12.9585C12.3148 13.2026 12.7105 13.2026 12.9546 12.9585C13.1987 12.7144 13.1987 12.3187 12.9546 12.0746L11.6979 10.8179C11.8158 10.5725 11.8819 10.2974 11.8819 10.0069C11.8819 9.19049 11.3602 8.49597 10.6319 8.23857V5.83258ZM10.6319 10.0069C10.6319 10.1801 10.5614 10.3368 10.4476 10.45C10.3346 10.5624 10.1789 10.6319 10.0069 10.6319C9.66173 10.6319 9.38191 10.3521 9.38191 10.0069C9.38191 9.6617 9.66173 9.38188 10.0069 9.38188C10.3521 9.38188 10.6319 9.6617 10.6319 10.0069Z" fill="white"/>
<path fill-rule="evenodd" clip-rule="evenodd" d="M9.99999 1.04163C5.05244 1.04163 1.04166 5.05241 1.04166 9.99996C1.04166 14.9475 5.05244 18.9583 9.99999 18.9583C14.9475 18.9583 18.9583 14.9475 18.9583 9.99996C18.9583 5.05241 14.9475 1.04163 9.99999 1.04163ZM2.29166 9.99996C2.29166 5.74276 5.74279 2.29163 9.99999 2.29163C14.2572 2.29163 17.7083 5.74276 17.7083 9.99996C17.7083 14.2572 14.2572 17.7083 9.99999 17.7083C5.74279 17.7083 2.29166 14.2572 2.29166 9.99996Z" fill="white"/>
</svg>
