<svg width="28" height="28" viewBox="0 0 28 28" fill="none" xmlns="http://www.w3.org/2000/svg">
<path fill-rule="evenodd" clip-rule="evenodd" d="M23.1638 3.91325C19.686 1.77996 16.566 2.63017 14.6812 4.04561C14.3712 4.27847 14.1583 4.43783 13.9999 4.54545C13.8415 4.43783 13.6287 4.27847 13.3186 4.04561C11.4338 2.63017 8.31389 1.77996 4.83609 3.91325C2.43131 5.38834 1.07817 8.4696 1.55299 12.0099C2.03009 15.5672 4.33261 19.5906 9.20881 23.1998C9.24961 23.23 9.29007 23.26 9.33021 23.2897C11.0235 24.5438 12.1449 25.3743 13.9999 25.3743C15.855 25.3743 16.9764 24.5438 18.6697 23.2897C18.7098 23.26 18.7502 23.23 18.791 23.1998C23.6672 19.5906 25.9698 15.5672 26.4469 12.0099C26.9217 8.4696 25.5685 5.38834 23.1638 3.91325ZM14.1828 4.65821C14.1865 4.6599 14.1859 4.65935 14.1812 4.65746C14.1818 4.65774 14.1823 4.65799 14.1828 4.65821ZM13.8187 4.65746C13.814 4.65935 13.8133 4.6599 13.8171 4.65821C13.8175 4.65799 13.8181 4.65774 13.8187 4.65746ZM15.7321 5.44495C17.1281 4.39663 19.4694 3.7001 22.2487 5.40497C23.9499 6.44846 25.1143 8.78093 24.7124 11.7772C24.3128 14.7565 22.3445 18.3925 17.7499 21.7932C15.904 23.1594 15.2303 23.6243 13.9999 23.6243C12.7695 23.6243 12.0958 23.1594 10.2499 21.7932C5.65536 18.3925 3.68703 14.7565 3.28746 11.7772C2.8856 8.78093 4.04996 6.44846 5.75111 5.40497C8.53049 3.7001 10.8718 4.39663 12.2677 5.44495L12.2921 5.46324C12.6076 5.70017 12.8785 5.90368 13.0953 6.04559C13.208 6.11934 13.3327 6.19444 13.4622 6.25295C13.585 6.30847 13.7738 6.37793 13.9999 6.37793C14.2261 6.37793 14.4148 6.30847 14.5377 6.25295C14.6671 6.19445 14.7919 6.11934 14.9045 6.04559C15.1213 5.90368 15.3923 5.70017 15.7078 5.46324L15.7321 5.44495Z" fill="#7AD7E3"/>
<path opacity="0.5" fill-rule="evenodd" clip-rule="evenodd" d="M13.4349 9.62519C13.7487 9.63175 14.035 9.8059 14.1851 10.0816L16.1452 13.6815C16.4059 14.0977 16.4383 14.1265 16.4659 14.1477C16.5499 14.2122 16.6507 14.2526 16.8119 14.2742C16.9632 14.2944 17.1111 14.2935 17.322 14.2923C17.3767 14.292 17.4356 14.2917 17.4999 14.2917H18.6666C19.1499 14.2917 19.5416 14.6834 19.5416 15.1667C19.5416 15.6499 19.1499 16.0417 18.6666 16.0417H17.4999C17.459 16.0417 17.4133 16.0424 17.3633 16.0433C16.9042 16.0511 16.0893 16.065 15.4 15.5355C15.0888 15.2965 14.8872 14.9723 14.6927 14.6596C14.6776 14.6353 14.6625 14.6111 14.6474 14.5869C14.6381 14.5721 14.6293 14.557 14.621 14.5416L13.3798 12.2621L10.6669 16.7835C10.5154 17.0361 10.2469 17.1955 9.9526 17.2076C9.65829 17.2197 9.37764 17.0829 9.20585 16.8437L7.40832 14.3402C7.07079 13.9362 6.93906 13.8052 6.81566 13.7603C6.70777 13.721 6.56385 13.7083 5.83327 13.7083H3.49994C3.01669 13.7083 2.62494 13.3166 2.62494 12.8333C2.62494 12.3501 3.01669 11.9583 3.49994 11.9583H5.83327C5.87217 11.9583 5.91074 11.9583 5.94899 11.9582C6.49549 11.9575 6.97708 11.9568 7.41394 12.1157L7.41394 12.1157C8.02839 12.3392 8.45776 12.8613 8.71302 13.1716C8.73411 13.1972 8.75402 13.2214 8.77274 13.2439C8.78619 13.26 8.79905 13.2767 8.8113 13.2937L9.85108 14.7418L12.6663 10.0498C12.8278 9.78066 13.1211 9.61863 13.4349 9.62519Z" fill="#7AD7E3"/>
</svg>
