<svg width="29" height="28" viewBox="0 0 29 28" fill="none" xmlns="http://www.w3.org/2000/svg">
<g clip-path="url(#clip0_303_29652)">
<path d="M19.2838 2.25586C18.4677 2.06507 17.6324 1.96874 16.7943 1.96875C12.0108 1.96875 7.78216 5.07724 6.35498 9.64294M19.6278 6.66493C19.464 6.73625 19.2872 6.77298 19.1085 6.77283L17.3975 6.77283C16.3517 6.77283 15.496 7.62847 15.496 8.67437C15.496 9.72027 16.3519 10.576 17.3975 10.576C18.0384 10.576 18.5626 11.1002 18.5626 11.741C18.5626 12.3819 19.0869 12.9061 19.7277 12.9062L27.4583 12.9062" stroke="#71D0DB" stroke-width="1.3" stroke-miterlimit="2.6131" stroke-linecap="round" stroke-linejoin="round"/>
<path d="M15.1988 23.7268C15.727 23.8047 16.2603 23.8438 16.7943 23.8438C22.8349 23.8438 27.7318 18.9469 27.7318 12.9063C27.7318 10.5507 26.9713 8.25814 25.5636 6.36957M9.8173 21.3295C10.4739 21.8734 11.1919 22.3386 11.9566 22.7157" stroke="#71D0DB" stroke-width="1.3" stroke-miterlimit="2.6131" stroke-linecap="round" stroke-linejoin="round"/>
<path fill-rule="evenodd" clip-rule="evenodd" d="M22.4934 0.601562C20.5302 0.601562 18.9387 2.19302 18.9387 4.15625C18.9387 6.12478 21.2638 8.58998 22.4934 10.0004C23.723 8.58998 26.0481 6.12478 26.0481 4.15625C26.0481 2.19302 24.4565 0.601562 22.4934 0.601562Z" stroke="#71D0DB" stroke-width="1.3" stroke-miterlimit="22.9256" stroke-linecap="round" stroke-linejoin="round"/>
<path fill-rule="evenodd" clip-rule="evenodd" d="M22.4934 5.42575C23.1926 5.42575 23.7629 4.85547 23.7629 4.15623C23.7629 3.457 23.1926 2.88672 22.4934 2.88672C21.7941 2.88672 21.2239 3.457 21.2239 4.15623C21.2239 4.85547 21.7941 5.42575 22.4934 5.42575Z" stroke="#71D0DB" stroke-width="1.3" stroke-miterlimit="22.9256" stroke-linecap="round" stroke-linejoin="round"/>
<path d="M4.29118 18.2233H9.37707" stroke="#71D0DB" stroke-width="1.3" stroke-miterlimit="2.6131" stroke-linecap="round" stroke-linejoin="round"/>
<path fill-rule="evenodd" clip-rule="evenodd" d="M6.8341 13.222C7.78293 13.222 8.55676 12.4482 8.55676 11.4994C8.55676 10.5506 7.78293 9.77673 6.8341 9.77673C5.88527 9.77673 5.11144 10.5506 5.11144 11.4994C5.1115 12.4482 5.88533 13.222 6.8341 13.222Z" stroke="#71D0DB" stroke-width="1.3" stroke-miterlimit="22.9256" stroke-linecap="round" stroke-linejoin="round"/>
<path d="M6.8341 25.9902C6.8341 26.7648 6.20043 27.3984 5.42589 27.3984C4.65136 27.3984 4.01769 26.7648 4.01769 25.9902L4.01769 15.0258C2.79515 14.4333 1.78655 13.5028 1.09798 12.3102C0.760832 11.7236 0.963121 10.9746 1.54981 10.6375C2.13644 10.3004 2.88533 10.5027 3.22248 11.0894C3.97405 12.3912 5.34075 13.198 6.83404 13.2446C8.32734 13.198 9.69409 12.3912 10.4456 11.0894C10.7828 10.5027 11.5316 10.3005 12.1183 10.6375C12.705 10.9747 12.9073 11.7236 12.5701 12.3102C11.8815 13.5028 10.873 14.4334 9.6504 15.0258L9.6504 25.9902C9.6504 26.7648 9.01673 27.3984 8.24219 27.3984C7.46782 27.3984 6.8341 26.7648 6.8341 25.9902ZM6.8341 25.9902L6.8341 20.9576M13.4786 21.1094V19.6779M12.1114 21.3828H14.8458V27.3984H12.1114V21.3828Z" stroke="#71D0DB" stroke-width="1.3" stroke-miterlimit="2.6131" stroke-linecap="round" stroke-linejoin="round"/>
</g>
<defs>
<clipPath id="clip0_303_29652">
<rect width="28" height="28" fill="white" transform="translate(0.333344)"/>
</clipPath>
</defs>
</svg>
