<svg width="38" height="277" viewBox="0 0 38 277" fill="none" xmlns="http://www.w3.org/2000/svg">
<g opacity="0.51">
<path d="M13.7723 274.94L2.45959 259.837" stroke="#39C4D5" stroke-width="2" stroke-miterlimit="10" stroke-linecap="round" stroke-linejoin="round"/>
<path d="M13.7723 259.837L2.45959 274.94" stroke="#39C4D5" stroke-width="2" stroke-miterlimit="10" stroke-linecap="round" stroke-linejoin="round"/>
<path d="M6.97289 261.366C7.60586 262.211 8.63212 262.211 9.2651 261.366C9.89807 260.521 9.89807 259.151 9.26509 258.306C8.63212 257.461 7.60586 257.461 6.97289 258.306C6.33991 259.151 6.33991 260.521 6.97289 261.366Z" stroke="#39C4D5" stroke-width="2" stroke-miterlimit="10" stroke-linecap="round" stroke-linejoin="round"/>
<path d="M6.97679 276.47C7.60977 277.315 8.63603 277.315 9.269 276.47C9.90198 275.625 9.90198 274.255 9.269 273.41C8.63603 272.565 7.60977 272.565 6.97679 273.41C6.34382 274.255 6.34382 275.625 6.97679 276.47Z" stroke="#39C4D5" stroke-width="2" stroke-miterlimit="10" stroke-linecap="round" stroke-linejoin="round"/>
<path d="M1.31273 268.914C1.94571 269.759 2.97196 269.759 3.60494 268.914C4.23791 268.069 4.23791 266.699 3.60494 265.854C2.97196 265.009 1.9457 265.009 1.31273 265.854C0.679754 266.699 0.679755 268.069 1.31273 268.914Z" stroke="#39C4D5" stroke-width="2" stroke-miterlimit="10" stroke-linecap="round" stroke-linejoin="round"/>
<path d="M12.6291 268.914C13.2621 269.759 14.2884 269.759 14.9213 268.914C15.5543 268.069 15.5543 266.699 14.9213 265.854C14.2884 265.009 13.2621 265.009 12.6291 265.854C11.9962 266.699 11.9962 268.069 12.6291 268.914Z" stroke="#39C4D5" stroke-width="2" stroke-miterlimit="10" stroke-linecap="round" stroke-linejoin="round"/>
<path d="M13.7723 259.836L2.45959 244.733" stroke="#39C4D5" stroke-width="2" stroke-miterlimit="10" stroke-linecap="round" stroke-linejoin="round"/>
<path d="M13.7723 244.733L2.45959 259.836" stroke="#39C4D5" stroke-width="2" stroke-miterlimit="10" stroke-linecap="round" stroke-linejoin="round"/>
<path d="M6.97289 246.263C7.60586 247.108 8.63212 247.108 9.26509 246.263C9.89807 245.418 9.89807 244.048 9.26509 243.203C8.63212 242.358 7.60586 242.358 6.97289 243.203C6.33991 244.048 6.33991 245.418 6.97289 246.263Z" stroke="#39C4D5" stroke-width="2" stroke-miterlimit="10" stroke-linecap="round" stroke-linejoin="round"/>
<path d="M1.31664 253.807C1.94961 254.652 2.97587 254.652 3.60885 253.807C4.24182 252.962 4.24182 251.592 3.60885 250.747C2.97587 249.902 1.94961 249.902 1.31664 250.747C0.683661 251.592 0.683661 252.962 1.31664 253.807Z" stroke="#39C4D5" stroke-width="2" stroke-miterlimit="10" stroke-linecap="round" stroke-linejoin="round"/>
<path d="M12.6291 253.807C13.2621 254.652 14.2884 254.652 14.9213 253.807C15.5543 252.962 15.5543 251.592 14.9213 250.747C14.2884 249.902 13.2621 249.902 12.6291 250.747C11.9962 251.592 11.9962 252.962 12.6291 253.807Z" stroke="#39C4D5" stroke-width="2" stroke-miterlimit="10" stroke-linecap="round" stroke-linejoin="round"/>
<path d="M13.7723 244.733L2.45959 229.63" stroke="#39C4D5" stroke-width="2" stroke-miterlimit="10" stroke-linecap="round" stroke-linejoin="round"/>
<path d="M13.7723 229.63L2.45959 244.733" stroke="#39C4D5" stroke-width="2" stroke-miterlimit="10" stroke-linecap="round" stroke-linejoin="round"/>
<path d="M6.97289 231.159C7.60587 232.004 8.63212 232.004 9.2651 231.159C9.89808 230.314 9.89807 228.944 9.2651 228.099C8.63212 227.254 7.60586 227.254 6.97289 228.099C6.33991 228.944 6.33991 230.314 6.97289 231.159Z" stroke="#39C4D5" stroke-width="2" stroke-miterlimit="10" stroke-linecap="round" stroke-linejoin="round"/>
<path d="M1.31663 238.704C1.9496 239.549 2.97585 239.549 3.60882 238.704C4.24179 237.858 4.24179 236.488 3.60882 235.643C2.97585 234.798 1.9496 234.798 1.31663 235.643C0.683656 236.488 0.683658 237.858 1.31663 238.704Z" stroke="#39C4D5" stroke-width="2" stroke-miterlimit="10" stroke-linecap="round" stroke-linejoin="round"/>
<path d="M12.6291 238.703C13.2621 239.549 14.2883 239.549 14.9213 238.703C15.5543 237.858 15.5543 236.488 14.9213 235.643C14.2883 234.798 13.2621 234.798 12.6291 235.643C11.9962 236.488 11.9962 237.858 12.6291 238.703Z" stroke="#39C4D5" stroke-width="2" stroke-miterlimit="10" stroke-linecap="round" stroke-linejoin="round"/>
<path d="M13.7723 229.633L2.45959 214.524" stroke="#39C4D5" stroke-width="2" stroke-miterlimit="10" stroke-linecap="round" stroke-linejoin="round"/>
<path d="M13.7723 214.524L2.45959 229.633" stroke="#39C4D5" stroke-width="2" stroke-miterlimit="10" stroke-linecap="round" stroke-linejoin="round"/>
<path d="M6.97679 216.052C7.60977 216.897 8.63603 216.897 9.269 216.052C9.90198 215.207 9.90197 213.837 9.269 212.992C8.63602 212.147 7.60977 212.147 6.97679 212.992C6.34382 213.837 6.34382 215.207 6.97679 216.052Z" stroke="#39C4D5" stroke-width="2" stroke-miterlimit="10" stroke-linecap="round" stroke-linejoin="round"/>
<path d="M1.31272 223.6C1.94569 224.445 2.97194 224.445 3.60491 223.6C4.23788 222.755 4.23788 221.385 3.60491 220.54C2.97194 219.695 1.94569 219.695 1.31272 220.54C0.67975 221.385 0.679752 222.755 1.31272 223.6Z" stroke="#39C4D5" stroke-width="2" stroke-miterlimit="10" stroke-linecap="round" stroke-linejoin="round"/>
<path d="M12.6291 223.6C13.2621 224.445 14.2883 224.445 14.9213 223.6C15.5543 222.755 15.5543 221.385 14.9213 220.54C14.2883 219.695 13.2621 219.695 12.6291 220.54C11.9962 221.385 11.9962 222.755 12.6291 223.6Z" stroke="#39C4D5" stroke-width="2" stroke-miterlimit="10" stroke-linecap="round" stroke-linejoin="round"/>
<path d="M13.7723 214.518L2.45959 199.415" stroke="#39C4D5" stroke-width="2" stroke-miterlimit="10" stroke-linecap="round" stroke-linejoin="round"/>
<path d="M13.7723 199.415L2.45959 214.518" stroke="#39C4D5" stroke-width="2" stroke-miterlimit="10" stroke-linecap="round" stroke-linejoin="round"/>
<path d="M6.97289 200.948C7.60586 201.793 8.63212 201.793 9.26509 200.948C9.89807 200.103 9.89807 198.733 9.26509 197.888C8.63212 197.043 7.60586 197.043 6.97288 197.888C6.33991 198.733 6.33991 200.103 6.97289 200.948Z" stroke="#39C4D5" stroke-width="2" stroke-miterlimit="10" stroke-linecap="round" stroke-linejoin="round"/>
<path d="M1.31272 208.496C1.9457 209.341 2.97195 209.341 3.60492 208.496C4.23789 207.651 4.23789 206.281 3.60492 205.436C2.97195 204.591 1.94569 204.591 1.31272 205.436C0.679751 206.281 0.679752 207.651 1.31272 208.496Z" stroke="#39C4D5" stroke-width="2" stroke-miterlimit="10" stroke-linecap="round" stroke-linejoin="round"/>
<path d="M12.6291 208.5C13.2621 209.345 14.2883 209.345 14.9213 208.5C15.5543 207.655 15.5543 206.285 14.9213 205.44C14.2883 204.595 13.2621 204.595 12.6291 205.44C11.9962 206.285 11.9962 207.655 12.6291 208.5Z" stroke="#39C4D5" stroke-width="2" stroke-miterlimit="10" stroke-linecap="round" stroke-linejoin="round"/>
<path d="M13.7723 199.418L2.45959 184.315" stroke="#39C4D5" stroke-width="2" stroke-miterlimit="10" stroke-linecap="round" stroke-linejoin="round"/>
<path d="M13.7723 184.315L2.45959 199.418" stroke="#39C4D5" stroke-width="2" stroke-miterlimit="10" stroke-linecap="round" stroke-linejoin="round"/>
<path d="M6.97289 185.845C7.60587 186.69 8.63213 186.69 9.2651 185.845C9.89808 185 9.89808 183.63 9.2651 182.784C8.63213 181.939 7.60587 181.939 6.97289 182.784C6.33991 183.63 6.33991 185 6.97289 185.845Z" stroke="#39C4D5" stroke-width="2" stroke-miterlimit="10" stroke-linecap="round" stroke-linejoin="round"/>
<path d="M1.31663 193.392C1.9496 194.238 2.97585 194.238 3.60883 193.392C4.2418 192.547 4.2418 191.177 3.60882 190.332C2.97585 189.487 1.9496 189.487 1.31663 190.332C0.683657 191.177 0.683659 192.547 1.31663 193.392Z" stroke="#39C4D5" stroke-width="2" stroke-miterlimit="10" stroke-linecap="round" stroke-linejoin="round"/>
<path d="M12.6291 193.392C13.2621 194.238 14.2884 194.238 14.9213 193.392C15.5543 192.547 15.5543 191.177 14.9213 190.332C14.2884 189.487 13.2621 189.487 12.6291 190.332C11.9962 191.177 11.9962 192.547 12.6291 193.392Z" stroke="#39C4D5" stroke-width="2" stroke-miterlimit="10" stroke-linecap="round" stroke-linejoin="round"/>
<path d="M13.7723 184.315L2.45959 169.212" stroke="#39C4D5" stroke-width="2" stroke-miterlimit="10" stroke-linecap="round" stroke-linejoin="round"/>
<path d="M13.7723 169.212L2.45959 184.315" stroke="#39C4D5" stroke-width="2" stroke-miterlimit="10" stroke-linecap="round" stroke-linejoin="round"/>
<path d="M6.97289 170.745C7.60587 171.59 8.63213 171.59 9.2651 170.745C9.89808 169.9 9.89808 168.53 9.2651 167.685C8.63212 166.84 7.60586 166.84 6.97289 167.685C6.33991 168.53 6.33991 169.9 6.97289 170.745Z" stroke="#39C4D5" stroke-width="2" stroke-miterlimit="10" stroke-linecap="round" stroke-linejoin="round"/>
<path d="M1.31664 178.289C1.94962 179.134 2.97588 179.134 3.60885 178.289C4.24183 177.444 4.24183 176.074 3.60885 175.229C2.97587 174.384 1.94961 174.384 1.31664 175.229C0.683661 176.074 0.683663 177.444 1.31664 178.289Z" stroke="#39C4D5" stroke-width="2" stroke-miterlimit="10" stroke-linecap="round" stroke-linejoin="round"/>
<path d="M12.6291 178.289C13.2621 179.134 14.2884 179.134 14.9213 178.289C15.5543 177.444 15.5543 176.074 14.9213 175.229C14.2884 174.384 13.2621 174.384 12.6291 175.229C11.9962 176.074 11.9962 177.444 12.6291 178.289Z" stroke="#39C4D5" stroke-width="2" stroke-miterlimit="10" stroke-linecap="round" stroke-linejoin="round"/>
<path d="M13.7723 169.215L2.45959 154.105" stroke="#39C4D5" stroke-width="2" stroke-miterlimit="10" stroke-linecap="round" stroke-linejoin="round"/>
<path d="M13.7723 154.105L2.45959 169.215" stroke="#39C4D5" stroke-width="2" stroke-miterlimit="10" stroke-linecap="round" stroke-linejoin="round"/>
<path d="M6.9768 155.634C7.60978 156.479 8.63604 156.479 9.26902 155.634C9.902 154.789 9.902 153.419 9.26902 152.573C8.63604 151.728 7.60978 151.728 6.9768 152.573C6.34382 153.419 6.34382 154.789 6.9768 155.634Z" stroke="#39C4D5" stroke-width="2" stroke-miterlimit="10" stroke-linecap="round" stroke-linejoin="round"/>
<path d="M1.31273 163.182C1.94571 164.027 2.97197 164.027 3.60495 163.182C4.23792 162.337 4.23792 160.967 3.60495 160.121C2.97197 159.276 1.94571 159.276 1.31273 160.121C0.679756 160.967 0.679755 162.337 1.31273 163.182Z" stroke="#39C4D5" stroke-width="2" stroke-miterlimit="10" stroke-linecap="round" stroke-linejoin="round"/>
<path d="M12.6291 163.182C13.2621 164.027 14.2884 164.027 14.9213 163.182C15.5543 162.337 15.5543 160.966 14.9214 160.121C14.2884 159.276 13.2621 159.276 12.6291 160.121C11.9962 160.967 11.9962 162.337 12.6291 163.182Z" stroke="#39C4D5" stroke-width="2" stroke-miterlimit="10" stroke-linecap="round" stroke-linejoin="round"/>
<path d="M13.7723 154.104L2.45959 139.001" stroke="#39C4D5" stroke-width="2" stroke-miterlimit="10" stroke-linecap="round" stroke-linejoin="round"/>
<path d="M13.7723 139.001L2.45959 154.104" stroke="#39C4D5" stroke-width="2" stroke-miterlimit="10" stroke-linecap="round" stroke-linejoin="round"/>
<path d="M6.97289 140.53C7.60587 141.375 8.63213 141.375 9.26511 140.53C9.89809 139.685 9.89809 138.315 9.26511 137.47C8.63213 136.625 7.60587 136.625 6.97289 137.47C6.33991 138.315 6.33991 139.685 6.97289 140.53Z" stroke="#39C4D5" stroke-width="2" stroke-miterlimit="10" stroke-linecap="round" stroke-linejoin="round"/>
<path d="M1.31273 148.082C1.94571 148.927 2.97197 148.927 3.60494 148.082C4.23792 147.237 4.23792 145.867 3.60494 145.022C2.97197 144.177 1.94571 144.177 1.31273 145.022C0.679755 145.867 0.679756 147.237 1.31273 148.082Z" stroke="#39C4D5" stroke-width="2" stroke-miterlimit="10" stroke-linecap="round" stroke-linejoin="round"/>
<path d="M12.6291 148.082C13.2621 148.927 14.2884 148.927 14.9213 148.082C15.5543 147.237 15.5543 145.867 14.9213 145.022C14.2884 144.177 13.2621 144.177 12.6291 145.022C11.9962 145.867 11.9962 147.237 12.6291 148.082Z" stroke="#39C4D5" stroke-width="2" stroke-miterlimit="10" stroke-linecap="round" stroke-linejoin="round"/>
<path d="M13.7723 139L2.45959 123.897" stroke="#39C4D5" stroke-width="2" stroke-miterlimit="10" stroke-linecap="round" stroke-linejoin="round"/>
<path d="M13.7723 123.897L2.45959 139" stroke="#39C4D5" stroke-width="2" stroke-miterlimit="10" stroke-linecap="round" stroke-linejoin="round"/>
<path d="M6.97289 125.427C7.60587 126.272 8.63213 126.272 9.26511 125.427C9.89809 124.582 9.89809 123.211 9.26511 122.366C8.63213 121.521 7.60587 121.521 6.97289 122.366C6.33991 123.211 6.33991 124.582 6.97289 125.427Z" stroke="#39C4D5" stroke-width="2" stroke-miterlimit="10" stroke-linecap="round" stroke-linejoin="round"/>
<path d="M1.31664 132.971C1.94961 133.816 2.97587 133.816 3.60885 132.971C4.24182 132.126 4.24182 130.756 3.60885 129.911C2.97587 129.065 1.94961 129.065 1.31664 129.911C0.68366 130.756 0.683662 132.126 1.31664 132.971Z" stroke="#39C4D5" stroke-width="2" stroke-miterlimit="10" stroke-linecap="round" stroke-linejoin="round"/>
<path d="M12.6291 132.971C13.2621 133.816 14.2884 133.816 14.9213 132.971C15.5543 132.126 15.5543 130.756 14.9213 129.911C14.2884 129.065 13.2621 129.065 12.6291 129.911C11.9962 130.756 11.9962 132.126 12.6291 132.971Z" stroke="#39C4D5" stroke-width="2" stroke-miterlimit="10" stroke-linecap="round" stroke-linejoin="round"/>
<path d="M13.7723 123.896L2.45959 108.793" stroke="#39C4D5" stroke-width="2" stroke-miterlimit="10" stroke-linecap="round" stroke-linejoin="round"/>
<path d="M13.7723 108.793L2.45959 123.896" stroke="#39C4D5" stroke-width="2" stroke-miterlimit="10" stroke-linecap="round" stroke-linejoin="round"/>
<path d="M6.97289 110.319C7.60587 111.164 8.63213 111.164 9.26511 110.319C9.89809 109.474 9.89809 108.104 9.26511 107.259C8.63213 106.414 7.60587 106.414 6.97289 107.259C6.33991 108.104 6.33991 109.474 6.97289 110.319Z" stroke="#39C4D5" stroke-width="2" stroke-miterlimit="10" stroke-linecap="round" stroke-linejoin="round"/>
<path d="M1.31274 117.871C1.94571 118.716 2.97198 118.716 3.60495 117.871C4.23793 117.026 4.23793 115.656 3.60495 114.811C2.97197 113.966 1.94571 113.966 1.31273 114.811C0.679756 115.656 0.679758 117.026 1.31274 117.871Z" stroke="#39C4D5" stroke-width="2" stroke-miterlimit="10" stroke-linecap="round" stroke-linejoin="round"/>
<path d="M12.6291 117.871C13.2621 118.716 14.2884 118.716 14.9214 117.871C15.5543 117.026 15.5543 115.656 14.9214 114.811C14.2884 113.966 13.2621 113.966 12.6291 114.811C11.9962 115.656 11.9962 117.026 12.6291 117.871Z" stroke="#39C4D5" stroke-width="2" stroke-miterlimit="10" stroke-linecap="round" stroke-linejoin="round"/>
<path d="M13.7723 108.793L2.45959 93.6835" stroke="#39C4D5" stroke-width="2" stroke-miterlimit="10" stroke-linecap="round" stroke-linejoin="round"/>
<path d="M13.7723 93.6835L2.45959 108.793" stroke="#39C4D5" stroke-width="2" stroke-miterlimit="10" stroke-linecap="round" stroke-linejoin="round"/>
<path d="M6.9768 95.2156C7.60978 96.0606 8.63604 96.0606 9.26902 95.2156C9.902 94.3705 9.90199 93.0004 9.26902 92.1554C8.63604 91.3104 7.60977 91.3104 6.9768 92.1554C6.34382 93.0004 6.34382 94.3705 6.9768 95.2156Z" stroke="#39C4D5" stroke-width="2" stroke-miterlimit="10" stroke-linecap="round" stroke-linejoin="round"/>
<path d="M1.31273 102.764C1.94571 103.609 2.97197 103.609 3.60495 102.764C4.23793 101.919 4.23792 100.548 3.60495 99.7034C2.97197 98.8583 1.94571 98.8583 1.31273 99.7034C0.679755 100.548 0.679757 101.919 1.31273 102.764Z" stroke="#39C4D5" stroke-width="2" stroke-miterlimit="10" stroke-linecap="round" stroke-linejoin="round"/>
<path d="M12.6291 102.764C13.2621 103.609 14.2884 103.609 14.9213 102.764C15.5543 101.919 15.5543 100.548 14.9213 99.7034C14.2884 98.8583 13.2621 98.8583 12.6291 99.7034C11.9962 100.548 11.9962 101.919 12.6291 102.764Z" stroke="#39C4D5" stroke-width="2" stroke-miterlimit="10" stroke-linecap="round" stroke-linejoin="round"/>
<path d="M13.7723 93.6779L2.45959 78.5748" stroke="#39C4D5" stroke-width="2" stroke-miterlimit="10" stroke-linecap="round" stroke-linejoin="round"/>
<path d="M13.7723 78.5748L2.45959 93.6779" stroke="#39C4D5" stroke-width="2" stroke-miterlimit="10" stroke-linecap="round" stroke-linejoin="round"/>
<path d="M6.97289 80.1082C7.60587 80.9533 8.63212 80.9533 9.2651 80.1082C9.89808 79.2632 9.89808 77.8931 9.2651 77.048C8.63212 76.203 7.60586 76.203 6.97289 77.048C6.33991 77.8931 6.33991 79.2632 6.97289 80.1082Z" stroke="#39C4D5" stroke-width="2" stroke-miterlimit="10" stroke-linecap="round" stroke-linejoin="round"/>
<path d="M1.31274 87.66C1.94572 88.505 2.97198 88.505 3.60496 87.66C4.23794 86.8149 4.23793 85.4448 3.60496 84.5998C2.97198 83.7548 1.94571 83.7548 1.31274 84.5998C0.679756 85.4448 0.679758 86.8149 1.31274 87.66Z" stroke="#39C4D5" stroke-width="2" stroke-miterlimit="10" stroke-linecap="round" stroke-linejoin="round"/>
<path d="M12.6291 87.6638C13.2621 88.5089 14.2884 88.5089 14.9214 87.6638C15.5543 86.8188 15.5543 85.4487 14.9214 84.6036C14.2884 83.7586 13.2621 83.7586 12.6291 84.6036C11.9962 85.4487 11.9962 86.8188 12.6291 87.6638Z" stroke="#39C4D5" stroke-width="2" stroke-miterlimit="10" stroke-linecap="round" stroke-linejoin="round"/>
<path d="M13.7723 78.5781L2.45959 63.4751" stroke="#39C4D5" stroke-width="2" stroke-miterlimit="10" stroke-linecap="round" stroke-linejoin="round"/>
<path d="M13.7723 63.4751L2.45959 78.5781" stroke="#39C4D5" stroke-width="2" stroke-miterlimit="10" stroke-linecap="round" stroke-linejoin="round"/>
<path d="M6.97289 65.0084C7.60587 65.8535 8.63212 65.8535 9.2651 65.0084C9.89808 64.1634 9.89808 62.7933 9.2651 61.9482C8.63212 61.1032 7.60586 61.1032 6.97289 61.9482C6.33991 62.7933 6.33991 64.1634 6.97289 65.0084Z" stroke="#39C4D5" stroke-width="2" stroke-miterlimit="10" stroke-linecap="round" stroke-linejoin="round"/>
<path d="M1.31664 72.5526C1.94962 73.3977 2.97588 73.3977 3.60886 72.5526C4.24184 71.7076 4.24183 70.3375 3.60886 69.4924C2.97588 68.6474 1.94962 68.6474 1.31664 69.4924C0.683662 70.3375 0.683664 71.7076 1.31664 72.5526Z" stroke="#39C4D5" stroke-width="2" stroke-miterlimit="10" stroke-linecap="round" stroke-linejoin="round"/>
<path d="M12.6291 72.5526C13.2621 73.3977 14.2884 73.3977 14.9213 72.5526C15.5543 71.7076 15.5543 70.3375 14.9213 69.4924C14.2884 68.6474 13.2621 68.6474 12.6291 69.4924C11.9962 70.3375 11.9962 71.7076 12.6291 72.5526Z" stroke="#39C4D5" stroke-width="2" stroke-miterlimit="10" stroke-linecap="round" stroke-linejoin="round"/>
<path d="M13.7723 63.4783L2.45959 48.3753" stroke="#39C4D5" stroke-width="2" stroke-miterlimit="10" stroke-linecap="round" stroke-linejoin="round"/>
<path d="M13.7723 48.3753L2.45959 63.4783" stroke="#39C4D5" stroke-width="2" stroke-miterlimit="10" stroke-linecap="round" stroke-linejoin="round"/>
<path d="M6.97289 49.9011C7.60587 50.7461 8.63213 50.7461 9.2651 49.9011C9.89808 49.056 9.89808 47.6859 9.26511 46.8409C8.63213 45.9958 7.60587 45.9958 6.97289 46.8409C6.33991 47.6859 6.33991 49.056 6.97289 49.9011Z" stroke="#39C4D5" stroke-width="2" stroke-miterlimit="10" stroke-linecap="round" stroke-linejoin="round"/>
<path d="M1.31273 57.4452C1.94571 58.2902 2.97196 58.2902 3.60494 57.4452C4.23791 56.6001 4.23791 55.2301 3.60494 54.385C2.97196 53.54 1.94571 53.54 1.31273 54.385C0.679754 55.2301 0.679755 56.6001 1.31273 57.4452Z" stroke="#39C4D5" stroke-width="2" stroke-miterlimit="10" stroke-linecap="round" stroke-linejoin="round"/>
<path d="M12.6291 57.449C13.2621 58.2941 14.2884 58.2941 14.9213 57.449C15.5543 56.604 15.5543 55.2339 14.9213 54.3889C14.2884 53.5438 13.2621 53.5438 12.6291 54.3889C11.9962 55.2339 11.9962 56.604 12.6291 57.449Z" stroke="#39C4D5" stroke-width="2" stroke-miterlimit="10" stroke-linecap="round" stroke-linejoin="round"/>
<path d="M13.7723 48.371L2.45959 33.2616" stroke="#39C4D5" stroke-width="2" stroke-miterlimit="10" stroke-linecap="round" stroke-linejoin="round"/>
<path d="M13.7723 33.2616L2.45959 48.371" stroke="#39C4D5" stroke-width="2" stroke-miterlimit="10" stroke-linecap="round" stroke-linejoin="round"/>
<path d="M6.97289 34.7936C7.60586 35.6387 8.63212 35.6387 9.2651 34.7936C9.89807 33.9486 9.89807 32.5785 9.26509 31.7335C8.63212 30.8884 7.60586 30.8884 6.97289 31.7335C6.33991 32.5785 6.33991 33.9486 6.97289 34.7936Z" stroke="#39C4D5" stroke-width="2" stroke-miterlimit="10" stroke-linecap="round" stroke-linejoin="round"/>
<path d="M1.31273 42.3455C1.94571 43.1905 2.97197 43.1905 3.60494 42.3455C4.23792 41.5004 4.23792 40.1303 3.60494 39.2853C2.97197 38.4402 1.94571 38.4402 1.31273 39.2853C0.679755 40.1303 0.679756 41.5004 1.31273 42.3455Z" stroke="#39C4D5" stroke-width="2" stroke-miterlimit="10" stroke-linecap="round" stroke-linejoin="round"/>
<path d="M12.6291 42.3455C13.2621 43.1905 14.2884 43.1905 14.9213 42.3455C15.5543 41.5004 15.5543 40.1303 14.9213 39.2853C14.2884 38.4402 13.2621 38.4402 12.6291 39.2853C11.9962 40.1303 11.9962 41.5004 12.6291 42.3455Z" stroke="#39C4D5" stroke-width="2" stroke-miterlimit="10" stroke-linecap="round" stroke-linejoin="round"/>
<path d="M13.7723 33.2598L2.45959 18.1567" stroke="#39C4D5" stroke-width="2" stroke-miterlimit="10" stroke-linecap="round" stroke-linejoin="round"/>
<path d="M13.7723 18.1567L2.45959 33.2598" stroke="#39C4D5" stroke-width="2" stroke-miterlimit="10" stroke-linecap="round" stroke-linejoin="round"/>
<path d="M6.97289 19.6939C7.60587 20.539 8.63213 20.539 9.2651 19.6939C9.89808 18.8489 9.89808 17.4788 9.26511 16.6337C8.63213 15.7887 7.60587 15.7887 6.97289 16.6337C6.33991 17.4788 6.33991 18.8489 6.97289 19.6939Z" stroke="#39C4D5" stroke-width="2" stroke-miterlimit="10" stroke-linecap="round" stroke-linejoin="round"/>
<path d="M1.31273 27.238C1.94571 28.0831 2.97196 28.0831 3.60494 27.238C4.23791 26.393 4.23791 25.0229 3.60494 24.1779C2.97196 23.3328 1.9457 23.3328 1.31273 24.1779C0.679753 25.0229 0.679755 26.393 1.31273 27.238Z" stroke="#39C4D5" stroke-width="2" stroke-miterlimit="10" stroke-linecap="round" stroke-linejoin="round"/>
<path d="M12.6291 27.2419C13.2621 28.0869 14.2884 28.0869 14.9213 27.2419C15.5543 26.3968 15.5543 25.0267 14.9213 24.1817C14.2884 23.3367 13.2621 23.3367 12.6291 24.1817C11.9962 25.0267 11.9962 26.3968 12.6291 27.2419Z" stroke="#39C4D5" stroke-width="2" stroke-miterlimit="10" stroke-linecap="round" stroke-linejoin="round"/>
<path d="M13.7723 18.16L2.45959 3.05692" stroke="#39C4D5" stroke-width="2" stroke-miterlimit="10" stroke-linecap="round" stroke-linejoin="round"/>
<path d="M13.7723 3.05692L2.45959 18.16" stroke="#39C4D5" stroke-width="2" stroke-miterlimit="10" stroke-linecap="round" stroke-linejoin="round"/>
<path d="M6.97289 4.59034C7.60586 5.43538 8.63212 5.43539 9.2651 4.59034C9.89807 3.74529 9.89807 2.3752 9.26509 1.53015C8.63212 0.685107 7.60586 0.685104 6.97289 1.53015C6.33991 2.3752 6.33991 3.74529 6.97289 4.59034Z" stroke="#39C4D5" stroke-width="2" stroke-miterlimit="10" stroke-linecap="round" stroke-linejoin="round"/>
<path d="M1.31273 12.1383C1.9457 12.9834 2.97196 12.9834 3.60494 12.1383C4.23791 11.2933 4.23791 9.92317 3.60493 9.07812C2.97196 8.23308 1.9457 8.23308 1.31273 9.07812C0.679753 9.92317 0.679755 11.2933 1.31273 12.1383Z" stroke="#39C4D5" stroke-width="2" stroke-miterlimit="10" stroke-linecap="round" stroke-linejoin="round"/>
<path d="M12.6291 12.1422C13.2621 12.9872 14.2884 12.9872 14.9213 12.1422C15.5543 11.2971 15.5543 9.92701 14.9213 9.08197C14.2884 8.23692 13.2621 8.23692 12.6291 9.08197C11.9962 9.92701 11.9962 11.2971 12.6291 12.1422Z" stroke="#39C4D5" stroke-width="2" stroke-miterlimit="10" stroke-linecap="round" stroke-linejoin="round"/>
</g>
<g opacity="0.51">
<path d="M34.6731 274.94L23.3604 259.837" stroke="#39C4D5" stroke-width="2" stroke-miterlimit="10" stroke-linecap="round" stroke-linejoin="round"/>
<path d="M34.6731 259.837L23.3604 274.94" stroke="#39C4D5" stroke-width="2" stroke-miterlimit="10" stroke-linecap="round" stroke-linejoin="round"/>
<path d="M27.8737 261.366C28.5067 262.211 29.5329 262.211 30.1659 261.366C30.7989 260.521 30.7989 259.151 30.1659 258.306C29.5329 257.461 28.5067 257.461 27.8737 258.306C27.2407 259.151 27.2407 260.521 27.8737 261.366Z" stroke="#39C4D5" stroke-width="2" stroke-miterlimit="10" stroke-linecap="round" stroke-linejoin="round"/>
<path d="M27.8737 276.47C28.5067 277.315 29.5329 277.315 30.1659 276.47C30.7989 275.625 30.7989 274.255 30.1659 273.41C29.5329 272.565 28.5067 272.565 27.8737 273.41C27.2407 274.255 27.2407 275.625 27.8737 276.47Z" stroke="#39C4D5" stroke-width="2" stroke-miterlimit="10" stroke-linecap="round" stroke-linejoin="round"/>
<path d="M22.2175 268.914C22.8504 269.759 23.8767 269.759 24.5097 268.914C25.1426 268.069 25.1426 266.699 24.5097 265.854C23.8767 265.009 22.8504 265.009 22.2175 265.854C21.5845 266.699 21.5845 268.069 22.2175 268.914Z" stroke="#39C4D5" stroke-width="2" stroke-miterlimit="10" stroke-linecap="round" stroke-linejoin="round"/>
<path d="M33.53 268.914C34.1629 269.759 35.1892 269.759 35.8222 268.914C36.4551 268.069 36.4551 266.699 35.8222 265.854C35.1892 265.009 34.1629 265.009 33.53 265.854C32.897 266.699 32.897 268.069 33.53 268.914Z" stroke="#39C4D5" stroke-width="2" stroke-miterlimit="10" stroke-linecap="round" stroke-linejoin="round"/>
<path d="M34.6731 259.836L23.3604 244.733" stroke="#39C4D5" stroke-width="2" stroke-miterlimit="10" stroke-linecap="round" stroke-linejoin="round"/>
<path d="M34.6731 244.733L23.3604 259.836" stroke="#39C4D5" stroke-width="2" stroke-miterlimit="10" stroke-linecap="round" stroke-linejoin="round"/>
<path d="M27.8737 246.263C28.5067 247.108 29.5329 247.108 30.1659 246.263C30.7989 245.418 30.7989 244.048 30.1659 243.203C29.5329 242.358 28.5067 242.358 27.8737 243.203C27.2407 244.048 27.2407 245.418 27.8737 246.263Z" stroke="#39C4D5" stroke-width="2" stroke-miterlimit="10" stroke-linecap="round" stroke-linejoin="round"/>
<path d="M22.2175 253.807C22.8504 254.652 23.8767 254.652 24.5097 253.807C25.1426 252.962 25.1426 251.592 24.5097 250.747C23.8767 249.902 22.8504 249.902 22.2175 250.747C21.5845 251.592 21.5845 252.962 22.2175 253.807Z" stroke="#39C4D5" stroke-width="2" stroke-miterlimit="10" stroke-linecap="round" stroke-linejoin="round"/>
<path d="M33.53 253.807C34.1629 254.652 35.1892 254.652 35.8222 253.807C36.4551 252.962 36.4551 251.592 35.8222 250.747C35.1892 249.902 34.1629 249.902 33.53 250.747C32.897 251.592 32.897 252.962 33.53 253.807Z" stroke="#39C4D5" stroke-width="2" stroke-miterlimit="10" stroke-linecap="round" stroke-linejoin="round"/>
<path d="M34.6731 244.733L23.3604 229.63" stroke="#39C4D5" stroke-width="2" stroke-miterlimit="10" stroke-linecap="round" stroke-linejoin="round"/>
<path d="M34.6731 229.63L23.3604 244.733" stroke="#39C4D5" stroke-width="2" stroke-miterlimit="10" stroke-linecap="round" stroke-linejoin="round"/>
<path d="M27.8737 231.159C28.5067 232.004 29.5329 232.004 30.1659 231.159C30.7989 230.314 30.7989 228.944 30.1659 228.099C29.5329 227.254 28.5067 227.254 27.8737 228.099C27.2407 228.944 27.2407 230.314 27.8737 231.159Z" stroke="#39C4D5" stroke-width="2" stroke-miterlimit="10" stroke-linecap="round" stroke-linejoin="round"/>
<path d="M22.2174 238.704C22.8504 239.549 23.8767 239.549 24.5096 238.704C25.1426 237.858 25.1426 236.488 24.5096 235.643C23.8767 234.798 22.8504 234.798 22.2174 235.643C21.5845 236.488 21.5845 237.858 22.2174 238.704Z" stroke="#39C4D5" stroke-width="2" stroke-miterlimit="10" stroke-linecap="round" stroke-linejoin="round"/>
<path d="M33.5299 238.703C34.1629 239.549 35.1892 239.549 35.8221 238.703C36.4551 237.858 36.4551 236.488 35.8221 235.643C35.1892 234.798 34.1629 234.798 33.5299 235.643C32.897 236.488 32.897 237.858 33.5299 238.703Z" stroke="#39C4D5" stroke-width="2" stroke-miterlimit="10" stroke-linecap="round" stroke-linejoin="round"/>
<path d="M34.6731 229.633L23.3604 214.524" stroke="#39C4D5" stroke-width="2" stroke-miterlimit="10" stroke-linecap="round" stroke-linejoin="round"/>
<path d="M34.6731 214.524L23.3604 229.633" stroke="#39C4D5" stroke-width="2" stroke-miterlimit="10" stroke-linecap="round" stroke-linejoin="round"/>
<path d="M27.8737 216.052C28.5067 216.897 29.5329 216.897 30.1659 216.052C30.7989 215.207 30.7989 213.837 30.1659 212.992C29.5329 212.147 28.5067 212.147 27.8737 212.992C27.2407 213.837 27.2407 215.207 27.8737 216.052Z" stroke="#39C4D5" stroke-width="2" stroke-miterlimit="10" stroke-linecap="round" stroke-linejoin="round"/>
<path d="M22.2174 223.6C22.8504 224.445 23.8767 224.445 24.5096 223.6C25.1426 222.755 25.1426 221.385 24.5096 220.54C23.8767 219.695 22.8504 219.695 22.2174 220.54C21.5845 221.385 21.5845 222.755 22.2174 223.6Z" stroke="#39C4D5" stroke-width="2" stroke-miterlimit="10" stroke-linecap="round" stroke-linejoin="round"/>
<path d="M33.5299 223.6C34.1629 224.445 35.1892 224.445 35.8221 223.6C36.4551 222.755 36.4551 221.385 35.8221 220.54C35.1892 219.695 34.1629 219.695 33.5299 220.54C32.897 221.385 32.897 222.755 33.5299 223.6Z" stroke="#39C4D5" stroke-width="2" stroke-miterlimit="10" stroke-linecap="round" stroke-linejoin="round"/>
<path d="M34.6731 214.518L23.3604 199.415" stroke="#39C4D5" stroke-width="2" stroke-miterlimit="10" stroke-linecap="round" stroke-linejoin="round"/>
<path d="M34.6731 199.415L23.3604 214.518" stroke="#39C4D5" stroke-width="2" stroke-miterlimit="10" stroke-linecap="round" stroke-linejoin="round"/>
<path d="M27.8737 200.948C28.5067 201.793 29.5329 201.793 30.1659 200.948C30.7989 200.103 30.7989 198.733 30.1659 197.888C29.5329 197.043 28.5067 197.043 27.8737 197.888C27.2407 198.733 27.2407 200.103 27.8737 200.948Z" stroke="#39C4D5" stroke-width="2" stroke-miterlimit="10" stroke-linecap="round" stroke-linejoin="round"/>
<path d="M22.2174 208.496C22.8504 209.341 23.8767 209.341 24.5096 208.496C25.1426 207.651 25.1426 206.281 24.5096 205.436C23.8767 204.591 22.8504 204.591 22.2174 205.436C21.5845 206.281 21.5845 207.651 22.2174 208.496Z" stroke="#39C4D5" stroke-width="2" stroke-miterlimit="10" stroke-linecap="round" stroke-linejoin="round"/>
<path d="M33.5299 208.5C34.1629 209.345 35.1892 209.345 35.8221 208.5C36.4551 207.655 36.4551 206.285 35.8221 205.44C35.1892 204.595 34.1629 204.595 33.5299 205.44C32.897 206.285 32.897 207.655 33.5299 208.5Z" stroke="#39C4D5" stroke-width="2" stroke-miterlimit="10" stroke-linecap="round" stroke-linejoin="round"/>
<path d="M34.6731 199.418L23.3604 184.315" stroke="#39C4D5" stroke-width="2" stroke-miterlimit="10" stroke-linecap="round" stroke-linejoin="round"/>
<path d="M34.6731 184.315L23.3604 199.418" stroke="#39C4D5" stroke-width="2" stroke-miterlimit="10" stroke-linecap="round" stroke-linejoin="round"/>
<path d="M27.8737 185.845C28.5067 186.69 29.5329 186.69 30.1659 185.845C30.7989 185 30.7989 183.63 30.1659 182.784C29.5329 181.939 28.5067 181.939 27.8737 182.784C27.2407 183.63 27.2407 185 27.8737 185.845Z" stroke="#39C4D5" stroke-width="2" stroke-miterlimit="10" stroke-linecap="round" stroke-linejoin="round"/>
<path d="M22.2174 193.392C22.8504 194.238 23.8767 194.238 24.5096 193.392C25.1426 192.547 25.1426 191.177 24.5096 190.332C23.8767 189.487 22.8504 189.487 22.2174 190.332C21.5845 191.177 21.5845 192.547 22.2174 193.392Z" stroke="#39C4D5" stroke-width="2" stroke-miterlimit="10" stroke-linecap="round" stroke-linejoin="round"/>
<path d="M33.5299 193.392C34.1629 194.238 35.1892 194.238 35.8221 193.392C36.4551 192.547 36.4551 191.177 35.8221 190.332C35.1892 189.487 34.1629 189.487 33.5299 190.332C32.897 191.177 32.897 192.547 33.5299 193.392Z" stroke="#39C4D5" stroke-width="2" stroke-miterlimit="10" stroke-linecap="round" stroke-linejoin="round"/>
<path d="M34.6731 184.315L23.3604 169.212" stroke="#39C4D5" stroke-width="2" stroke-miterlimit="10" stroke-linecap="round" stroke-linejoin="round"/>
<path d="M34.6731 169.212L23.3604 184.315" stroke="#39C4D5" stroke-width="2" stroke-miterlimit="10" stroke-linecap="round" stroke-linejoin="round"/>
<path d="M27.8737 170.745C28.5067 171.59 29.5329 171.59 30.1659 170.745C30.7989 169.9 30.7989 168.53 30.1659 167.685C29.5329 166.84 28.5067 166.84 27.8737 167.685C27.2407 168.53 27.2407 169.9 27.8737 170.745Z" stroke="#39C4D5" stroke-width="2" stroke-miterlimit="10" stroke-linecap="round" stroke-linejoin="round"/>
<path d="M22.2175 178.289C22.8504 179.134 23.8767 179.134 24.5097 178.289C25.1426 177.444 25.1426 176.074 24.5097 175.229C23.8767 174.384 22.8504 174.384 22.2175 175.229C21.5845 176.074 21.5845 177.444 22.2175 178.289Z" stroke="#39C4D5" stroke-width="2" stroke-miterlimit="10" stroke-linecap="round" stroke-linejoin="round"/>
<path d="M33.53 178.289C34.1629 179.134 35.1892 179.134 35.8222 178.289C36.4551 177.444 36.4551 176.074 35.8222 175.229C35.1892 174.384 34.1629 174.384 33.53 175.229C32.897 176.074 32.897 177.444 33.53 178.289Z" stroke="#39C4D5" stroke-width="2" stroke-miterlimit="10" stroke-linecap="round" stroke-linejoin="round"/>
<path d="M34.6731 169.215L23.3604 154.105" stroke="#39C4D5" stroke-width="2" stroke-miterlimit="10" stroke-linecap="round" stroke-linejoin="round"/>
<path d="M34.6731 154.105L23.3604 169.215" stroke="#39C4D5" stroke-width="2" stroke-miterlimit="10" stroke-linecap="round" stroke-linejoin="round"/>
<path d="M27.8737 155.634C28.5067 156.479 29.5329 156.479 30.1659 155.634C30.7989 154.789 30.7989 153.419 30.1659 152.573C29.5329 151.728 28.5067 151.728 27.8737 152.573C27.2407 153.419 27.2407 154.789 27.8737 155.634Z" stroke="#39C4D5" stroke-width="2" stroke-miterlimit="10" stroke-linecap="round" stroke-linejoin="round"/>
<path d="M22.2175 163.182C22.8504 164.027 23.8767 164.027 24.5097 163.182C25.1426 162.337 25.1426 160.967 24.5097 160.121C23.8767 159.276 22.8504 159.276 22.2175 160.121C21.5845 160.967 21.5845 162.337 22.2175 163.182Z" stroke="#39C4D5" stroke-width="2" stroke-miterlimit="10" stroke-linecap="round" stroke-linejoin="round"/>
<path d="M33.53 163.182C34.1629 164.027 35.1892 164.027 35.8222 163.182C36.4551 162.337 36.4551 160.966 35.8222 160.121C35.1892 159.276 34.1629 159.276 33.53 160.121C32.897 160.967 32.897 162.337 33.53 163.182Z" stroke="#39C4D5" stroke-width="2" stroke-miterlimit="10" stroke-linecap="round" stroke-linejoin="round"/>
<path d="M34.6731 154.104L23.3604 139.001" stroke="#39C4D5" stroke-width="2" stroke-miterlimit="10" stroke-linecap="round" stroke-linejoin="round"/>
<path d="M34.6731 139.001L23.3604 154.104" stroke="#39C4D5" stroke-width="2" stroke-miterlimit="10" stroke-linecap="round" stroke-linejoin="round"/>
<path d="M27.8737 140.53C28.5067 141.375 29.533 141.375 30.1659 140.53C30.7989 139.685 30.7989 138.315 30.1659 137.47C29.5329 136.625 28.5067 136.625 27.8737 137.47C27.2407 138.315 27.2407 139.685 27.8737 140.53Z" stroke="#39C4D5" stroke-width="2" stroke-miterlimit="10" stroke-linecap="round" stroke-linejoin="round"/>
<path d="M22.2136 148.082C22.8465 148.927 23.8728 148.927 24.5058 148.082C25.1387 147.237 25.1387 145.867 24.5058 145.022C23.8728 144.177 22.8465 144.177 22.2135 145.022C21.5806 145.867 21.5806 147.237 22.2136 148.082Z" stroke="#39C4D5" stroke-width="2" stroke-miterlimit="10" stroke-linecap="round" stroke-linejoin="round"/>
<path d="M33.53 148.082C34.1629 148.927 35.1892 148.927 35.8222 148.082C36.4551 147.237 36.4551 145.867 35.8222 145.022C35.1892 144.177 34.1629 144.177 33.53 145.022C32.897 145.867 32.897 147.237 33.53 148.082Z" stroke="#39C4D5" stroke-width="2" stroke-miterlimit="10" stroke-linecap="round" stroke-linejoin="round"/>
<path d="M34.6731 139L23.3604 123.897" stroke="#39C4D5" stroke-width="2" stroke-miterlimit="10" stroke-linecap="round" stroke-linejoin="round"/>
<path d="M34.6731 123.897L23.3604 139" stroke="#39C4D5" stroke-width="2" stroke-miterlimit="10" stroke-linecap="round" stroke-linejoin="round"/>
<path d="M27.8737 125.427C28.5067 126.272 29.533 126.272 30.1659 125.427C30.7989 124.582 30.7989 123.211 30.1659 122.366C29.5329 121.521 28.5067 121.521 27.8737 122.366C27.2407 123.211 27.2407 124.582 27.8737 125.427Z" stroke="#39C4D5" stroke-width="2" stroke-miterlimit="10" stroke-linecap="round" stroke-linejoin="round"/>
<path d="M22.2175 132.971C22.8504 133.816 23.8767 133.816 24.5097 132.971C25.1426 132.126 25.1426 130.756 24.5097 129.911C23.8767 129.065 22.8504 129.065 22.2175 129.911C21.5845 130.756 21.5845 132.126 22.2175 132.971Z" stroke="#39C4D5" stroke-width="2" stroke-miterlimit="10" stroke-linecap="round" stroke-linejoin="round"/>
<path d="M33.53 132.971C34.1629 133.816 35.1892 133.816 35.8222 132.971C36.4551 132.126 36.4551 130.756 35.8222 129.911C35.1892 129.065 34.1629 129.065 33.53 129.911C32.897 130.756 32.897 132.126 33.53 132.971Z" stroke="#39C4D5" stroke-width="2" stroke-miterlimit="10" stroke-linecap="round" stroke-linejoin="round"/>
<path d="M34.6731 123.896L23.3604 108.793" stroke="#39C4D5" stroke-width="2" stroke-miterlimit="10" stroke-linecap="round" stroke-linejoin="round"/>
<path d="M34.6731 108.793L23.3604 123.896" stroke="#39C4D5" stroke-width="2" stroke-miterlimit="10" stroke-linecap="round" stroke-linejoin="round"/>
<path d="M27.8737 110.319C28.5067 111.164 29.533 111.164 30.1659 110.319C30.7989 109.474 30.7989 108.104 30.1659 107.259C29.5329 106.414 28.5067 106.414 27.8737 107.259C27.2407 108.104 27.2407 109.474 27.8737 110.319Z" stroke="#39C4D5" stroke-width="2" stroke-miterlimit="10" stroke-linecap="round" stroke-linejoin="round"/>
<path d="M22.2175 117.871C22.8504 118.716 23.8767 118.716 24.5097 117.871C25.1427 117.026 25.1427 115.656 24.5097 114.811C23.8767 113.966 22.8504 113.966 22.2175 114.811C21.5845 115.656 21.5845 117.026 22.2175 117.871Z" stroke="#39C4D5" stroke-width="2" stroke-miterlimit="10" stroke-linecap="round" stroke-linejoin="round"/>
<path d="M33.53 117.871C34.1629 118.716 35.1892 118.716 35.8222 117.871C36.4552 117.026 36.4552 115.656 35.8222 114.811C35.1892 113.966 34.1629 113.966 33.53 114.811C32.897 115.656 32.897 117.026 33.53 117.871Z" stroke="#39C4D5" stroke-width="2" stroke-miterlimit="10" stroke-linecap="round" stroke-linejoin="round"/>
<path d="M34.6731 108.793L23.3604 93.6835" stroke="#39C4D5" stroke-width="2" stroke-miterlimit="10" stroke-linecap="round" stroke-linejoin="round"/>
<path d="M34.6731 93.6835L23.3604 108.793" stroke="#39C4D5" stroke-width="2" stroke-miterlimit="10" stroke-linecap="round" stroke-linejoin="round"/>
<path d="M27.8737 95.2156C28.5067 96.0606 29.533 96.0606 30.1659 95.2156C30.7989 94.3705 30.7989 93.0004 30.1659 92.1554C29.5329 91.3104 28.5067 91.3104 27.8737 92.1554C27.2407 93.0004 27.2407 94.3705 27.8737 95.2156Z" stroke="#39C4D5" stroke-width="2" stroke-miterlimit="10" stroke-linecap="round" stroke-linejoin="round"/>
<path d="M22.2175 102.764C22.8504 103.609 23.8767 103.609 24.5097 102.764C25.1426 101.919 25.1426 100.548 24.5097 99.7034C23.8767 98.8583 22.8504 98.8583 22.2175 99.7034C21.5845 100.548 21.5845 101.919 22.2175 102.764Z" stroke="#39C4D5" stroke-width="2" stroke-miterlimit="10" stroke-linecap="round" stroke-linejoin="round"/>
<path d="M33.53 102.764C34.1629 103.609 35.1892 103.609 35.8222 102.764C36.4551 101.919 36.4551 100.548 35.8222 99.7034C35.1892 98.8583 34.1629 98.8583 33.53 99.7034C32.897 100.548 32.897 101.919 33.53 102.764Z" stroke="#39C4D5" stroke-width="2" stroke-miterlimit="10" stroke-linecap="round" stroke-linejoin="round"/>
<path d="M34.6731 93.6779L23.3604 78.5748" stroke="#39C4D5" stroke-width="2" stroke-miterlimit="10" stroke-linecap="round" stroke-linejoin="round"/>
<path d="M34.6731 78.5748L23.3604 93.6779" stroke="#39C4D5" stroke-width="2" stroke-miterlimit="10" stroke-linecap="round" stroke-linejoin="round"/>
<path d="M27.8737 80.1082C28.5067 80.9533 29.5329 80.9533 30.1659 80.1082C30.7989 79.2632 30.7989 77.8931 30.1659 77.048C29.5329 76.203 28.5067 76.203 27.8737 77.048C27.2407 77.8931 27.2407 79.2632 27.8737 80.1082Z" stroke="#39C4D5" stroke-width="2" stroke-miterlimit="10" stroke-linecap="round" stroke-linejoin="round"/>
<path d="M22.2175 87.66C22.8504 88.505 23.8767 88.505 24.5097 87.66C25.1427 86.8149 25.1427 85.4448 24.5097 84.5998C23.8767 83.7548 22.8504 83.7548 22.2175 84.5998C21.5845 85.4448 21.5845 86.8149 22.2175 87.66Z" stroke="#39C4D5" stroke-width="2" stroke-miterlimit="10" stroke-linecap="round" stroke-linejoin="round"/>
<path d="M33.53 87.6638C34.1629 88.5089 35.1892 88.5089 35.8222 87.6638C36.4552 86.8188 36.4552 85.4487 35.8222 84.6036C35.1892 83.7586 34.1629 83.7586 33.53 84.6036C32.897 85.4487 32.897 86.8188 33.53 87.6638Z" stroke="#39C4D5" stroke-width="2" stroke-miterlimit="10" stroke-linecap="round" stroke-linejoin="round"/>
<path d="M34.6731 78.5781L23.3604 63.4751" stroke="#39C4D5" stroke-width="2" stroke-miterlimit="10" stroke-linecap="round" stroke-linejoin="round"/>
<path d="M34.6731 63.4751L23.3604 78.5781" stroke="#39C4D5" stroke-width="2" stroke-miterlimit="10" stroke-linecap="round" stroke-linejoin="round"/>
<path d="M27.8737 65.0084C28.5067 65.8535 29.5329 65.8535 30.1659 65.0084C30.7989 64.1634 30.7989 62.7933 30.1659 61.9482C29.5329 61.1032 28.5067 61.1032 27.8737 61.9482C27.2407 62.7933 27.2407 64.1634 27.8737 65.0084Z" stroke="#39C4D5" stroke-width="2" stroke-miterlimit="10" stroke-linecap="round" stroke-linejoin="round"/>
<path d="M22.2175 72.5526C22.8504 73.3977 23.8767 73.3977 24.5097 72.5526C25.1427 71.7076 25.1427 70.3375 24.5097 69.4924C23.8767 68.6474 22.8504 68.6474 22.2175 69.4924C21.5845 70.3375 21.5845 71.7076 22.2175 72.5526Z" stroke="#39C4D5" stroke-width="2" stroke-miterlimit="10" stroke-linecap="round" stroke-linejoin="round"/>
<path d="M33.53 72.5526C34.1629 73.3977 35.1892 73.3977 35.8222 72.5526C36.4551 71.7076 36.4551 70.3375 35.8222 69.4924C35.1892 68.6474 34.1629 68.6474 33.53 69.4924C32.897 70.3375 32.897 71.7076 33.53 72.5526Z" stroke="#39C4D5" stroke-width="2" stroke-miterlimit="10" stroke-linecap="round" stroke-linejoin="round"/>
<path d="M34.6731 63.4783L23.3604 48.3753" stroke="#39C4D5" stroke-width="2" stroke-miterlimit="10" stroke-linecap="round" stroke-linejoin="round"/>
<path d="M34.6731 48.3753L23.3604 63.4783" stroke="#39C4D5" stroke-width="2" stroke-miterlimit="10" stroke-linecap="round" stroke-linejoin="round"/>
<path d="M27.8737 49.9011C28.5067 50.7461 29.5329 50.7461 30.1659 49.9011C30.7989 49.056 30.7989 47.6859 30.1659 46.8409C29.5329 45.9958 28.5067 45.9958 27.8737 46.8409C27.2407 47.6859 27.2407 49.056 27.8737 49.9011Z" stroke="#39C4D5" stroke-width="2" stroke-miterlimit="10" stroke-linecap="round" stroke-linejoin="round"/>
<path d="M22.2175 57.4452C22.8504 58.2902 23.8767 58.2902 24.5097 57.4452C25.1426 56.6001 25.1426 55.2301 24.5097 54.385C23.8767 53.54 22.8504 53.54 22.2175 54.385C21.5845 55.2301 21.5845 56.6001 22.2175 57.4452Z" stroke="#39C4D5" stroke-width="2" stroke-miterlimit="10" stroke-linecap="round" stroke-linejoin="round"/>
<path d="M33.53 57.449C34.1629 58.2941 35.1892 58.2941 35.8222 57.449C36.4551 56.604 36.4551 55.2339 35.8222 54.3889C35.1892 53.5438 34.1629 53.5438 33.53 54.3889C32.897 55.2339 32.897 56.604 33.53 57.449Z" stroke="#39C4D5" stroke-width="2" stroke-miterlimit="10" stroke-linecap="round" stroke-linejoin="round"/>
<path d="M34.6731 48.371L23.3604 33.2616" stroke="#39C4D5" stroke-width="2" stroke-miterlimit="10" stroke-linecap="round" stroke-linejoin="round"/>
<path d="M34.6731 33.2616L23.3604 48.371" stroke="#39C4D5" stroke-width="2" stroke-miterlimit="10" stroke-linecap="round" stroke-linejoin="round"/>
<path d="M27.8737 34.7936C28.5067 35.6387 29.5329 35.6387 30.1659 34.7936C30.7989 33.9486 30.7989 32.5785 30.1659 31.7335C29.5329 30.8884 28.5067 30.8884 27.8737 31.7335C27.2407 32.5785 27.2407 33.9486 27.8737 34.7936Z" stroke="#39C4D5" stroke-width="2" stroke-miterlimit="10" stroke-linecap="round" stroke-linejoin="round"/>
<path d="M22.2136 42.3455C22.8465 43.1905 23.8728 43.1905 24.5058 42.3455C25.1387 41.5004 25.1387 40.1303 24.5058 39.2853C23.8728 38.4402 22.8465 38.4402 22.2135 39.2853C21.5806 40.1303 21.5806 41.5004 22.2136 42.3455Z" stroke="#39C4D5" stroke-width="2" stroke-miterlimit="10" stroke-linecap="round" stroke-linejoin="round"/>
<path d="M33.53 42.3455C34.1629 43.1905 35.1892 43.1905 35.8222 42.3455C36.4551 41.5004 36.4551 40.1303 35.8222 39.2853C35.1892 38.4402 34.1629 38.4402 33.53 39.2853C32.897 40.1303 32.897 41.5004 33.53 42.3455Z" stroke="#39C4D5" stroke-width="2" stroke-miterlimit="10" stroke-linecap="round" stroke-linejoin="round"/>
<path d="M34.6731 33.2598L23.3604 18.1567" stroke="#39C4D5" stroke-width="2" stroke-miterlimit="10" stroke-linecap="round" stroke-linejoin="round"/>
<path d="M34.6731 18.1567L23.3604 33.2598" stroke="#39C4D5" stroke-width="2" stroke-miterlimit="10" stroke-linecap="round" stroke-linejoin="round"/>
<path d="M27.8737 19.6939C28.5067 20.539 29.5329 20.539 30.1659 19.6939C30.7989 18.8489 30.7989 17.4788 30.1659 16.6337C29.5329 15.7887 28.5067 15.7887 27.8737 16.6337C27.2407 17.4788 27.2407 18.8489 27.8737 19.6939Z" stroke="#39C4D5" stroke-width="2" stroke-miterlimit="10" stroke-linecap="round" stroke-linejoin="round"/>
<path d="M22.2135 27.238C22.8465 28.0831 23.8728 28.0831 24.5058 27.238C25.1387 26.393 25.1387 25.0229 24.5058 24.1779C23.8728 23.3328 22.8465 23.3328 22.2135 24.1779C21.5806 25.0229 21.5806 26.393 22.2135 27.238Z" stroke="#39C4D5" stroke-width="2" stroke-miterlimit="10" stroke-linecap="round" stroke-linejoin="round"/>
<path d="M33.53 27.2419C34.1629 28.0869 35.1892 28.0869 35.8222 27.2419C36.4551 26.3968 36.4551 25.0267 35.8222 24.1817C35.1892 23.3367 34.1629 23.3367 33.53 24.1817C32.897 25.0267 32.897 26.3968 33.53 27.2419Z" stroke="#39C4D5" stroke-width="2" stroke-miterlimit="10" stroke-linecap="round" stroke-linejoin="round"/>
<path d="M34.6731 18.16L23.3604 3.05692" stroke="#39C4D5" stroke-width="2" stroke-miterlimit="10" stroke-linecap="round" stroke-linejoin="round"/>
<path d="M34.6731 3.05692L23.3604 18.16" stroke="#39C4D5" stroke-width="2" stroke-miterlimit="10" stroke-linecap="round" stroke-linejoin="round"/>
<path d="M27.8737 4.59034C28.5067 5.43538 29.5329 5.43539 30.1659 4.59034C30.7989 3.74529 30.7989 2.3752 30.1659 1.53015C29.5329 0.685107 28.5067 0.685104 27.8737 1.53015C27.2407 2.3752 27.2407 3.74529 27.8737 4.59034Z" stroke="#39C4D5" stroke-width="2" stroke-miterlimit="10" stroke-linecap="round" stroke-linejoin="round"/>
<path d="M22.2135 12.1383C22.8465 12.9834 23.8728 12.9834 24.5058 12.1383C25.1387 11.2933 25.1387 9.92317 24.5058 9.07812C23.8728 8.23308 22.8465 8.23308 22.2135 9.07812C21.5806 9.92317 21.5806 11.2933 22.2135 12.1383Z" stroke="#39C4D5" stroke-width="2" stroke-miterlimit="10" stroke-linecap="round" stroke-linejoin="round"/>
<path d="M33.53 12.1422C34.1629 12.9872 35.1892 12.9872 35.8222 12.1422C36.4551 11.2971 36.4551 9.92701 35.8222 9.08197C35.1892 8.23692 34.1629 8.23692 33.53 9.08197C32.897 9.92701 32.897 11.2971 33.53 12.1422Z" stroke="#39C4D5" stroke-width="2" stroke-miterlimit="10" stroke-linecap="round" stroke-linejoin="round"/>
</g>
</svg>
