<svg width="29" height="28" viewBox="0 0 29 28" fill="none" xmlns="http://www.w3.org/2000/svg">
<mask id="path-1-outside-1_303_29868" maskUnits="userSpaceOnUse" x="1.41666" y="1.1203" width="26" height="26" fill="black">
<rect fill="white" x="1.41666" y="1.1203" width="26" height="26"/>
<path d="M11.6523 19.6609C11.0588 18.8102 10.2168 18.1638 9.24166 17.8102C9.76472 17.4395 10.1563 16.912 10.3597 16.304C10.5631 15.696 10.5678 15.039 10.3731 14.4282C10.1784 13.8174 9.79441 13.2843 9.2767 12.9061C8.75899 12.528 8.1344 12.3243 7.49328 12.3246C6.85216 12.325 6.22777 12.5292 5.71044 12.9079C5.19311 13.2866 4.80967 13.8201 4.6156 14.4311C4.42152 15.0421 4.42687 15.6991 4.63088 16.3069C4.83489 16.9147 5.22697 17.4418 5.75041 17.812C4.77426 18.1697 3.93129 18.8182 3.33518 19.67C2.73907 20.5218 2.41849 21.5358 2.41666 22.5755L2.41666 24.448C2.417 24.8273 2.56784 25.191 2.83606 25.4592C3.10428 25.7274 3.46796 25.8783 3.84728 25.8786L10.0685 25.8786C10.1846 25.8786 10.2958 25.8325 10.3779 25.7505C10.4599 25.6684 10.506 25.5571 10.506 25.4411C10.506 25.3251 10.4599 25.2138 10.3779 25.1318C10.2958 25.0497 10.1846 25.0036 10.0685 25.0036L3.84728 25.0036C3.70003 25.0035 3.55884 24.945 3.45468 24.8409C3.35052 24.7368 3.29189 24.5957 3.29166 24.4484L3.29166 22.5759C3.28994 21.6816 3.57372 20.8101 4.10169 20.0883C4.62967 19.3665 5.37426 18.832 6.22707 18.5627C7.07988 18.2935 7.99638 18.3034 8.84312 18.5912C9.68986 18.879 10.4226 19.4295 10.9348 20.1627C11.0013 20.2578 11.1029 20.3226 11.2173 20.3429C11.3316 20.3631 11.4493 20.3371 11.5444 20.2705C11.6396 20.204 11.7044 20.1024 11.7246 19.988C11.7448 19.8737 11.7188 19.756 11.6523 19.6609ZM7.49472 17.4961C7.07029 17.4961 6.6554 17.3703 6.3025 17.1345C5.9496 16.8987 5.67455 16.5635 5.51213 16.1714C5.34971 15.7793 5.30721 15.3478 5.39002 14.9315C5.47282 14.5152 5.6772 14.1329 5.97731 13.8328C6.27743 13.5326 6.6598 13.3283 7.07607 13.2455C7.49234 13.1627 7.92381 13.2052 8.31593 13.3676C8.70805 13.53 9.0432 13.8051 9.279 14.158C9.5148 14.5108 9.64066 14.9257 9.64066 15.3502C9.64008 15.9191 9.4138 16.4646 9.01149 16.8669C8.60917 17.2693 8.06368 17.4955 7.49472 17.4961ZM25.5538 19.5397C25.0923 19.0808 24.5399 18.7236 23.932 18.491C24.4 18.1401 24.7456 17.6508 24.92 17.0925C25.0943 16.5342 25.0885 15.9351 24.9034 15.3803C24.7183 14.8254 24.3632 14.3429 23.8886 14.0012C23.4139 13.6594 22.8437 13.4756 22.2588 13.476C21.6739 13.4764 21.1039 13.6609 20.6297 14.0033C20.1555 14.3457 19.8011 14.8287 19.6167 15.3837C19.4323 15.9388 19.4273 16.5379 19.6024 17.096C19.7774 17.654 20.1237 18.1429 20.5922 18.4932C19.8634 18.7701 19.2166 19.2269 18.7118 19.821C18.6368 19.9096 18.6001 20.0243 18.6098 20.14C18.6194 20.2556 18.6746 20.3627 18.7632 20.4376C18.8518 20.5126 18.9665 20.5493 19.0822 20.5396C19.1978 20.53 19.3049 20.4748 19.3798 20.3862C19.8805 19.7956 20.5505 19.3731 21.2992 19.1757C22.0479 18.9783 22.8392 19.0157 23.5659 19.2827C24.2927 19.5498 24.9199 20.0336 25.3627 20.6688C25.8055 21.3039 26.0425 22.0598 26.0417 22.834L26.0417 24.5359C26.0414 24.66 25.992 24.7789 25.9043 24.8667C25.8165 24.9544 25.6976 25.0038 25.5735 25.004L20.1048 25.004C19.9888 25.004 19.8775 25.0501 19.7954 25.1322C19.7134 25.2142 19.6673 25.3255 19.6673 25.4415C19.6673 25.5576 19.7134 25.6689 19.7954 25.7509C19.8775 25.833 19.9888 25.879 20.1048 25.879L25.5735 25.879C25.9296 25.8786 26.271 25.7369 26.5228 25.4851C26.7745 25.2334 26.9162 24.892 26.9167 24.5359L26.9167 22.834C26.9178 22.2222 26.798 21.6162 26.5641 21.0508C26.3302 20.4854 25.9869 19.9719 25.5538 19.5397ZM22.2603 18.1786C21.8824 18.1785 21.513 18.0664 21.1988 17.8563C20.8846 17.6463 20.6397 17.3478 20.4951 16.9986C20.3506 16.6494 20.3128 16.2652 20.3866 15.8945C20.4603 15.5239 20.6424 15.1834 20.9097 14.9162C21.1769 14.649 21.5174 14.467 21.8881 14.3933C22.2588 14.3196 22.643 14.3575 22.9922 14.5021C23.3414 14.6468 23.6398 14.8917 23.8498 15.206C24.0597 15.5202 24.1718 15.8897 24.1718 16.2676C24.1712 16.7743 23.9696 17.2601 23.6113 17.6184C23.2529 17.9767 22.7671 18.1781 22.2603 18.1786ZM16.589 19.852C16.9501 19.5449 17.2082 19.1345 17.3286 18.676C17.449 18.2176 17.4258 17.7332 17.2622 17.2884C17.0986 16.8435 16.8024 16.4595 16.4137 16.1883C16.025 15.9171 15.5624 15.7717 15.0884 15.7717C14.6144 15.7717 14.1518 15.9171 13.7631 16.1883C13.3744 16.4595 13.0782 16.8435 12.9146 17.2884C12.751 17.7332 12.7278 18.2176 12.8482 18.676C12.9686 19.1345 13.2267 19.5449 13.5878 19.852C12.9022 20.1463 12.3179 20.635 11.9071 21.2578C11.4962 21.8805 11.2768 22.6099 11.276 23.356V24.7175C11.2764 25.0252 11.3988 25.3202 11.6164 25.5378C11.834 25.7554 12.129 25.8778 12.4367 25.8782H17.7401C18.0479 25.8779 18.343 25.7556 18.5607 25.538C18.7784 25.3204 18.9009 25.0253 18.9012 24.7175L18.9012 23.356C18.9004 22.6099 18.6809 21.8804 18.27 21.2577C17.8591 20.6349 17.2747 20.1463 16.589 19.852ZM15.0884 16.6609C15.3734 16.6609 15.6521 16.7454 15.8891 16.9038C16.126 17.0621 16.3108 17.2872 16.4198 17.5506C16.5289 17.8139 16.5574 18.1036 16.5018 18.3832C16.4462 18.6627 16.309 18.9195 16.1074 19.1211C15.9059 19.3226 15.6491 19.4599 15.3696 19.5155C15.09 19.5711 14.8002 19.5425 14.5369 19.4335C14.2736 19.3244 14.0485 19.1397 13.8902 18.9027C13.7318 18.6657 13.6473 18.3871 13.6473 18.102C13.6479 17.72 13.7999 17.3538 14.07 17.0837C14.3402 16.8135 14.7064 16.6615 15.0884 16.6609ZM18.0262 24.7175C18.0261 24.7933 17.9959 24.866 17.9423 24.9195C17.8886 24.9731 17.8159 25.0032 17.7401 25.0032H12.4367C12.361 25.0031 12.2884 24.9729 12.2348 24.9194C12.1813 24.8658 12.1511 24.7932 12.151 24.7175V23.356C12.151 22.9702 12.227 22.5882 12.3746 22.2318C12.5223 21.8754 12.7387 21.5516 13.0114 21.2788C13.2842 21.006 13.6081 20.7896 13.9645 20.642C14.3209 20.4944 14.7029 20.4184 15.0886 20.4184C15.4744 20.4184 15.8564 20.4944 16.2128 20.642C16.5692 20.7896 16.893 21.006 17.1658 21.2788C17.4386 21.5516 17.655 21.8754 17.8026 22.2318C17.9502 22.5882 18.0262 22.9702 18.0262 23.356V24.7175ZM14.4085 14.3129C14.4835 14.3676 14.5739 14.3971 14.6667 14.3971C14.7595 14.3971 14.8499 14.3676 14.9248 14.3129C16.8009 12.9258 18.5559 11.382 20.1708 9.69811C22.4108 7.23498 21.3289 4.77011 21.2812 4.66642C20.2575 2.42292 17.3853 0.899548 14.7073 3.4423C14.2497 2.89105 13.303 2.13199 11.5587 2.13199C9.23116 2.13199 8.09891 4.56273 8.05209 4.66642C8.00441 4.77011 6.92247 7.23498 9.16247 9.69767C10.7773 11.3817 12.5326 12.9256 14.4085 14.3129ZM8.84791 5.02911C8.85753 5.00899 9.79859 3.00699 11.5587 3.00699C13.639 3.00699 14.241 4.29411 14.2642 4.3453C14.2961 4.41734 14.3469 4.47949 14.411 4.52528C14.4752 4.57107 14.5504 4.59883 14.629 4.60567C14.7075 4.6125 14.7864 4.59816 14.8575 4.56414C14.9286 4.53012 14.9893 4.47767 15.0333 4.41224C15.3472 3.97854 15.7591 3.62518 16.2355 3.38097C16.7119 3.13676 17.2393 3.00861 17.7747 3.00699C19.5347 3.00699 20.4758 5.00898 20.4841 5.02648C20.5208 5.10961 21.3648 7.08536 19.5233 9.10923C18.0241 10.6735 16.3998 12.113 14.6667 13.4134C12.9336 12.113 11.3095 10.6735 9.81041 9.10923C7.96853 7.08492 8.81291 5.10917 8.84791 5.02911Z"/>
</mask>
<path d="M11.6523 19.6609C11.0588 18.8102 10.2168 18.1638 9.24166 17.8102C9.76472 17.4395 10.1563 16.912 10.3597 16.304C10.5631 15.696 10.5678 15.039 10.3731 14.4282C10.1784 13.8174 9.79441 13.2843 9.2767 12.9061C8.75899 12.528 8.1344 12.3243 7.49328 12.3246C6.85216 12.325 6.22777 12.5292 5.71044 12.9079C5.19311 13.2866 4.80967 13.8201 4.6156 14.4311C4.42152 15.0421 4.42687 15.6991 4.63088 16.3069C4.83489 16.9147 5.22697 17.4418 5.75041 17.812C4.77426 18.1697 3.93129 18.8182 3.33518 19.67C2.73907 20.5218 2.41849 21.5358 2.41666 22.5755L2.41666 24.448C2.417 24.8273 2.56784 25.191 2.83606 25.4592C3.10428 25.7274 3.46796 25.8783 3.84728 25.8786L10.0685 25.8786C10.1846 25.8786 10.2958 25.8325 10.3779 25.7505C10.4599 25.6684 10.506 25.5571 10.506 25.4411C10.506 25.3251 10.4599 25.2138 10.3779 25.1318C10.2958 25.0497 10.1846 25.0036 10.0685 25.0036L3.84728 25.0036C3.70003 25.0035 3.55884 24.945 3.45468 24.8409C3.35052 24.7368 3.29189 24.5957 3.29166 24.4484L3.29166 22.5759C3.28994 21.6816 3.57372 20.8101 4.10169 20.0883C4.62967 19.3665 5.37426 18.832 6.22707 18.5627C7.07988 18.2935 7.99638 18.3034 8.84312 18.5912C9.68986 18.879 10.4226 19.4295 10.9348 20.1627C11.0013 20.2578 11.1029 20.3226 11.2173 20.3429C11.3316 20.3631 11.4493 20.3371 11.5444 20.2705C11.6396 20.204 11.7044 20.1024 11.7246 19.988C11.7448 19.8737 11.7188 19.756 11.6523 19.6609ZM7.49472 17.4961C7.07029 17.4961 6.6554 17.3703 6.3025 17.1345C5.9496 16.8987 5.67455 16.5635 5.51213 16.1714C5.34971 15.7793 5.30721 15.3478 5.39002 14.9315C5.47282 14.5152 5.6772 14.1329 5.97731 13.8328C6.27743 13.5326 6.6598 13.3283 7.07607 13.2455C7.49234 13.1627 7.92381 13.2052 8.31593 13.3676C8.70805 13.53 9.0432 13.8051 9.279 14.158C9.5148 14.5108 9.64066 14.9257 9.64066 15.3502C9.64008 15.9191 9.4138 16.4646 9.01149 16.8669C8.60917 17.2693 8.06368 17.4955 7.49472 17.4961ZM25.5538 19.5397C25.0923 19.0808 24.5399 18.7236 23.932 18.491C24.4 18.1401 24.7456 17.6508 24.92 17.0925C25.0943 16.5342 25.0885 15.9351 24.9034 15.3803C24.7183 14.8254 24.3632 14.3429 23.8886 14.0012C23.4139 13.6594 22.8437 13.4756 22.2588 13.476C21.6739 13.4764 21.1039 13.6609 20.6297 14.0033C20.1555 14.3457 19.8011 14.8287 19.6167 15.3837C19.4323 15.9388 19.4273 16.5379 19.6024 17.096C19.7774 17.654 20.1237 18.1429 20.5922 18.4932C19.8634 18.7701 19.2166 19.2269 18.7118 19.821C18.6368 19.9096 18.6001 20.0243 18.6098 20.14C18.6194 20.2556 18.6746 20.3627 18.7632 20.4376C18.8518 20.5126 18.9665 20.5493 19.0822 20.5396C19.1978 20.53 19.3049 20.4748 19.3798 20.3862C19.8805 19.7956 20.5505 19.3731 21.2992 19.1757C22.0479 18.9783 22.8392 19.0157 23.5659 19.2827C24.2927 19.5498 24.9199 20.0336 25.3627 20.6688C25.8055 21.3039 26.0425 22.0598 26.0417 22.834L26.0417 24.5359C26.0414 24.66 25.992 24.7789 25.9043 24.8667C25.8165 24.9544 25.6976 25.0038 25.5735 25.004L20.1048 25.004C19.9888 25.004 19.8775 25.0501 19.7954 25.1322C19.7134 25.2142 19.6673 25.3255 19.6673 25.4415C19.6673 25.5576 19.7134 25.6689 19.7954 25.7509C19.8775 25.833 19.9888 25.879 20.1048 25.879L25.5735 25.879C25.9296 25.8786 26.271 25.7369 26.5228 25.4851C26.7745 25.2334 26.9162 24.892 26.9167 24.5359L26.9167 22.834C26.9178 22.2222 26.798 21.6162 26.5641 21.0508C26.3302 20.4854 25.9869 19.9719 25.5538 19.5397ZM22.2603 18.1786C21.8824 18.1785 21.513 18.0664 21.1988 17.8563C20.8846 17.6463 20.6397 17.3478 20.4951 16.9986C20.3506 16.6494 20.3128 16.2652 20.3866 15.8945C20.4603 15.5239 20.6424 15.1834 20.9097 14.9162C21.1769 14.649 21.5174 14.467 21.8881 14.3933C22.2588 14.3196 22.643 14.3575 22.9922 14.5021C23.3414 14.6468 23.6398 14.8917 23.8498 15.206C24.0597 15.5202 24.1718 15.8897 24.1718 16.2676C24.1712 16.7743 23.9696 17.2601 23.6113 17.6184C23.2529 17.9767 22.7671 18.1781 22.2603 18.1786ZM16.589 19.852C16.9501 19.5449 17.2082 19.1345 17.3286 18.676C17.449 18.2176 17.4258 17.7332 17.2622 17.2884C17.0986 16.8435 16.8024 16.4595 16.4137 16.1883C16.025 15.9171 15.5624 15.7717 15.0884 15.7717C14.6144 15.7717 14.1518 15.9171 13.7631 16.1883C13.3744 16.4595 13.0782 16.8435 12.9146 17.2884C12.751 17.7332 12.7278 18.2176 12.8482 18.676C12.9686 19.1345 13.2267 19.5449 13.5878 19.852C12.9022 20.1463 12.3179 20.635 11.9071 21.2578C11.4962 21.8805 11.2768 22.6099 11.276 23.356V24.7175C11.2764 25.0252 11.3988 25.3202 11.6164 25.5378C11.834 25.7554 12.129 25.8778 12.4367 25.8782H17.7401C18.0479 25.8779 18.343 25.7556 18.5607 25.538C18.7784 25.3204 18.9009 25.0253 18.9012 24.7175L18.9012 23.356C18.9004 22.6099 18.6809 21.8804 18.27 21.2577C17.8591 20.6349 17.2747 20.1463 16.589 19.852ZM15.0884 16.6609C15.3734 16.6609 15.6521 16.7454 15.8891 16.9038C16.126 17.0621 16.3108 17.2872 16.4198 17.5506C16.5289 17.8139 16.5574 18.1036 16.5018 18.3832C16.4462 18.6627 16.309 18.9195 16.1074 19.1211C15.9059 19.3226 15.6491 19.4599 15.3696 19.5155C15.09 19.5711 14.8002 19.5425 14.5369 19.4335C14.2736 19.3244 14.0485 19.1397 13.8902 18.9027C13.7318 18.6657 13.6473 18.3871 13.6473 18.102C13.6479 17.72 13.7999 17.3538 14.07 17.0837C14.3402 16.8135 14.7064 16.6615 15.0884 16.6609ZM18.0262 24.7175C18.0261 24.7933 17.9959 24.866 17.9423 24.9195C17.8886 24.9731 17.8159 25.0032 17.7401 25.0032H12.4367C12.361 25.0031 12.2884 24.9729 12.2348 24.9194C12.1813 24.8658 12.1511 24.7932 12.151 24.7175V23.356C12.151 22.9702 12.227 22.5882 12.3746 22.2318C12.5223 21.8754 12.7387 21.5516 13.0114 21.2788C13.2842 21.006 13.6081 20.7896 13.9645 20.642C14.3209 20.4944 14.7029 20.4184 15.0886 20.4184C15.4744 20.4184 15.8564 20.4944 16.2128 20.642C16.5692 20.7896 16.893 21.006 17.1658 21.2788C17.4386 21.5516 17.655 21.8754 17.8026 22.2318C17.9502 22.5882 18.0262 22.9702 18.0262 23.356V24.7175ZM14.4085 14.3129C14.4835 14.3676 14.5739 14.3971 14.6667 14.3971C14.7595 14.3971 14.8499 14.3676 14.9248 14.3129C16.8009 12.9258 18.5559 11.382 20.1708 9.69811C22.4108 7.23498 21.3289 4.77011 21.2812 4.66642C20.2575 2.42292 17.3853 0.899548 14.7073 3.4423C14.2497 2.89105 13.303 2.13199 11.5587 2.13199C9.23116 2.13199 8.09891 4.56273 8.05209 4.66642C8.00441 4.77011 6.92247 7.23498 9.16247 9.69767C10.7773 11.3817 12.5326 12.9256 14.4085 14.3129ZM8.84791 5.02911C8.85753 5.00899 9.79859 3.00699 11.5587 3.00699C13.639 3.00699 14.241 4.29411 14.2642 4.3453C14.2961 4.41734 14.3469 4.47949 14.411 4.52528C14.4752 4.57107 14.5504 4.59883 14.629 4.60567C14.7075 4.6125 14.7864 4.59816 14.8575 4.56414C14.9286 4.53012 14.9893 4.47767 15.0333 4.41224C15.3472 3.97854 15.7591 3.62518 16.2355 3.38097C16.7119 3.13676 17.2393 3.00861 17.7747 3.00699C19.5347 3.00699 20.4758 5.00898 20.4841 5.02648C20.5208 5.10961 21.3648 7.08536 19.5233 9.10923C18.0241 10.6735 16.3998 12.113 14.6667 13.4134C12.9336 12.113 11.3095 10.6735 9.81041 9.10923C7.96853 7.08492 8.81291 5.10917 8.84791 5.02911Z" fill="#55C7D5"/>
<path d="M11.6523 19.6609C11.0588 18.8102 10.2168 18.1638 9.24166 17.8102C9.76472 17.4395 10.1563 16.912 10.3597 16.304C10.5631 15.696 10.5678 15.039 10.3731 14.4282C10.1784 13.8174 9.79441 13.2843 9.2767 12.9061C8.75899 12.528 8.1344 12.3243 7.49328 12.3246C6.85216 12.325 6.22777 12.5292 5.71044 12.9079C5.19311 13.2866 4.80967 13.8201 4.6156 14.4311C4.42152 15.0421 4.42687 15.6991 4.63088 16.3069C4.83489 16.9147 5.22697 17.4418 5.75041 17.812C4.77426 18.1697 3.93129 18.8182 3.33518 19.67C2.73907 20.5218 2.41849 21.5358 2.41666 22.5755L2.41666 24.448C2.417 24.8273 2.56784 25.191 2.83606 25.4592C3.10428 25.7274 3.46796 25.8783 3.84728 25.8786L10.0685 25.8786C10.1846 25.8786 10.2958 25.8325 10.3779 25.7505C10.4599 25.6684 10.506 25.5571 10.506 25.4411C10.506 25.3251 10.4599 25.2138 10.3779 25.1318C10.2958 25.0497 10.1846 25.0036 10.0685 25.0036L3.84728 25.0036C3.70003 25.0035 3.55884 24.945 3.45468 24.8409C3.35052 24.7368 3.29189 24.5957 3.29166 24.4484L3.29166 22.5759C3.28994 21.6816 3.57372 20.8101 4.10169 20.0883C4.62967 19.3665 5.37426 18.832 6.22707 18.5627C7.07988 18.2935 7.99638 18.3034 8.84312 18.5912C9.68986 18.879 10.4226 19.4295 10.9348 20.1627C11.0013 20.2578 11.1029 20.3226 11.2173 20.3429C11.3316 20.3631 11.4493 20.3371 11.5444 20.2705C11.6396 20.204 11.7044 20.1024 11.7246 19.988C11.7448 19.8737 11.7188 19.756 11.6523 19.6609ZM7.49472 17.4961C7.07029 17.4961 6.6554 17.3703 6.3025 17.1345C5.9496 16.8987 5.67455 16.5635 5.51213 16.1714C5.34971 15.7793 5.30721 15.3478 5.39002 14.9315C5.47282 14.5152 5.6772 14.1329 5.97731 13.8328C6.27743 13.5326 6.6598 13.3283 7.07607 13.2455C7.49234 13.1627 7.92381 13.2052 8.31593 13.3676C8.70805 13.53 9.0432 13.8051 9.279 14.158C9.5148 14.5108 9.64066 14.9257 9.64066 15.3502C9.64008 15.9191 9.4138 16.4646 9.01149 16.8669C8.60917 17.2693 8.06368 17.4955 7.49472 17.4961ZM25.5538 19.5397C25.0923 19.0808 24.5399 18.7236 23.932 18.491C24.4 18.1401 24.7456 17.6508 24.92 17.0925C25.0943 16.5342 25.0885 15.9351 24.9034 15.3803C24.7183 14.8254 24.3632 14.3429 23.8886 14.0012C23.4139 13.6594 22.8437 13.4756 22.2588 13.476C21.6739 13.4764 21.1039 13.6609 20.6297 14.0033C20.1555 14.3457 19.8011 14.8287 19.6167 15.3837C19.4323 15.9388 19.4273 16.5379 19.6024 17.096C19.7774 17.654 20.1237 18.1429 20.5922 18.4932C19.8634 18.7701 19.2166 19.2269 18.7118 19.821C18.6368 19.9096 18.6001 20.0243 18.6098 20.14C18.6194 20.2556 18.6746 20.3627 18.7632 20.4376C18.8518 20.5126 18.9665 20.5493 19.0822 20.5396C19.1978 20.53 19.3049 20.4748 19.3798 20.3862C19.8805 19.7956 20.5505 19.3731 21.2992 19.1757C22.0479 18.9783 22.8392 19.0157 23.5659 19.2827C24.2927 19.5498 24.9199 20.0336 25.3627 20.6688C25.8055 21.3039 26.0425 22.0598 26.0417 22.834L26.0417 24.5359C26.0414 24.66 25.992 24.7789 25.9043 24.8667C25.8165 24.9544 25.6976 25.0038 25.5735 25.004L20.1048 25.004C19.9888 25.004 19.8775 25.0501 19.7954 25.1322C19.7134 25.2142 19.6673 25.3255 19.6673 25.4415C19.6673 25.5576 19.7134 25.6689 19.7954 25.7509C19.8775 25.833 19.9888 25.879 20.1048 25.879L25.5735 25.879C25.9296 25.8786 26.271 25.7369 26.5228 25.4851C26.7745 25.2334 26.9162 24.892 26.9167 24.5359L26.9167 22.834C26.9178 22.2222 26.798 21.6162 26.5641 21.0508C26.3302 20.4854 25.9869 19.9719 25.5538 19.5397ZM22.2603 18.1786C21.8824 18.1785 21.513 18.0664 21.1988 17.8563C20.8846 17.6463 20.6397 17.3478 20.4951 16.9986C20.3506 16.6494 20.3128 16.2652 20.3866 15.8945C20.4603 15.5239 20.6424 15.1834 20.9097 14.9162C21.1769 14.649 21.5174 14.467 21.8881 14.3933C22.2588 14.3196 22.643 14.3575 22.9922 14.5021C23.3414 14.6468 23.6398 14.8917 23.8498 15.206C24.0597 15.5202 24.1718 15.8897 24.1718 16.2676C24.1712 16.7743 23.9696 17.2601 23.6113 17.6184C23.2529 17.9767 22.7671 18.1781 22.2603 18.1786ZM16.589 19.852C16.9501 19.5449 17.2082 19.1345 17.3286 18.676C17.449 18.2176 17.4258 17.7332 17.2622 17.2884C17.0986 16.8435 16.8024 16.4595 16.4137 16.1883C16.025 15.9171 15.5624 15.7717 15.0884 15.7717C14.6144 15.7717 14.1518 15.9171 13.7631 16.1883C13.3744 16.4595 13.0782 16.8435 12.9146 17.2884C12.751 17.7332 12.7278 18.2176 12.8482 18.676C12.9686 19.1345 13.2267 19.5449 13.5878 19.852C12.9022 20.1463 12.3179 20.635 11.9071 21.2578C11.4962 21.8805 11.2768 22.6099 11.276 23.356V24.7175C11.2764 25.0252 11.3988 25.3202 11.6164 25.5378C11.834 25.7554 12.129 25.8778 12.4367 25.8782H17.7401C18.0479 25.8779 18.343 25.7556 18.5607 25.538C18.7784 25.3204 18.9009 25.0253 18.9012 24.7175L18.9012 23.356C18.9004 22.6099 18.6809 21.8804 18.27 21.2577C17.8591 20.6349 17.2747 20.1463 16.589 19.852ZM15.0884 16.6609C15.3734 16.6609 15.6521 16.7454 15.8891 16.9038C16.126 17.0621 16.3108 17.2872 16.4198 17.5506C16.5289 17.8139 16.5574 18.1036 16.5018 18.3832C16.4462 18.6627 16.309 18.9195 16.1074 19.1211C15.9059 19.3226 15.6491 19.4599 15.3696 19.5155C15.09 19.5711 14.8002 19.5425 14.5369 19.4335C14.2736 19.3244 14.0485 19.1397 13.8902 18.9027C13.7318 18.6657 13.6473 18.3871 13.6473 18.102C13.6479 17.72 13.7999 17.3538 14.07 17.0837C14.3402 16.8135 14.7064 16.6615 15.0884 16.6609ZM18.0262 24.7175C18.0261 24.7933 17.9959 24.866 17.9423 24.9195C17.8886 24.9731 17.8159 25.0032 17.7401 25.0032H12.4367C12.361 25.0031 12.2884 24.9729 12.2348 24.9194C12.1813 24.8658 12.1511 24.7932 12.151 24.7175V23.356C12.151 22.9702 12.227 22.5882 12.3746 22.2318C12.5223 21.8754 12.7387 21.5516 13.0114 21.2788C13.2842 21.006 13.6081 20.7896 13.9645 20.642C14.3209 20.4944 14.7029 20.4184 15.0886 20.4184C15.4744 20.4184 15.8564 20.4944 16.2128 20.642C16.5692 20.7896 16.893 21.006 17.1658 21.2788C17.4386 21.5516 17.655 21.8754 17.8026 22.2318C17.9502 22.5882 18.0262 22.9702 18.0262 23.356V24.7175ZM14.4085 14.3129C14.4835 14.3676 14.5739 14.3971 14.6667 14.3971C14.7595 14.3971 14.8499 14.3676 14.9248 14.3129C16.8009 12.9258 18.5559 11.382 20.1708 9.69811C22.4108 7.23498 21.3289 4.77011 21.2812 4.66642C20.2575 2.42292 17.3853 0.899548 14.7073 3.4423C14.2497 2.89105 13.303 2.13199 11.5587 2.13199C9.23116 2.13199 8.09891 4.56273 8.05209 4.66642C8.00441 4.77011 6.92247 7.23498 9.16247 9.69767C10.7773 11.3817 12.5326 12.9256 14.4085 14.3129ZM8.84791 5.02911C8.85753 5.00899 9.79859 3.00699 11.5587 3.00699C13.639 3.00699 14.241 4.29411 14.2642 4.3453C14.2961 4.41734 14.3469 4.47949 14.411 4.52528C14.4752 4.57107 14.5504 4.59883 14.629 4.60567C14.7075 4.6125 14.7864 4.59816 14.8575 4.56414C14.9286 4.53012 14.9893 4.47767 15.0333 4.41224C15.3472 3.97854 15.7591 3.62518 16.2355 3.38097C16.7119 3.13676 17.2393 3.00861 17.7747 3.00699C19.5347 3.00699 20.4758 5.00898 20.4841 5.02648C20.5208 5.10961 21.3648 7.08536 19.5233 9.10923C18.0241 10.6735 16.3998 12.113 14.6667 13.4134C12.9336 12.113 11.3095 10.6735 9.81041 9.10923C7.96853 7.08492 8.81291 5.10917 8.84791 5.02911Z" stroke="#55C7D5" stroke-width="0.6" mask="url(#path-1-outside-1_303_29868)"/>
</svg>
