<svg width="20" height="21" viewBox="0 0 20 21" fill="none" xmlns="http://www.w3.org/2000/svg">
<path d="M5.41699 8.04883H1.66699V18.4655H5.41699V8.04883Z" fill="black"/>
<path d="M5.41699 3.67383C5.41699 4.70936 4.57753 5.54883 3.54199 5.54883C2.50646 5.54883 1.66699 4.70936 1.66699 3.67383C1.66699 2.63829 2.50646 1.79883 3.54199 1.79883C4.57753 1.79883 5.41699 2.63829 5.41699 3.67383Z" fill="black"/>
<path d="M11.6671 8.04883H7.91699V18.4655H11.6671V13.2573C11.6671 12.4519 12.3199 11.799 13.1253 11.799C13.9307 11.799 14.5837 12.4519 14.5837 13.2573V18.4655H18.3326L18.3337 11.799C18.3337 9.72799 16.364 8.04903 14.4143 8.04903C13.3044 8.04903 12.3142 8.59308 11.6671 9.44383V8.04883Z" fill="black"/>
</svg>
