<svg width="18" height="19" viewBox="0 0 18 19" fill="none" xmlns="http://www.w3.org/2000/svg">
<path fill-rule="evenodd" clip-rule="evenodd" d="M3.85497 5.31919C3.85497 2.47749 6.15862 0.173828 9.00035 0.173828C11.842 0.173828 14.1457 2.47749 14.1457 5.31919C14.1457 7.32269 14.2035 8.67458 14.647 9.72466C15.0656 10.7157 15.8663 11.5115 17.5843 12.2633C17.8293 12.3705 17.9788 12.6217 17.9565 12.8882C17.9341 13.1547 17.7447 13.3773 17.4853 13.4422C16.5267 13.6818 16.0563 13.8304 15.7418 14.0787C15.4665 14.2961 15.2442 14.6504 15.0233 15.5337C14.9538 15.812 14.7038 16.0072 14.417 16.0072C12.9678 16.0072 12.2028 16.4594 11.5549 16.9297C11.4703 16.9911 11.3838 17.0567 11.2946 17.1246C10.7156 17.5642 10.0226 18.0905 9.00035 18.0905C7.9781 18.0905 7.28503 17.5642 6.70611 17.1246C6.61687 17.0567 6.53032 16.9911 6.44571 16.9297C5.79787 16.4594 5.03282 16.0072 3.58366 16.0072C3.29687 16.0072 3.04689 15.812 2.97733 15.5337C2.75682 14.6517 2.53596 14.3134 2.267 14.1082C1.95144 13.8673 1.48296 13.7304 0.515415 13.4885C0.25599 13.4237 0.0665732 13.2009 0.0441982 12.9345C0.0218149 12.668 0.171448 12.4168 0.416423 12.3096C2.13094 11.5592 2.93303 10.7533 3.3528 9.74975C3.79736 8.687 3.85497 7.32206 3.85497 5.31919Z" fill="black"/>
</svg>
