<svg width="31" height="31" viewBox="0 0 31 31" fill="none" xmlns="http://www.w3.org/2000/svg">
<path fill-rule="evenodd" clip-rule="evenodd" d="M16.125 2.375C16.8154 2.375 17.375 2.93464 17.375 3.625V5.01451C18.9135 5.2472 20.3174 5.76303 21.4497 6.50202C23.0172 7.5251 24.1979 9.08328 24.1979 10.9861C24.1979 11.6765 23.6383 12.2361 22.9479 12.2361C22.2576 12.2361 21.6979 11.6765 21.6979 10.9861C21.6979 10.2042 21.2114 9.33185 20.0833 8.59556C18.9665 7.86665 17.3496 7.375 15.5 7.375C13.6504 7.375 12.0335 7.86665 10.9167 8.59556C9.78863 9.33185 9.30208 10.2042 9.30208 10.9861C9.30208 11.4993 9.39852 11.8839 9.55739 12.1822C9.713 12.4744 9.96452 12.752 10.3847 13.0024C11.2736 13.5321 12.8566 13.9028 15.5 13.9028C18.2647 13.9028 20.5707 14.2479 22.2184 15.1985C23.0676 15.6884 23.7513 16.3445 24.2137 17.1893C24.6731 18.0286 24.875 18.9825 24.875 20.0139C24.875 22.2974 23.6293 23.8953 21.8318 24.8504C20.5723 25.5196 19.0269 25.8906 17.375 26.0424V27.375C17.375 28.0654 16.8154 28.625 16.125 28.625C15.4346 28.625 14.875 28.0654 14.875 27.375V26.112C12.6835 26.0206 10.662 25.4507 9.11299 24.5239C7.44316 23.5248 6.125 21.9696 6.125 20.0139C6.125 19.3235 6.68464 18.7639 7.375 18.7639C8.06536 18.7639 8.625 19.3235 8.625 20.0139C8.625 20.7429 9.12568 21.6182 10.3965 22.3785C11.6419 23.1237 13.4433 23.625 15.5 23.625C17.6475 23.625 19.4451 23.2875 20.6587 22.6427C21.8018 22.0353 22.375 21.2026 22.375 20.0139C22.375 19.3092 22.2384 18.7873 22.0207 18.3897C21.806 17.9975 21.4741 17.6553 20.9691 17.364C19.9085 16.7521 18.152 16.4028 15.5 16.4028C12.7268 16.4028 10.5858 16.0325 9.10491 15.15C8.34017 14.6943 7.74534 14.0981 7.35082 13.3574C6.95955 12.6227 6.80208 11.8153 6.80208 10.9861C6.80208 9.08328 7.98281 7.5251 9.55032 6.50202C10.9828 5.56703 12.8502 4.98929 14.875 4.89024V3.625C14.875 2.93464 15.4346 2.375 16.125 2.375Z" fill="black"/>
</svg>
