<svg width="25" height="25" viewBox="0 0 25 25" fill="none" xmlns="http://www.w3.org/2000/svg">
<path d="M12.4996 1.75C11.8523 1.75 11.3873 2.15936 11.1411 2.40644C11.0379 2.51001 10.9419 2.63129 10.8449 2.75393C10.6613 2.98602 10.4738 3.223 10.2259 3.35411C9.95991 3.49481 9.62851 3.39996 9.34318 3.3183C9.29252 3.3038 9.2433 3.28972 9.19616 3.27744C8.89823 3.19989 8.44413 3.08244 7.96294 3.14649C7.75384 3.17432 7.47947 3.24083 7.2669 3.4301C7.01515 3.65425 6.97452 3.93315 7.01133 4.14394C7.05611 4.4004 7.21495 4.61086 7.37087 4.81102L8.2632 5.9599C8.27661 5.97722 8.29001 5.99456 8.30343 6.01191C8.52 6.29212 8.73866 6.57503 9.02644 6.78636C9.25282 6.9526 9.53927 7 9.82014 7H15.1791C15.4599 7 15.7464 6.9526 15.9728 6.78636C16.2605 6.57504 16.4792 6.29215 16.6958 6.01194C16.7092 5.99458 16.7226 5.97723 16.736 5.9599L17.6283 4.81102C17.7843 4.61086 17.9431 4.40039 17.9879 4.14394C18.0247 3.93315 17.9841 3.65425 17.7323 3.4301C17.5197 3.24083 17.2454 3.17432 17.0363 3.14649C16.5551 3.08244 16.101 3.19989 15.803 3.27744C15.7559 3.28972 15.7067 3.30381 15.656 3.31831C15.3707 3.39996 15.0393 3.49481 14.7733 3.35411C14.5254 3.223 14.3379 2.98602 14.1543 2.75393C14.0573 2.63129 13.9613 2.51001 13.8581 2.40644C13.6119 2.15936 13.1469 1.75 12.4996 1.75Z" fill="black"/>
<path d="M21.9337 17.3954C21.3803 14.0816 19.7506 10.9506 17.3353 8.61274C17.2346 8.51526 17.1842 8.4665 17.0722 8.38473C16.8472 8.22042 16.4449 8.0576 16.1689 8.01914C16.0316 8 15.9328 8 15.7353 8H9.26394C9.06642 8 8.96765 8 8.8303 8.01914C8.55432 8.0576 8.15201 8.22042 7.92696 8.38473C7.82281 8.46078 7.7303 8.54847 7.63784 8.63796C5.81971 10.3974 3.73559 13.383 3.06548 17.3954C2.78218 19.0918 3.43693 20.5804 4.56214 21.62C5.6761 22.6493 7.25546 23.25 8.90266 23.25H16.0965C17.7437 23.25 19.3231 22.6493 20.4371 21.62C21.5623 20.5804 22.217 19.0918 21.9337 17.3954Z" fill="black"/>
</svg>
