<svg width="241" height="242" viewBox="0 0 241 242" fill="none" xmlns="http://www.w3.org/2000/svg">
<path d="M225.938 219.314H15.0625C13.0651 219.314 11.1495 220.111 9.7371 221.529C8.32472 222.947 7.53125 224.871 7.53125 226.877C7.53125 228.882 8.32472 230.806 9.7371 232.224C11.1495 233.642 13.0651 234.439 15.0625 234.439H225.938C227.935 234.439 229.851 233.642 231.263 232.224C232.675 230.806 233.469 228.882 233.469 226.877C233.469 224.871 232.675 222.947 231.263 221.529C229.851 220.111 227.935 219.314 225.938 219.314ZM79.0781 151.252C79.0781 149.246 78.2847 147.322 76.8723 145.904C75.4599 144.486 73.5443 143.689 71.5469 143.689H33.8906C31.8932 143.689 29.9776 144.486 28.5652 145.904C27.1528 147.322 26.3594 149.246 26.3594 151.252V204.189H79.0781V151.252ZM146.859 121.002C146.859 118.996 146.066 117.072 144.654 115.654C143.241 114.236 141.326 113.439 139.328 113.439H101.672C99.6745 113.439 97.7589 114.236 96.3465 115.654C94.9341 117.072 94.1406 118.996 94.1406 121.002V204.189H146.859V121.002ZM214.641 90.7517C214.641 88.746 213.847 86.8225 212.435 85.4042C211.022 83.986 209.107 83.1892 207.109 83.1892H169.453C167.456 83.1892 165.54 83.986 164.128 85.4042C162.715 86.8225 161.922 88.746 161.922 90.7517V204.189H214.641V90.7517ZM225.938 7.56421H188.281C186.284 7.56421 184.368 8.36097 182.956 9.77921C181.543 11.1975 180.75 13.121 180.75 15.1267V68.0642H195.812V52.9392H225.938C227.935 52.9392 229.851 52.1424 231.263 50.7242C232.675 49.306 233.469 47.3824 233.469 45.3767V15.1267C233.469 13.121 232.675 11.1975 231.263 9.77921C229.851 8.36097 227.935 7.56421 225.938 7.56421Z" fill="#BDE9EF"/>
</svg>
