<svg width="28" height="29" viewBox="0 0 28 29" fill="none" xmlns="http://www.w3.org/2000/svg">
<path d="M26.25 26.1577H1.75C1.51794 26.1577 1.29538 26.2499 1.13128 26.414C0.967187 26.5781 0.875 26.8007 0.875 27.0327C0.875 27.2648 0.967187 27.4873 1.13128 27.6514C1.29538 27.8155 1.51794 27.9077 1.75 27.9077H26.25C26.4821 27.9077 26.7046 27.8155 26.8687 27.6514C27.0328 27.4873 27.125 27.2648 27.125 27.0327C27.125 26.8007 27.0328 26.5781 26.8687 26.414C26.7046 26.2499 26.4821 26.1577 26.25 26.1577ZM9.1875 18.2827C9.1875 18.0507 9.09531 17.8281 8.93122 17.664C8.76712 17.4999 8.54456 17.4077 8.3125 17.4077H3.9375C3.70544 17.4077 3.48288 17.4999 3.31878 17.664C3.15469 17.8281 3.0625 18.0507 3.0625 18.2827V24.4077H9.1875V18.2827ZM17.0625 14.7827C17.0625 14.5507 16.9703 14.3281 16.8062 14.164C16.6421 13.9999 16.4196 13.9077 16.1875 13.9077H11.8125C11.5804 13.9077 11.3579 13.9999 11.1938 14.164C11.0297 14.3281 10.9375 14.5507 10.9375 14.7827V24.4077H17.0625V14.7827ZM24.9375 11.2827C24.9375 11.0507 24.8453 10.8281 24.6812 10.664C24.5171 10.4999 24.2946 10.4077 24.0625 10.4077H19.6875C19.4554 10.4077 19.2329 10.4999 19.0688 10.664C18.9047 10.8281 18.8125 11.0507 18.8125 11.2827V24.4077H24.9375V11.2827ZM26.25 1.65771H21.875C21.6429 1.65771 21.4204 1.7499 21.2563 1.914C21.0922 2.07809 21 2.30065 21 2.53271V8.65771H22.75V6.90771H26.25C26.4821 6.90771 26.7046 6.81553 26.8687 6.65143C27.0328 6.48734 27.125 6.26478 27.125 6.03271V2.53271C27.125 2.30065 27.0328 2.07809 26.8687 1.914C26.7046 1.7499 26.4821 1.65771 26.25 1.65771Z" fill="black"/>
</svg>
