<svg width="256" height="256" viewBox="0 0 256 256" fill="none" xmlns="http://www.w3.org/2000/svg">
<g opacity="0.4">
<path d="M108 180C108.021 164.758 112.871 149.914 121.854 137.6C130.838 125.287 143.492 116.137 158 111.464C156.683 107.555 156.008 103.458 156 99.332C155.988 92.843 153.884 86.531 150 81.332L146 76C144.706 74.2671 144.005 72.163 144 70C144 69.4696 143.79 68.9609 143.415 68.5858C143.04 68.2108 142.531 68 142 68C139.348 68 136.805 66.9465 134.929 65.0711C133.054 63.1958 132 60.6522 132 58C132 57.4696 131.79 56.9609 131.415 56.5858C131.04 56.2108 130.531 56 130 56C122.529 56.0133 115.149 54.3599 108.397 51.1602C101.646 47.9606 95.693 43.2952 90.9724 37.504L81.2684 25.648C77.7851 21.3755 73.3929 17.9335 68.4115 15.5725C63.4301 13.2116 57.985 11.9911 52.4724 12C51.8709 11.9978 51.2807 12.1641 50.7689 12.4802C50.257 12.7962 49.8439 13.2493 49.5764 13.788C48.6491 15.6587 47.2162 17.2322 45.4403 18.3301C43.6643 19.4281 41.6163 20.0066 39.5284 20H29.2004C28.936 19.991 28.676 20.0696 28.4609 20.2236C28.2458 20.3777 28.0876 20.5985 28.0109 20.8517C27.9343 21.1049 27.9434 21.3764 28.037 21.6238C28.1306 21.8713 28.3034 22.0809 28.5284 22.22L33.5124 25.42C35.4947 26.6949 37.136 28.4341 38.2938 30.487C39.4516 32.5398 40.091 34.8441 40.1564 37.2C40.2793 39.8385 39.7141 42.4635 38.5163 44.8176C37.3186 47.1717 35.5295 49.174 33.3244 50.628C28.073 54.1222 21.9081 55.9908 15.6004 56C15.1211 55.9706 14.6409 56.0407 14.19 56.206C13.7391 56.3712 13.3273 56.6279 12.9804 56.96C12.6714 57.2624 12.4256 57.6233 12.2573 58.0216C12.0891 58.4199 12.0018 58.8477 12.0004 59.28C11.9661 66.797 13.9869 74.1803 17.8444 80.632L32.7044 105.4C34.8602 108.994 35.9994 113.105 36.0004 117.296C36.0048 120.728 37.1723 124.057 39.3124 126.74C47.5126 137.013 51.9856 149.764 52.0004 162.908C51.9868 167.804 52.9446 172.653 54.8184 177.176C56.6922 181.699 59.4447 185.805 62.9164 189.256C68.708 195.065 71.9726 202.925 72.0004 211.128C71.9991 213.87 72.4924 216.589 73.4564 219.156L81.4564 240.46C81.9067 241.651 82.7601 242.647 83.8683 243.274C84.9765 243.902 86.2694 244.121 87.5226 243.895C88.7757 243.668 89.9098 243.009 90.7278 242.033C91.5458 241.057 91.9961 239.826 92.0004 238.552C92.0036 235.755 93.1158 233.074 95.0931 231.096C97.0705 229.117 99.7515 228.004 102.548 228H111.028C114.4 227.99 117.739 228.649 120.854 229.939C123.968 231.23 126.796 233.125 129.172 235.516C129.414 235.721 129.707 235.855 130.019 235.904C130.332 235.953 130.652 235.915 130.945 235.794C131.237 235.673 131.49 235.473 131.677 235.218C131.863 234.962 131.975 234.659 132 234.344C132 234.084 132.048 233.828 132.06 233.568C124.5 226.84 118.448 218.589 114.301 209.357C110.155 200.125 108.007 190.121 108 180Z" fill="#42E8FF"/>
<path d="M180 116C167.342 116 154.968 119.754 144.444 126.786C133.919 133.818 125.716 143.814 120.872 155.508C116.028 167.203 114.76 180.071 117.23 192.486C119.699 204.901 125.795 216.304 134.745 225.255C143.696 234.205 155.099 240.301 167.514 242.77C179.929 245.24 192.797 243.972 204.492 239.128C216.186 234.284 226.182 226.081 233.214 215.556C240.246 205.032 244 192.658 244 180C243.98 163.032 237.231 146.765 225.233 134.767C213.235 122.769 196.968 116.02 180 116ZM199.796 162.736L203.796 174.736L196.196 177.264L192.196 165.264L199.796 162.736ZM176.12 179.028L180.12 163.028L187.88 164.964L185.124 176H188V184H180C179.392 184 178.793 183.861 178.247 183.595C177.701 183.328 177.223 182.941 176.849 182.462C176.475 181.983 176.215 181.425 176.088 180.831C175.962 180.237 175.973 179.618 176.12 179.028ZM165.516 171.172L165.172 170.828L170.828 165.172L171.172 165.516C172.708 167.043 173.926 168.859 174.754 170.86C175.583 172.861 176.007 175.006 176 177.172C176 180.044 174.859 182.798 172.829 184.829C170.798 186.859 168.044 188 165.172 188H160V180H165.172C165.922 180 166.641 179.702 167.172 179.172C167.702 178.641 168 177.922 168 177.172C168.003 176.057 167.785 174.953 167.359 173.923C166.932 172.893 166.306 171.958 165.516 171.172ZM147.796 162.736L151.796 174.736L144.196 177.264L140.196 165.264L147.796 162.736ZM137.172 182.828L142.828 177.172L143.172 177.516C143.959 178.305 144.894 178.931 145.924 179.358C146.954 179.784 148.058 180.002 149.172 180C149.922 180 150.641 179.702 151.172 179.172C151.702 178.641 152 177.922 152 177.172V164H160V177.172C160 180.044 158.859 182.798 156.829 184.829C154.798 186.859 152.044 188 149.172 188C147.007 188.005 144.862 187.58 142.861 186.752C140.861 185.923 139.044 184.706 137.516 183.172L137.172 182.828ZM216 212H200V204H144V196H208C211.183 196 214.235 197.264 216.485 199.515C218.736 201.765 220 204.817 220 208C220 209.061 219.579 210.078 218.828 210.828C218.078 211.579 217.061 212 216 212ZM216.8 186.4L211.72 179.628C211.164 182.009 209.819 184.132 207.904 185.651C205.99 187.171 203.617 187.999 201.172 188C199.007 188.005 196.862 187.58 194.861 186.752C192.861 185.923 191.044 184.706 189.516 183.172L189.172 182.828L194.828 177.172L195.172 177.516C195.959 178.305 196.894 178.931 197.924 179.358C198.954 179.784 200.058 180.002 201.172 180C201.922 180 202.641 179.702 203.172 179.172C203.702 178.641 204 177.922 204 177.172V168C204 167.16 204.264 166.342 204.755 165.661C205.246 164.98 205.939 164.471 206.735 164.205C207.532 163.94 208.391 163.932 209.193 164.182C209.994 164.432 210.696 164.928 211.2 165.6L223.2 181.6L216.8 186.4Z" fill="#42E8FF"/>
</g>
</svg>
