<svg width="28" height="29" viewBox="0 0 28 29" fill="none" xmlns="http://www.w3.org/2000/svg">
<path d="M11.8125 20.4697C11.8147 18.8026 12.3452 17.1791 13.3277 15.8323C14.3103 14.4855 15.6944 13.4847 17.2812 12.9736C17.1372 12.546 17.0633 12.0979 17.0625 11.6467C17.0611 10.9369 16.8309 10.2466 16.4062 9.67792L15.9687 9.09473C15.8272 8.90519 15.7505 8.67506 15.75 8.43848C15.75 8.38047 15.7269 8.32483 15.6859 8.2838C15.6449 8.24278 15.5893 8.21973 15.5312 8.21973C15.2412 8.21973 14.963 8.1045 14.7578 7.89938C14.5527 7.69426 14.4375 7.41606 14.4375 7.12598C14.4375 7.06797 14.4144 7.01233 14.3734 6.9713C14.3324 6.93028 14.2768 6.90723 14.2187 6.90723C13.4016 6.90868 12.5943 6.72784 11.8559 6.37788C11.1174 6.02791 10.4664 5.51764 9.95005 4.88423L8.88867 3.58748C8.50769 3.12017 8.02729 2.7437 7.48245 2.48547C6.93761 2.22724 6.34205 2.09376 5.73911 2.09473C5.67332 2.09449 5.60877 2.11268 5.55279 2.14724C5.4968 2.18181 5.45162 2.23136 5.42236 2.29029C5.32093 2.4949 5.16421 2.667 4.96997 2.78708C4.77573 2.90717 4.55173 2.97044 4.32336 2.96973H3.19374C3.16481 2.96874 3.13638 2.97734 3.11285 2.99419C3.08932 3.01103 3.07202 3.03518 3.06363 3.06288C3.05525 3.09058 3.05625 3.12027 3.06649 3.14734C3.07673 3.1744 3.09562 3.19733 3.12024 3.21254L3.66536 3.56254C3.88217 3.70198 4.06169 3.89221 4.18832 4.11674C4.31496 4.34127 4.38489 4.5933 4.39205 4.85098C4.40548 5.13956 4.34367 5.42667 4.21266 5.68415C4.08166 5.94163 3.88597 6.16063 3.6448 6.31967C3.07043 6.70185 2.39614 6.90622 1.70624 6.90723C1.65381 6.90401 1.60129 6.91168 1.55197 6.92975C1.50265 6.94782 1.45761 6.97591 1.41967 7.01223C1.38587 7.04531 1.35899 7.08477 1.34059 7.12834C1.32218 7.1719 1.31263 7.21869 1.31249 7.26598C1.30873 8.08815 1.52975 8.8957 1.95167 9.60136L3.57699 12.3104C3.81277 12.7034 3.93737 13.1531 3.93749 13.6115C3.93797 13.9868 4.06566 14.351 4.29974 14.6444C5.19663 15.768 5.68587 17.1626 5.68749 18.6003C5.686 19.1357 5.79076 19.6662 5.9957 20.1608C6.20065 20.6555 6.5017 21.1046 6.88142 21.4821C7.51488 22.1175 7.87194 22.9772 7.87499 23.8744C7.87484 24.1742 7.92879 24.4717 8.03424 24.7524L8.90924 27.0825C8.95849 27.2128 9.05183 27.3217 9.17303 27.3904C9.29424 27.459 9.43566 27.483 9.57272 27.4582C9.70978 27.4334 9.83382 27.3614 9.92329 27.2546C10.0128 27.1479 10.062 27.0131 10.0625 26.8739C10.0628 26.5679 10.1845 26.2747 10.4008 26.0583C10.617 25.842 10.9103 25.7202 11.2162 25.7197H12.1437C12.5124 25.7186 12.8777 25.7907 13.2183 25.9318C13.559 26.073 13.8682 26.2803 14.1282 26.5418C14.1546 26.5642 14.1866 26.5789 14.2208 26.5843C14.255 26.5896 14.29 26.5855 14.322 26.5722C14.354 26.559 14.3817 26.5371 14.4021 26.5092C14.4224 26.4812 14.4347 26.4481 14.4375 26.4136C14.4375 26.3852 14.4427 26.3572 14.444 26.3287C13.6171 25.5929 12.9552 24.6904 12.5016 23.6807C12.0481 22.6709 11.8132 21.5767 11.8125 20.4697Z" fill="black"/>
<path d="M19.6875 13.4697C18.303 13.4697 16.9497 13.8803 15.7985 14.6494C14.6474 15.4186 13.7502 16.5119 13.2203 17.7909C12.6905 19.07 12.5519 20.4775 12.822 21.8354C13.0921 23.1932 13.7588 24.4405 14.7378 25.4195C15.7167 26.3984 16.964 27.0651 18.3219 27.3352C19.6797 27.6053 21.0872 27.4667 22.3663 26.9369C23.6454 26.4071 24.7386 25.5099 25.5078 24.3587C26.277 23.2076 26.6875 21.8542 26.6875 20.4697C26.6853 18.6139 25.9471 16.8347 24.6348 15.5224C23.3225 14.2101 21.5433 13.4719 19.6875 13.4697ZM21.8527 18.5815L22.2902 19.894L21.4589 20.1705L21.0214 18.858L21.8527 18.5815ZM19.2631 20.3634L19.7006 18.6134L20.5494 18.8252L20.2479 20.0322H20.5625V20.9072H19.6875C19.621 20.9072 19.5555 20.8921 19.4957 20.8629C19.436 20.8338 19.3837 20.7914 19.3428 20.739C19.3019 20.6866 19.2735 20.6256 19.2597 20.5606C19.2459 20.4956 19.247 20.4279 19.2631 20.3634ZM18.1033 19.5042L18.0657 19.4665L18.6843 18.8479L18.7219 18.8855C18.8899 19.0525 19.0231 19.2512 19.1138 19.47C19.2044 19.6889 19.2507 19.9235 19.25 20.1604C19.25 20.4745 19.1252 20.7757 18.9031 20.9978C18.681 21.22 18.3798 21.3447 18.0657 21.3447H17.5V20.4697H18.0657C18.1477 20.4697 18.2264 20.4371 18.2844 20.3791C18.3424 20.3211 18.375 20.2424 18.375 20.1604C18.3753 20.0385 18.3515 19.9177 18.3049 19.8051C18.2582 19.6924 18.1897 19.5902 18.1033 19.5042ZM16.1652 18.5815L16.6027 19.894L15.7714 20.1705L15.3339 18.858L16.1652 18.5815ZM15.0032 20.779L15.6218 20.1604L15.6594 20.198C15.7455 20.2844 15.8478 20.3528 15.9604 20.3995C16.073 20.4461 16.1938 20.47 16.3157 20.4697C16.3977 20.4697 16.4764 20.4371 16.5344 20.3791C16.5924 20.3211 16.625 20.2424 16.625 20.1604V18.7197H17.5V20.1604C17.5 20.4745 17.3752 20.7757 17.1531 20.9978C16.931 21.22 16.6298 21.3447 16.3157 21.3447C16.0788 21.3452 15.8443 21.2988 15.6254 21.2082C15.4066 21.1176 15.2079 20.9845 15.0408 20.8167L15.0032 20.779ZM23.625 23.9697H21.875V23.0947H15.75V22.2197H22.75C23.0981 22.2197 23.4319 22.358 23.6781 22.6041C23.9242 22.8503 24.0625 23.1841 24.0625 23.5322C24.0625 23.6483 24.0164 23.7595 23.9344 23.8416C23.8523 23.9236 23.741 23.9697 23.625 23.9697ZM23.7125 21.1697L23.1569 20.429C23.0961 20.6894 22.949 20.9216 22.7396 21.0879C22.5301 21.2541 22.2706 21.3446 22.0032 21.3447C21.7664 21.3452 21.5318 21.2988 21.3129 21.2082C21.0941 21.1176 20.8954 20.9845 20.7283 20.8167L20.6907 20.779L21.3093 20.1604L21.3469 20.198C21.433 20.2844 21.5353 20.3528 21.6479 20.3995C21.7605 20.4461 21.8813 20.47 22.0032 20.4697C22.0852 20.4697 22.1639 20.4371 22.2219 20.3791C22.2799 20.3211 22.3125 20.2424 22.3125 20.1604V19.1572C22.3125 19.0654 22.3414 18.9759 22.3951 18.9014C22.4488 18.8269 22.5245 18.7712 22.6117 18.7422C22.6988 18.7131 22.7928 18.7122 22.8805 18.7396C22.9681 18.767 23.0449 18.8213 23.1 18.8947L24.4125 20.6447L23.7125 21.1697Z" fill="black"/>
</svg>
