<svg width="28" height="29" viewBox="0 0 28 29" fill="none" xmlns="http://www.w3.org/2000/svg">
<path d="M1.75012 6.90723C1.98219 6.90723 2.20475 6.81504 2.36884 6.65094C2.53293 6.48685 2.62512 6.26429 2.62512 6.03223V3.40723H5.25012C5.48219 3.40723 5.70475 3.31504 5.86884 3.15095C6.03293 2.98685 6.12512 2.76429 6.12512 2.53223C6.12512 2.30016 6.03293 2.0776 5.86884 1.91351C5.70475 1.74941 5.48219 1.65723 5.25012 1.65723H1.75012C1.51806 1.65723 1.2955 1.74941 1.1314 1.91351C0.967309 2.0776 0.875122 2.30016 0.875122 2.53223V6.03223C0.875122 6.26429 0.967309 6.48685 1.1314 6.65094C1.2955 6.81504 1.51806 6.90723 1.75012 6.90723ZM22.7501 3.40723H25.3751V6.03223C25.3751 6.26429 25.4673 6.48685 25.6314 6.65094C25.7955 6.81504 26.0181 6.90723 26.2501 6.90723C26.4822 6.90723 26.7047 6.81504 26.8688 6.65094C27.0329 6.48685 27.1251 6.26429 27.1251 6.03223V2.53223C27.1251 2.30016 27.0329 2.0776 26.8688 1.91351C26.7047 1.74941 26.4822 1.65723 26.2501 1.65723H22.7501C22.5181 1.65723 22.2955 1.74941 22.1314 1.91351C21.9673 2.0776 21.8751 2.30016 21.8751 2.53223C21.8751 2.76429 21.9673 2.98685 22.1314 3.15095C22.2955 3.31504 22.5181 3.40723 22.7501 3.40723ZM5.25012 26.1572H2.62512V23.5322C2.62512 23.3002 2.53293 23.0776 2.36884 22.9135C2.20475 22.7494 1.98219 22.6572 1.75012 22.6572C1.51806 22.6572 1.2955 22.7494 1.1314 22.9135C0.967309 23.0776 0.875122 23.3002 0.875122 23.5322V27.0322C0.875122 27.2643 0.967309 27.4869 1.1314 27.6509C1.2955 27.815 1.51806 27.9072 1.75012 27.9072H5.25012C5.48219 27.9072 5.70475 27.815 5.86884 27.6509C6.03293 27.4869 6.12512 27.2643 6.12512 27.0322C6.12512 26.8002 6.03293 26.5776 5.86884 26.4135C5.70475 26.2494 5.48219 26.1572 5.25012 26.1572ZM26.2501 22.6572C26.0181 22.6572 25.7955 22.7494 25.6314 22.9135C25.4673 23.0776 25.3751 23.3002 25.3751 23.5322V26.1572H22.7501C22.5181 26.1572 22.2955 26.2494 22.1314 26.4135C21.9673 26.5776 21.8751 26.8002 21.8751 27.0322C21.8751 27.2643 21.9673 27.4869 22.1314 27.6509C22.2955 27.815 22.5181 27.9072 22.7501 27.9072H26.2501C26.4822 27.9072 26.7047 27.815 26.8688 27.6509C27.0329 27.4869 27.1251 27.2643 27.1251 27.0322V23.5322C27.1251 23.3002 27.0329 23.0776 26.8688 22.9135C26.7047 22.7494 26.4822 22.6572 26.2501 22.6572Z" fill="black"/>
<path d="M14 18.2822C15.933 18.2822 17.5 16.7152 17.5 14.7822C17.5 12.8492 15.933 11.2822 14 11.2822C12.067 11.2822 10.5 12.8492 10.5 14.7822C10.5 16.7152 12.067 18.2822 14 18.2822Z" fill="black"/>
<path d="M27.0287 15.1847C27.0932 15.0603 27.1268 14.9223 27.1268 14.7822C27.1268 14.6421 27.0932 14.5041 27.0287 14.3797C25.8318 11.927 23.9832 9.85086 21.6852 8.37854C19.3872 6.90622 16.7285 6.0945 14 6.03223C11.2715 6.0945 8.61276 6.90622 6.31478 8.37854C4.01679 9.85086 2.16816 11.927 0.97124 14.3797C0.906802 14.5041 0.873169 14.6421 0.873169 14.7822C0.873169 14.9223 0.906802 15.0603 0.97124 15.1847C2.16816 17.6374 4.01679 19.7136 6.31478 21.1859C8.61276 22.6582 11.2715 23.47 14 23.5322C16.7285 23.47 19.3872 22.6582 21.6852 21.1859C23.9832 19.7136 25.8318 17.6374 27.0287 15.1847ZM14 20.0322C12.9616 20.0322 11.9466 19.7243 11.0832 19.1474C10.2199 18.5706 9.54698 17.7506 9.14962 16.7913C8.75226 15.832 8.64829 14.7764 8.85087 13.758C9.05344 12.7396 9.55345 11.8041 10.2877 11.0699C11.0219 10.3357 11.9574 9.83568 12.9758 9.6331C13.9942 9.43053 15.0498 9.5345 16.0091 9.93186C16.9684 10.3292 17.7883 11.0021 18.3652 11.8655C18.9421 12.7288 19.25 13.7439 19.25 14.7822C19.25 16.1746 18.6969 17.51 17.7123 18.4945C16.7277 19.4791 15.3924 20.0322 14 20.0322Z" fill="black"/>
</svg>
