<svg width="229" height="229" viewBox="0 0 229 229" fill="none" xmlns="http://www.w3.org/2000/svg">
<path d="M14.3106 50.0942C16.2086 50.0942 18.0288 49.3403 19.3709 47.9982C20.7129 46.6562 21.4669 44.8359 21.4669 42.938V21.4692H42.9356C44.8336 21.4692 46.6538 20.7153 47.9959 19.3732C49.3379 18.0312 50.0919 16.2109 50.0919 14.313C50.0919 12.415 49.3379 10.5948 47.9959 9.25275C46.6538 7.9107 44.8336 7.15674 42.9356 7.15674H14.3106C12.4127 7.15674 10.5925 7.9107 9.2504 9.25275C7.90834 10.5948 7.15438 12.415 7.15438 14.313V42.938C7.15438 44.8359 7.90834 46.6562 9.2504 47.9982C10.5925 49.3403 12.4127 50.0942 14.3106 50.0942ZM186.061 21.4692H207.529V42.938C207.529 44.8359 208.283 46.6562 209.625 47.9982C210.967 49.3403 212.788 50.0942 214.686 50.0942C216.584 50.0942 218.404 49.3403 219.746 47.9982C221.088 46.6562 221.842 44.8359 221.842 42.938V14.313C221.842 12.415 221.088 10.5948 219.746 9.25275C218.404 7.9107 216.584 7.15674 214.686 7.15674H186.061C184.163 7.15674 182.342 7.9107 181 9.25275C179.658 10.5948 178.904 12.415 178.904 14.313C178.904 16.2109 179.658 18.0312 181 19.3732C182.342 20.7153 184.163 21.4692 186.061 21.4692ZM42.9356 207.532H21.4669V186.063C21.4669 184.165 20.7129 182.345 19.3709 181.003C18.0288 179.661 16.2086 178.907 14.3106 178.907C12.4127 178.907 10.5925 179.661 9.2504 181.003C7.90834 182.345 7.15438 184.165 7.15438 186.063V214.688C7.15438 216.586 7.90834 218.406 9.2504 219.748C10.5925 221.09 12.4127 221.844 14.3106 221.844H42.9356C44.8336 221.844 46.6538 221.09 47.9959 219.748C49.3379 218.406 50.0919 216.586 50.0919 214.688C50.0919 212.79 49.3379 210.97 47.9959 209.628C46.6538 208.286 44.8336 207.532 42.9356 207.532ZM214.686 178.907C212.788 178.907 210.967 179.661 209.625 181.003C208.283 182.345 207.529 184.165 207.529 186.063V207.532H186.061C184.163 207.532 182.342 208.286 181 209.628C179.658 210.97 178.904 212.79 178.904 214.688C178.904 216.586 179.658 218.406 181 219.748C182.342 221.09 184.163 221.844 186.061 221.844H214.686C216.584 221.844 218.404 221.09 219.746 219.748C221.088 218.406 221.842 216.586 221.842 214.688V186.063C221.842 184.165 221.088 182.345 219.746 181.003C218.404 179.661 216.584 178.907 214.686 178.907Z" fill="#BDE9EF"/>
<path d="M114.5 143.125C130.309 143.125 143.125 130.31 143.125 114.5C143.125 98.6913 130.309 85.8755 114.5 85.8755C98.6908 85.8755 85.875 98.6913 85.875 114.5C85.875 130.31 98.6908 143.125 114.5 143.125Z" fill="#BDE9EF"/>
<path d="M221.057 117.792C221.584 116.775 221.859 115.646 221.859 114.5C221.859 113.355 221.584 112.226 221.057 111.209C211.268 91.1489 196.148 74.1689 177.354 62.1275C158.56 50.086 136.815 43.4473 114.5 42.938C92.1852 43.4473 70.4404 50.086 51.6462 62.1275C32.852 74.1689 17.7328 91.1489 7.94368 111.209C7.41667 112.226 7.1416 113.355 7.1416 114.5C7.1416 115.646 7.41667 116.775 7.94368 117.792C17.7328 137.852 32.852 154.832 51.6462 166.873C70.4404 178.915 92.1852 185.554 114.5 186.063C136.815 185.554 158.56 178.915 177.354 166.873C196.148 154.832 211.268 137.852 221.057 117.792ZM114.5 157.438C106.008 157.438 97.7065 154.92 90.6454 150.202C83.5844 145.484 78.081 138.778 74.8312 130.932C71.5813 123.086 70.731 114.453 72.3878 106.124C74.0445 97.7947 78.1339 90.144 84.1388 84.1391C90.1438 78.1342 97.7945 74.0448 106.124 72.388C114.453 70.7313 123.086 71.5816 130.932 74.8314C138.777 78.0813 145.483 83.5847 150.201 90.6457C154.919 97.7067 157.438 106.008 157.438 114.5C157.438 125.888 152.914 136.81 144.862 144.862C136.809 152.914 125.888 157.438 114.5 157.438Z" fill="#BDE9EF"/>
</svg>
