<svg width="12" height="13" viewBox="0 0 12 13" fill="none" xmlns="http://www.w3.org/2000/svg">
<path d="M10.0815 2.1363C8.85681 0.911598 6.87118 0.911599 5.64648 2.1363L4.41856 3.36422C4.22329 3.55948 4.22329 3.87606 4.41856 4.07133C4.61382 4.26659 4.9304 4.26659 5.12566 4.07133L6.35358 2.8434C7.18776 2.00923 8.54022 2.00923 9.3744 2.8434C10.2086 3.67758 10.2086 5.03005 9.3744 5.86422L8.14648 7.09214C7.95122 7.2874 7.95122 7.60399 8.14648 7.79925C8.34174 7.99451 8.65832 7.99451 8.85358 7.79925L10.0815 6.57133C11.3062 5.34663 11.3062 3.361 10.0815 2.1363Z" fill="#39C4D5"/>
<path d="M3.85358 5.3434C4.04885 5.14814 4.04885 4.83156 3.85358 4.6363C3.65832 4.44104 3.34174 4.44104 3.14648 4.6363L1.91856 5.86422C0.693856 7.08892 0.693856 9.07455 1.91856 10.2992C3.14325 11.5239 5.12888 11.5239 6.35358 10.2992L7.58151 9.07133C7.77677 8.87606 7.77677 8.55948 7.58151 8.36422C7.38624 8.16896 7.06966 8.16896 6.8744 8.36422L5.64648 9.59214C4.8123 10.4263 3.45984 10.4263 2.62566 9.59214C1.79149 8.75797 1.79149 7.4055 2.62566 6.57133L3.85358 5.3434Z" fill="#39C4D5"/>
<path d="M7.60359 5.32133C7.79885 5.12606 7.79885 4.80948 7.60359 4.61422C7.40832 4.41896 7.09174 4.41896 6.89648 4.61422L4.39648 7.11422C4.20122 7.30948 4.20122 7.62606 4.39648 7.82133C4.59174 8.01659 4.90832 8.01659 5.10358 7.82133L7.60359 5.32133Z" fill="#39C4D5"/>
</svg>
