<svg width="12" height="13" viewBox="0 0 12 13" fill="none" xmlns="http://www.w3.org/2000/svg">
<path fill-rule="evenodd" clip-rule="evenodd" d="M6 8.09277C4.96447 8.09277 4.125 7.25331 4.125 6.21777C4.125 5.18224 4.96447 4.34277 6 4.34277C7.03553 4.34277 7.875 5.18224 7.875 6.21777C7.875 7.25331 7.03553 8.09277 6 8.09277ZM4.875 6.21777C4.875 6.83909 5.37868 7.34277 6 7.34277C6.62132 7.34277 7.125 6.83909 7.125 6.21777C7.125 5.59645 6.62132 5.09277 6 5.09277C5.37868 5.09277 4.875 5.59645 4.875 6.21777Z" fill="#2BB9CA"/>
<path fill-rule="evenodd" clip-rule="evenodd" d="M6 2.34277C4.71472 2.34277 3.61298 2.90848 2.76015 3.57427C1.90656 4.24065 1.27563 5.02764 0.922705 5.52253L0.896096 5.55964C0.769518 5.73568 0.625 5.93667 0.625 6.21777C0.625 6.49888 0.769518 6.69987 0.896096 6.87591L0.922706 6.91301C1.27563 7.4079 1.90657 8.1949 2.76015 8.86128C3.61298 9.52707 4.71472 10.0928 6 10.0928C7.28528 10.0928 8.38702 9.52707 9.23985 8.86128C10.0934 8.19489 10.7244 7.4079 11.0773 6.91301L11.1039 6.87591C11.2305 6.69987 11.375 6.49888 11.375 6.21777C11.375 5.93667 11.2305 5.73568 11.1039 5.55964L11.0773 5.52253C10.7244 5.02764 10.0934 4.24065 9.23985 3.57427C8.38702 2.90848 7.28528 2.34277 6 2.34277ZM1.53334 5.958C1.86344 5.49512 2.44619 4.77086 3.22168 4.16545C3.99794 3.55943 4.94067 3.09277 6 3.09277C7.05933 3.09277 8.00206 3.55943 8.77832 4.16544C9.55381 4.77086 10.1366 5.49512 10.4667 5.958C10.5483 6.07251 10.5872 6.12842 10.6104 6.17293C10.6251 6.20123 10.625 6.20898 10.625 6.21658L10.625 6.21777L10.625 6.21897C10.625 6.22656 10.6251 6.23432 10.6104 6.26261C10.5872 6.30712 10.5483 6.36304 10.4667 6.47755C10.1366 6.94043 9.55381 7.66468 8.77832 8.2701C8.00206 8.87612 7.05933 9.34277 6 9.34277C4.94067 9.34277 3.99794 8.87612 3.22168 8.2701C2.44619 7.66469 1.86344 6.94043 1.53334 6.47755C1.45167 6.36304 1.41281 6.30712 1.38964 6.26261C1.37491 6.23432 1.37496 6.22656 1.375 6.21897L1.375 6.21777L1.375 6.21658C1.37496 6.20898 1.37491 6.20123 1.38964 6.17293C1.41281 6.12842 1.45167 6.07251 1.53334 5.958Z" fill="#2BB9CA"/>
</svg>
