<svg width="32" height="33" viewBox="0 0 32 33" fill="none" xmlns="http://www.w3.org/2000/svg">
<path fill-rule="evenodd" clip-rule="evenodd" d="M16.0921 3.78198C17.8565 3.78194 19.3114 3.78191 20.463 3.93637C21.672 4.09853 22.7397 4.45209 23.5946 5.30503C24.4496 6.15797 24.8039 7.22323 24.9665 8.42941C25.0404 8.97775 25.079 9.59506 25.0992 10.282C25.0992 10.282 26.8197 10.2818 27.4395 10.365C28.1163 10.4557 28.8105 10.6665 29.3792 11.2339C29.9479 11.8013 30.1592 12.4939 30.2502 13.1691C30.3335 13.7875 30.3334 14.5515 30.3334 15.4019L30.3333 25.882C30.3333 28.0359 28.5832 29.782 26.4243 29.782H10.696C8.9315 29.782 7.47651 29.7821 6.32494 29.6276C5.11595 29.4654 4.04822 29.1119 3.19329 28.2589C2.33836 27.406 1.98398 26.3408 1.82143 25.1346C1.66661 23.9857 1.66665 22.5341 1.66669 20.7738V12.7902C1.66665 11.0299 1.66661 9.57827 1.82143 8.42941C1.98398 7.22323 2.33836 6.15797 3.19329 5.30503C4.04822 4.45209 5.11595 4.09853 6.32494 3.93637C7.47649 3.78191 8.93149 3.78194 10.6959 3.78198H16.0921ZM26.4255 27.1819C27.1451 27.1819 27.7285 26.5999 27.7285 25.8819V15.4819C27.7285 14.5259 27.7257 13.9397 27.6685 13.5155C27.6183 13.1426 27.5468 13.0803 27.5383 13.0729L27.537 13.0716C27.5297 13.0632 27.4673 12.9919 27.0935 12.9417C26.6682 12.8847 26.0806 12.8819 25.1224 12.8819V25.8819C25.1224 26.5999 25.7058 27.1819 26.4255 27.1819ZM8.00002 10.4487C7.44774 10.4487 7.00002 10.8964 7.00002 11.4487C7.00002 12.0009 7.44774 12.4487 8.00002 12.4487H18.6667C19.219 12.4487 19.6667 12.0009 19.6667 11.4487C19.6667 10.8964 19.219 10.4487 18.6667 10.4487H8.00002ZM8.00002 15.782C7.44774 15.782 7.00002 16.2297 7.00002 16.782C7.00002 17.3343 7.44774 17.782 8.00002 17.782H18.6667C19.219 17.782 19.6667 17.3343 19.6667 16.782C19.6667 16.2297 19.219 15.782 18.6667 15.782H8.00002ZM8.00002 21.1153C7.44774 21.1153 7.00002 21.563 7.00002 22.1153C7.00002 22.6676 7.44774 23.1153 8.00002 23.1153H13.3334C13.8856 23.1153 14.3334 22.6676 14.3334 22.1153C14.3334 21.563 13.8856 21.1153 13.3334 21.1153H8.00002Z" fill="#2BB9CA"/>
</svg>
